/* XPM */
static char *_666121254777[] = {
/* columns rows colors chars-per-pixel */
"64 64 253 2 ",
"   c #1E1219",
".  c #31161C",
"X  c #391A23",
"o  c #3B2C31",
"O  c #4A141B",
"+  c #56161D",
"@  c #5A1B22",
"#  c #421C27",
"$  c #681C24",
"%  c #462931",
"&  c #583938",
"*  c #4E3134",
"=  c #6B232C",
"-  c #7D2229",
";  c #752229",
":  c #6F3238",
">  c #64423D",
",  c #5F4139",
"<  c #623943",
"1  c #583A46",
"2  c #5C4448",
"3  c #674844",
"4  c #754B43",
"5  c #78534A",
"6  c #785A55",
"7  c #6D5153",
"8  c #7C685B",
"9  c #7D6369",
"0  c #84252C",
"q  c #8A262C",
"w  c #8C282D",
"e  c #93292E",
"r  c #882B34",
"t  c #952B31",
"y  c #9B2D33",
"u  c #9A3339",
"i  c #89373A",
"p  c #A22E36",
"a  c #AC333A",
"s  c #A53439",
"d  c #B6363C",
"f  c #9D423F",
"g  c #903C44",
"h  c #AA3C42",
"j  c #B23D44",
"k  c #C33E45",
"l  c #984449",
"z  c #85594C",
"x  c #885C53",
"c  c #944B50",
"v  c #A74448",
"b  c #BA4449",
"n  c #B15256",
"m  c #8A6456",
"M  c #966958",
"N  c #9A715D",
"B  c #8A7A59",
"V  c #A4735C",
"C  c #A16E58",
"Z  c #B85D69",
"A  c #866865",
"S  c #966B67",
"D  c #997565",
"F  c #967C74",
"G  c #8E7371",
"H  c #A37562",
"J  c #AA7B64",
"K  c #A67A66",
"L  c #B47765",
"P  c #AD706D",
"I  c #865D65",
"U  c #C6484D",
"Y  c #C64C52",
"T  c #C95559",
"R  c #D24F55",
"E  c #C47071",
"W  c #D45D61",
"Q  c #9C8B67",
"!  c #9A837C",
"~  c #88817D",
"^  c #AB826C",
"/  c #B4846B",
"(  c #BB8B6E",
")  c #B58669",
"_  c #A6946D",
"`  c #A98577",
"'  c #B78C74",
"]  c #AC9A78",
"[  c #B89578",
"{  c #BBA67B",
"}  c #BEAA7E",
"|  c #B5A27A",
" . c #AFA17E",
".. c #94825E",
"X. c #C49A7C",
"o. c #CB9D7D",
"O. c #C59577",
"+. c #C68D72",
"@. c #C8A67D",
"#. c #8A9D93",
"$. c #9A9D93",
"%. c #90948A",
"&. c #A99986",
"*. c #B79887",
"=. c #AD928A",
"-. c #8EA59B",
";. c #9DA99D",
":. c #96A59A",
">. c #92A08F",
",. c #ADA38D",
"<. c #AEA287",
"1. c #BCAA84",
"2. c #B7A788",
"3. c #A3A394",
"4. c #ABA69A",
"5. c #AAAA9D",
"6. c #A7A798",
"7. c #B4AA94",
"8. c #B4AC99",
"9. c #BAA797",
"0. c #BCB29A",
"q. c #AEB19E",
"w. c #95ABA3",
"e. c #9DACA3",
"r. c #94AEAB",
"t. c #96ABA8",
"y. c #9CB2AD",
"u. c #97B0AC",
"i. c #9BB3B3",
"p. c #98B3B4",
"a. c #91ABAA",
"s. c #A2ACA3",
"d. c #ACADA3",
"f. c #A5AEAD",
"g. c #ADB1A3",
"h. c #A4B4AB",
"j. c #ABB4AB",
"k. c #A7B3A9",
"l. c #B4B2A5",
"z. c #B8B8A9",
"x. c #A1B5B4",
"c. c #A5BABB",
"v. c #ACBCBC",
"b. c #A7B8B5",
"n. c #B4BCB7",
"m. c #B1ABA3",
"M. c #C79C83",
"N. c #C98C8C",
"B. c #CDA282",
"V. c #C3AE83",
"C. c #C8AA8D",
"Z. c #D2A483",
"A. c #D4AB8B",
"S. c #D8AA88",
"D. c #C5B28C",
"F. c #CAB68C",
"G. c #C8B487",
"H. c #DAB38E",
"J. c #C6AA96",
"K. c #D6AE91",
"L. c #CDBB92",
"P. c #C7B799",
"I. c #DCB493",
"U. c #D1BE95",
"Y. c #D6B798",
"T. c #E3BC9B",
"R. c #E2B895",
"E. c #C3B9A4",
"W. c #C7B8A7",
"Q. c #CEB7AC",
"!. c #DFAAA3",
"~. c #B4C2BD",
"^. c #BBC4BC",
"/. c #BBC6BB",
"(. c #B7C0B4",
"). c #D3C296",
"_. c #D5C39A",
"`. c #D9C79C",
"'. c #CFC09B",
"]. c #DDCBA3",
"[. c #D9C8A4",
"{. c #C6C6B9",
"}. c #D9C9BA",
"|. c #CBC8B3",
" X c #E9C7A7",
".X c #E5CCB4",
"XX c #F4D6B9",
"oX c #F3D6B8",
"OX c #EDD1B1",
"+X c #E9C29C",
"@X c #A8BDC0",
"#X c #B4C3C2",
"$X c #BAC6C4",
"%X c #BAC9C5",
"&X c #BDCBC9",
"*X c #B7C8C2",
"=X c #C4CCC2",
"-X c #CBCCC3",
";X c #C5CDC8",
":X c #D7CCC3",
">X c #C5D1CC",
",X c #CDD3CC",
"<X c #CDD1C5",
"1X c #DBD9CB",
"2X c #D8D5C9",
"3X c #CBD5D2",
"4X c #D4DAD4",
"5X c #DBDCD4",
"6X c #D4DCDB",
"7X c #D8DCD7",
"8X c #E3DCCC",
"9X c #E7D7C7",
"0X c #F2DDC4",
"qX c #E2DED3",
"wX c #E8DBD8",
"eX c #EAC8CA",
"rX c #DCE1DD",
"tX c #DFE1D5",
"yX c #EBE1CD",
"uX c #F4E1C9",
"iX c #E3E2D5",
"pX c #EBE4D3",
"aX c #E4E4DC",
"sX c #EAE6DC",
"dX c #ECEADD",
"fX c #EBE9D8",
"gX c #F3ECDC",
"hX c #F8EDDA",
"jX c #F2E8D6",
"kX c #F8F1DE",
"lX c #D8DFE0",
"zX c #DCE4E1",
"xX c #E2E6E1",
"cX c #EAE7E2",
"vX c #ECEBE4",
"bX c #EDEEE9",
"nX c #E6E9E3",
"mX c #F2EEE3",
"MX c #F5EFE7",
"NX c #EFF0EA",
"BX c #EEF1E5",
"VX c #F5F1E5",
"CX c #FAF4E4",
"ZX c #F4F3EB",
"AX c #FAF6EC",
"SX c #FDF9ED",
"DX c #FBF8E7",
"FX c #F6F5F1",
"GX c #FAF7F0",
"HX c #FDFBF2",
"JX c #FEFEFA",
"KX c #F7F8F0",
"LX c #ECFDF5",
/* pixels */
"sXaXaX6X6X6X6X6X6X6XzXzXrX6X6X7X7X4X4X7X7X7X6X6XzXrXzXrXxXxXxXzXaXaXwXlX7X7X4X5XiXaXsXaXaXiX1X4X<X<X&X*X@Xv.v.v.v.v.v.v.v.n.@Xn.",
"aXaXaX6X7X6X6XlXzXzXxXxXzXrX6XrXlX7XzX7XaX7XwXxXxXzXxXaX:XwXvXvXnXwXlXbXxXwXaXwXfXvXdXsXiXtX4X4X,X>X&X%X$X#X#X@X#X@X=Xn.@Xn.n.@X",
"aXsXaXaXrX7XrXzXzXnXzXzXxXzXnXxXxXvXbXbXvXxXcXvXcXcXcX9.F *.!.wX!.Z Z N.wXvXvXvXvXgXbXnXaXrXrXrX4X3X3X>X&X$X$X$X=X;X{.{.;X@X^.^.",
"vXmXbXvXvXvXzXxXzXnXxXzXxXvXvXbXbXFXNXbXbXbXbXNXNXFX:XG F G I Z h h p g E wXbXbXmXbXbXnXnXaXrXrX6X6X6X3X3X>X>X>X;X-X:X;X{.-X{.^.",
"VXZXMXbXbXbXvXcXbXbXbXbXNXNXNXFXZXFXZXbXbXZXNXZXFXFXQ.A A 7 D P g r r r g N.wXFXNXbXbXbXnXaXzXzXzXrX7XrX7X7X4X,X,X,X,X,X;X;X;X$X",
"vXbXbXMXNXZXFXGXFXNXNXNXZXFXKXKXFXFXNXFXFXFXNXMXZXFX4XG 6 %.Q.:Xm.< = = g g !.bXNXbXbXvXaXxXnXxXxXxXaXiXaXiX7X,X,X:X,X,X:X,X;X-X",
"vXvXbXbXNXFXGXGXHXKXGXGXAXAXSXZXZXFXFXFXFXFXFXFXFXFXZXQ.f.n.3XLX3X%   # : v E eXZXbXNXbXaXnXbXvXvXvXcXvXaXaX5X4X1X2X:X,X,X,X-X;X",
"mXMXZXAXGXGXGXHXGXJXHXKXHXAXZXZXbXZXFXAXGXKXGXGXFXFXFX,X=X*.m.;X~ < %   % l Z eXZXNXNXbXvXNXVXvXbXZXZXmXVXfXqX8X1X2X-X;X:X,X:X;X",
"CXZXAXGXHXGXHXHXKXKXGXGXHXGXAXZXZXAXGXGXGXHXHXGXFXGXGX5XW.` [ C.N.S 7 X % c Z eXVXBXZXbXsXbXZXvXmXVXCXZXmXiX5X8X8X2X2X{.,X4X,X,X",
"CXZXAXHXSXSXGXHXHXHXHXHXGXGXGXFXZXGXGXZXGXGXGXAXAXGXGXGXwXY.H.Y.J.P 6 3 3 M N.cXvXnXdXvXvXdXdXfXfXSXSXAXgXpXiXtXqXqX2X2X4X4X4X2X",
"ZXSXCXAXAXSXSXSXHXHXSXSXGXHXGXGXGXAXHXHXGXHXHXSXAXMXGXGX0XT.H.B.B.[ A m M A Q.NXvXvXvXaXaXdXdXiXsXZXAXAXCXfXpXaXqX5X1X1X5X7X7X4X",
"CXCXAXAXHXCXSXCXSXSXSXSXSXSXSXGXHXAXSXHXGXHXHXAXSXFXFXNXuX.XU.[ / D D G 7 9 aXZXNXBXvXvXvXdXgXgXgXZXAXVXMXgXpXiXrXqX8X8XtXrXrXtX",
"mXCXSXSXSXSXSXCXCXMXCXCXSXSXSXSXSXHXHXHXHXHXHXSXGXGXZXZX9XC.' N m 5 z N G z.VXZXZXbXNXBXbXvXfXgXCXAXZXvXbXmXmXvXaXaXaXaXrXrXrXrX",
"8XVXSXSXSXSXAXmXmXvXgXmXVXSXSXSXSXSXHXHXHXHXHXHXGXSXAXZXwXJ.` ^ m m N ^ &.1XdXgXVXdXvXBXMXBXgXVXSXSXSXZXvXZXVXBXbXvXvXvXvXnXnXaX",
"qXgXSXSXCXgXmXmXjXgXdXdXmXSXSXSXHXHXHXHXHXHXHXHXHXAXZXMXFXjX+XS.( ( ) ' W.tXiXiXfXpXfXvXvXZXBXmXCXSXSXZXNXNXNXZXZXZXZXMXvXvXnXaX",
"jXgXmXCXVXgXVXgXsXgXgXmXAXSXHXHXHXHXHXSXHXHXKXAXGXFXZXAXGXuXOXR.X.@.O.N A E.}.yXiXfXsXvXnXvXvXNXZXAXZXZXFXFXFXGXKXAXZXZXVXBXvXbX",
"VXVXkXmXgXgXVXkXkXgXVXCXAXSXSXSXSXSXGXSXSXSXAXAXSXSXGXGXMX.X XR.H.S.+.> f +.@.+X.XpXfXdXvXvXbXvXNXZXZXCXKXSXKXKXKXKXKXZXVXBXVXvX",
"CXCXVXBXdXmXVXSXSXDXDXZXHXSXSXSXCXSXAXSXCXSXCXgX0X0XXXXXY.Y. XI.T.S.M C +.o.R.@.Z.M.C.2XZXZXVXZXNXBXZXZXSXSXSXSXAXAXAXAXDXVXVXZX",
"hXkXgXjXfXgXgXCXSXSXDXDXSXSXSXCXCXVXCXCXCXCXuX0XoXOXoXOXJ.I. X XI.` o.S.@.@.+X+XR.o.) ) Q.kXAXAXKXAXAXAXSXSXSXAXSXAXAXSXDXZXVXvX",
"jXjXpXyXyXyXpXjXkXCXCXkXVXCXVXCXCXCXVXCXhX0X0XXXoXXXoXoXJ.T. X X[ H.+XR.R.o.@.+XR.o.( ) V 9.vXHXAXHXAXHXSXSXSXKXSXSXAXAXZXVXgXsX",
"jXfXyXyX9X8X9XyXhXhXhXkXkXkXkXkXCXCXDXkX0XXXoXoXXXXXXXXXJ. XoXJ.J. X XR.@.o.o.@.o.o.O.) V N 9.VXHXHXSXSXHXSXSXSXAXAXAXZXVXBXbXsX",
"kXCXkXhXjXyXyXyXjXhXhXhXkXhXkXhXkXkXCXuXOX XOXXXXXXXXXXXJ.Q. X*. X X XI.@.o.o.o.o.+.+.) V V M J.ZXHXHXSXSXSXDXAXAXAXZXZXNXMXZXBX",
"kXkXkXDXDXDXkXkXkXkXkXhXhXhXhXhXgXhXuX+XH.S.R.oXoXXXoX0XP.K.J.P.oX XR.H.o.o.+.+.) V C V J J M M *.qXAXAXKXDXDXAXAXAXZXCXVXZXVXBX",
"kXkXkXkXDXDXDXDXSXDXDXDXkXkXkXkXhXXX XT.Z.^ +.+X XoXoXXXY.*.*..XOX XR.Z.+.+.V C > > z M V V C C V K Q.gXAXAXAXAXSXAXCXCXZXVXVXVX",
"kXVXkXVXCXCXDXSXDXSXSXDXDXDXDXDXuXOX+XT.B.K N Z.+XOXoXoXY.F M.OX XT.Z.+.L V z : , & 3 z V J L J J V S J.gXCXCXSXDXCXVXVXmXmXmXmX",
"kXVXCXCXCXCXDXSXSXHXHXSXSXSXDXuX X XI.o.) ^ 7.Q.H.+X XOXK.6 M. XT.I.O.M z > , 5 * o > ` [ ) ) / ( / H D J.gXmXCXVXDXVXvXfXsXsXsX",
"CXCXCXCXCXDXSXSXSXSXSXSXSXSXjX XI.S.O.K ` W.gXhXC.A.I.I.[ 6 ' I.S.o.H & * & 7 F m 9 =.eXjXJ./ ( ( +./ K F Q.wXvXvXVXVXVXmXmXmXmX",
"CXSXCXCXDXDXSXSXSXSXHXHXSXVX XK.@.' N ` .XCXDXDX}.A.S.M.X.6 ' R.Z.( x & & & 3 ` =.=.8XmXmXwXJ.J H J +.' J *.:XcXsXvXvXmXmXvXvXvX",
"CXSXSXSXSXSXSXHXSXHXHXHXSX.XH.B.D m ` 9XSXSXSXSX0XI.I.T. X*.K. Xo.V z & , , 2 F =.9.wXgXcXcXjXQ.K S X.B.D m ! 2XcXcXcXcXcXvXnXnX",
"CXSXSXSXHXSXHXHXHXHXHXJXAXL.Z.Z.K %.sXHXHXSXHXHX9XI.T. XK.' I.K.( C M z 4 3 3 F 9.eXmXmXMXMXMXMXwXQ.K.+.z 7 D W.cXcXcXcXcXcXnXcX",
"SXSXSXHXHXSXHXHXHXJXJXJXmXC.A.Z.o.}.JXJXHXJXHXHXpXK.S.A.+.n @.A./ V M z 5 5 6 ` Q.sXMXMXMXMXMXMXMX.XK.' 6 m S ! wXcXMXcXcXcXcXcX",
"HXSXHXHXHXJXHXJXJXJXJXJXAXJ.B.Z.O.A.MXJXJXJXJXJXyXI.Z.B.E v [ I.O.V M m z z A &..XCXMXMXMXMXMXMXwXK.M.K 6 6 6 =.wXMXcXmXcXcXcXxX",
"kXkXDXDXSXSXSXSXJXHXJXJXJX:X[ F.B.O.9XHXJXHXHXKXXXI.A.Z.N.x ^ X.V x M m 5 5 D W.9XwXuXuXyX8XqX9XC.Z.[ x 6 6 F Q.5X1X8X8X2XeX:X2X",
"BXgXgXkXkXgXDXkXAXKXFXHXJXFXE._ A.B.K.mXKXZXKXDX}.A.Z.M./ m / J x x M m z x =.}.8X8X1X2X9X1X}.J.M.' S 6 6 F n.:X-X-X-X-X-X-X-X{.",
"fXfXfXfXdXgXBXBXBXVXZXKXFXFXrX] ` B.M.}.BXBXBXfX XA.Z.o.X.Z.Z.' M M V H M S 9.:X<X-X-X-X=XQ.9.M.` S m 6 F n.%X#X$X$X#X#Xn.v.n.v.",
"1X2X2XtX8XtXtXtXiXaXaXnXnXnXBX<X! / O.B.|.tX5X9X XH.A.Z.o.Z.B.L V J ( ( J ` {.^.#Xn.v.v.4.' ' H x 6 x %.f.c.v.@X@X@Xv.x.c.c.x.x.",
"/.&X/.{./.=X<X}.<X}.|.<X2X2X2X2X|.] ' O.S.[..X XY.A.Z.o.K ' ( K N +.o.O.^ =.{.b.x.i.s.[ ^ J B 7 7 A $.p.c.@X@X@X@X@Xx.@Xc.x.x.c.",
"~./././.*X*X=X%X{.>X<X,X<X<X3X2X2X{.2.' O.R. XI.I.S.Z.X.M X.Z.' ) o.S.o.J *.0.9.J.2.*.L N m 7 8 %.t.c.p.c.p.p.p.p.@X@X@Xc.p.p.i.",
"#X#X~.#X*X*X*X#X&X&X*X&X&X&X&X>X3X>X~.*.*.o.A.A.Z.B.Z.o.C.I.Z.( ( o.o.( z ` K.Z.o.( D m 6 8 ~ a.r.a.a.a.p.p.p.p.p.p.x.@X@Xp.p.x.",
"p.#Xi.~.#X#X#X*X*X&X&X&X%X*X&X>X&X&X&X*X8.[ ' O.X.O.( / O.M./ J ) +.) m & x M.' V m m 6 G w.r.r.p.p.a.p.p.p.a.p.r.p.x.i.x.x.i.f.",
"c.i.y.~.b.i.~.#X#X*X*X*X*X*X/.&X>X&X>X&X/.8.[ [ M.( ^ H J J C C V V M > * , C M x 4 6 %.u.u.a.a.r.r.u.r.r.r.p.y.t.p.i.-.r.u.i.a.",
"h.c.~.~.~.~.~.~.~.~.*X&X*X*X&X>X>X>X>X>X>X%Xz.B.O.( J H H N x M N z z > * . & z 5 6 %.y.r.w.u.r.u.u.u.i.i.y.y.r.t.a.r.t.i.f.y.t.",
"y.h.h.h.(.b.u.y.(.h.(.~.*X*X/.&X>X>X=X/.=X%Xz.M.' ' P V H M M M M > z z & * 1 x F -.t.r.r.r.u.y.u.r.-.a.i.u.u.t.t.i.f.t.a.-.#.#.",
"h.h.h.y.e.b.h.h.h.y.(.(.*X*X/.&X>X,X{.&X=X/.l.M.) J H H H N M x > l M > * & F f.a.t.t.-.w.w.-.-.:.w.-.-.e.b.x.h.f.i.u.#.#.#.#.#.",
"e.;.e.(.h.k.k.(.(.(.(.y./.{.{.&X{.>X=X=X{.&XJ.E E Z V S P ' ` c l n v i = : Z N.e.w.w.h.y.w.w.:.-.-.:.w.-.-.;.w.t.e.e.e.w.w.$.w.",
"k.k.e.k.k.k.k.e.q.q.(.(./././.=X{.<X<X=X=X/.M.W n n N.Q.Q.=.=.l f f p w ; ; n E s.w.e.h.h.h.e.s.e.e.e.w.e.h.h.k.s.j.b.j.e.w.#.s.",
"(.e.q.k.(.(.(.k.(.(.(./././.{.{.=X<X{.{.{./.N.n Z E N.J.4.A S c n v v h i : c P :.:.>.>.:.s.:.>.:.s.h.k.e.k.b.s.s.h.f.e.e.$.$.#.",
"q.6.;.6.;.q.q.6.q.q.q.q.0.(.(.{.{.{.{.{.z.9.E T n T N.P =.g g i i k U a ; ; & G $.6.e.;.s.;.;.;.;.;.e.;.k.:.5.;.;.s.f.s.e.e.e.s.",
";.6.q.5.q.g.j.z.z.z.z.z.z.z.|.z.|.|.{.{.Q.m.W Y b R W N.=.Y T j a d d p 0 $ < I 3.s.j.j.j.s.;.5.k.j.j.k.j.j.;.$.%.;.f.s.s.s.s.$.",
"6.q.g.q.q.k.l.z.(.z.z.{.{.{.{.{.{.{.{.{.{.J.T R R R U S P Y T j d d k a - $ = 9 =.g.l.g.l.g.d.g.q.j.j.d.d.j.m.d.3.:.d.d.s.d.s.$.",
"7.3.,.<.<.<.2.7.7.0.z.0.0.z.z.'.{.{.|.z.9.E R R R U j g S g v s a a j a - $ * 7 P 3.6.6.3.&.3.3.5.5.5.3.3.6.5.d.4.5.d.d.3.$.$.$.",
"<.,.,.7.,.2.7.7.7.7.7.0.E.E.0.P.P.U.W.|.W.E Y b h u b v g i g p y p p h - $ = 7 F z.l.l.l.g.l.l.l.l.l.z.z.l.m.d.6.4.d.4.4.$.=.3.",
"<.<.,.,.,.7.<.,.8.0.0.7.0.0.E.W.E.E.z.E.J.T b b b Y Y v l v b k d d a y ; $ @ 1 S 9.m.m.7.8.8.l.z.l.z.z.z.l.z.z.z.m.l.d.4.4.4.d.",
"0.0.P.P.P.P.0.0.0.1.0.0.0.P.P.E.P.P.W.E.*.b b b b j u v l h v a p p p e ; + @ 1 S =.=.,.,.,.,.,.,.,.9.7.8.8.8.4.4.6.4.5.6.4.4.4.",
").).).).)._._.).)._.)._._.[.[._._.'.[.Q.X.b b j j b U h l l b s p p p p - @ @ * I ,.0.9.7.7.0.8.P.W.E.0.9.,.7.8.7.,.,.&.%.&.&.%.",
"`.).D._.`.].].].].].]..X].].].].[.].[.[.+.h v d j b h i l v j a p e p p - @ @ % 6 C.Q.U._.W.U.P.P.P.P.P.P.P.P.0.0.0.0.7.2.&.&.] ",
").)._._.].].].].`.`.].].].].].]. X].].].L h v j h j h ; r j a y e q a a - O O X 7 J._._.)._._._.).L.).F.F.F.F.F.D.C.1.2.1.2.<.| ",
").).).).`.).`.`.`.`.].].].].].].].]..X_.n s a s s s u @ ; a a 0 q q d p $ O O . < 2.)._.U.`._._.).).L.).F.F.P.P.D.D.D.1.2.2. .] ",
"P.).'.).).G.).).`.`._.1.`.].].].].].].U.v u u u s s r @ @ p p - e q a p + X O   % &.).)._._._.L.F.).).P.F.L.D.1.2.2.1.1.{ <. .] ",
").L.).).F.F.'.'._.'.[.P.'.].].].`.[.[.L.v t y y t t 0 @ @ p e 0 e p d 0 O O O   % Q 1.G.F.H.U.F.1.D.P.F.P.L.D.D.2.1.2. .]  . .] ",
").G.@.G.G.).F.).).F.)._.'.)._._.'._._.L.h e e e t 0 - + + y q q p p y $ O + $ . * 8 | 1.1.G.G.1.G.V.1.D.G.1.1.1.1.| | ] _ _ ] _ ",
"@.@.} G.).).'.).).).U.`.'.).)._.).)._.D.f e q q q 0 - + + e q q e e 0 + O + $ . X 2 { } G.G.} } V.V.@.1.V.V.1.1.] ] _ _ Q Q Q Q ",
"} } } | _ } F.).L.L.).L.)._.)._.).F.).V.u w q 0 0 q - O O r q q e e - + + O O # . 3 G.@.1.G.} } } 1.} } | } | | ] | _ Q Q Q Q B ",
"| { { { } @.@.G.F.F.G.G.L.L.L.F.).@.G.@.i 0 - 0 0 - $ O O r q 0 q q - + + O O # o 3 { } | } } _ 8 8 1. .| | | _ _ _ Q B ..B ..8 "
};
