/* XPM */
static char *_666120976174[] = {
/* columns rows colors chars-per-pixel */
"64 64 240 2 ",
"   c #0A161D",
".  c #121B1B",
"X  c #161C17",
"o  c #1C211D",
"O  c #23261C",
"+  c #0B1920",
"@  c #162726",
"#  c #183429",
"$  c #1B3737",
"%  c #11282C",
"&  c #272B23",
"*  c #293B37",
"=  c #2F392E",
"-  c #274639",
";  c #364737",
":  c #354B37",
">  c #42463B",
",  c #233C42",
"<  c #344A46",
"1  c #34524F",
"2  c #3D6358",
"3  c #475947",
"4  c #52564B",
"5  c #525B53",
"6  c #5A6457",
"7  c #496356",
"8  c #656B5C",
"9  c #486967",
"0  c #536F6B",
"q  c #697568",
"w  c #75776A",
"e  c #787D71",
"r  c #6A766F",
"t  c #8B1C13",
"y  c #86180E",
"u  c #9D241A",
"i  c #9C2B1B",
"p  c #942417",
"a  c #9B351B",
"s  c #8E2819",
"d  c #A22A1C",
"f  c #A2241B",
"g  c #A4321E",
"h  c #9A3826",
"j  c #922A21",
"k  c #A73A23",
"l  c #AD3428",
"z  c #A3441D",
"x  c #99482E",
"c  c #A84626",
"v  c #B3482C",
"b  c #B5592A",
"n  c #BB5837",
"m  c #AD522F",
"M  c #A96528",
"N  c #B4652D",
"B  c #BA6837",
"V  c #B97735",
"C  c #B8782E",
"Z  c #9E5628",
"A  c #C15F2C",
"S  c #C3672D",
"D  c #C87736",
"F  c #C87135",
"G  c #8E5551",
"H  c #B55A4B",
"J  c #9C6658",
"K  c #B76951",
"L  c #AE766B",
"P  c #946E6B",
"I  c #C26C43",
"U  c #C67947",
"Y  c #C67158",
"T  c #C37C63",
"R  c #C05646",
"E  c #7D8378",
"W  c #698277",
"Q  c #BC8436",
"!  c #C4893B",
"~  c #D7973C",
"^  c #D28B37",
"/  c #DBA13E",
"(  c #E0AC3F",
")  c #858779",
"_  c #98807C",
"`  c #B8905E",
"'  c #C88447",
"]  c #D59B46",
"[  c #CA9451",
"{  c #D9A848",
"}  c #DBB448",
"|  c #D9A755",
" . c #D5AE58",
".. c #E2BA4F",
"X. c #CA9071",
"o. c #CEAB73",
"O. c #E1BC66",
"+. c #E6C756",
"@. c #E3C877",
"#. c #E6D46A",
"$. c #E7D478",
"%. c #557C83",
"&. c #5B858A",
"*. c #5E8C92",
"=. c #658A8C",
"-. c #68939A",
";. c #779998",
":. c #6F8E8B",
">. c #6E9AA2",
",. c #769EA3",
"<. c #78A3A9",
"1. c #7BAAB3",
"2. c #898D82",
"3. c #96988A",
"4. c #869B97",
"5. c #979C93",
"6. c #8F8F86",
"7. c #AF8E88",
"8. c #98A296",
"9. c #A5A69A",
"0. c #87A7A9",
"q. c #97A8A7",
"w. c #87ADB3",
"e. c #8BB4BA",
"r. c #8AB3BA",
"t. c #94B5BB",
"y. c #9ABABE",
"u. c #96B6B9",
"i. c #94B0B2",
"p. c #A8ADA4",
"a. c #B4B5A9",
"s. c #A7B9B9",
"d. c #B8BBB4",
"f. c #AFB1A9",
"g. c #A99DA1",
"h. c #DAB785",
"j. c #D6AF91",
"k. c #D3B6A8",
"l. c #CD9284",
"z. c #BEC1B7",
"x. c #A4C1BF",
"c. c #DEC995",
"v. c #E3D18E",
"b. c #ECE88C",
"n. c #C3C5BC",
"m. c #C2C3B8",
"M. c #DCCAB9",
"N. c #D8CAAE",
"B. c #E4D6AE",
"V. c #EDEBB0",
"C. c #9CBBC2",
"Z. c #95BDC5",
"A. c #90BBC6",
"S. c #A2BEC3",
"D. c #A8BFC5",
"F. c #9BC2CB",
"G. c #9CC5D2",
"H. c #A5C1C5",
"J. c #ABC3C4",
"K. c #A3C4CB",
"L. c #ACC5CA",
"P. c #ADC9CD",
"I. c #A5C8CE",
"U. c #B3C9CD",
"Y. c #BBCCCD",
"T. c #B3C6C9",
"R. c #A4CAD4",
"E. c #ABCCD3",
"W. c #A6CCD9",
"Q. c #AACEDB",
"!. c #A0C7D3",
"~. c #B4CCD2",
"^. c #BACED3",
"/. c #BBCFD8",
"(. c #ADD1DC",
"). c #AED1D7",
"_. c #BCD1D5",
"`. c #B3D3DC",
"'. c #BCD3DA",
"]. c #B4D1D7",
"[. c #BBD9E2",
"{. c #B6D6E2",
"}. c #AFD3E1",
"|. c #CBCDC4",
" X c #C7CCC8",
".X c #CDD1CB",
"XX c #CAD0C8",
"oX c #D2D4CC",
"OX c #DBD5CA",
"+X c #C3D3D5",
"@X c #C2D5DB",
"#X c #C4D9DD",
"$X c #CAD7D9",
"%X c #D6DBD5",
"&X c #DADCD5",
"*X c #D6DBD8",
"=X c #DCCEC5",
"-X c #E3D6CA",
";X c #E4DBD6",
":X c #DDE2DD",
">X c #DCE1D6",
",X c #E6E6DC",
"<X c #EDF4DA",
"1X c #F4F1D2",
"2X c #EFEDC9",
"3X c #C4DBE2",
"4X c #CADDE2",
"5X c #C5DEE9",
"6X c #D9DFE1",
"7X c #CDE1E6",
"8X c #CCE2E9",
"9X c #D2E2E5",
"0X c #D2E5EA",
"qX c #D6E8ED",
"wX c #DCE7E9",
"eX c #D7E9F1",
"rX c #DCEDF4",
"tX c #DEF0F6",
"yX c #DFF1F8",
"uX c #E2E6E3",
"iX c #E3E9E5",
"pX c #E5ECEB",
"aX c #E9EEED",
"sX c #EBEAE3",
"dX c #EBF3ED",
"fX c #EAF3E9",
"gX c #F3F5EB",
"hX c #E2EEF4",
"jX c #E4EFF6",
"kX c #E4F1F5",
"lX c #EBF4F4",
"zX c #EFF8F7",
"xX c #E5F3FA",
"cX c #EAF6FB",
"vX c #ECF9FC",
"bX c #F1F6F6",
"nX c #F4FCFC",
"mX c #F8FDFE",
"MX c #F4F9F6",
"NX c #E1DFE2",
/* pixels */
"lXlXbXbXbXbXbXbXlXlXzXlXlXlXlXlXdXlXlXlXdXaXdXkXkXkXkXpXhXhXpXtXhXhXtXtXhXrXtXY.8 W 3.Y.qXtXtXtXeXeXeXeXeXeXeXeXeXeX8XeX8Xd.5 ; ",
"bXbXbXbXbXbXbXcXbXbXbXlXlXbXlXlXlXlXlXdXlXlXkXkXlXaXkXkXkXtXtXtXhXhXkXtXhXtXkX+Xs._.7XtXrXtXtXtXtXtXtXtXrXeXeXrXeXeXeXeX3X%.; = ",
"bXMXbXbXbXbXbXMXbXbXbXbXzXlXbXlXlXbXlXlXlXkXlXlXkXkXkXlXkXlXkXyXkXkXxXyXkXkXkXkXkXkXrXtXtXtXtXtXtXtXtXtXrXrXrXeXeXeXeXeXs.3 = = ",
"bXbXMXbXbXnXbXnXbXvXnXzXzXbXnXzXzXzXzXlXlXlXlXlXlXlXlXlXlXlXvXlXlXfXfXxXxXxXlXkXxXxXxXkXtXtXtXtXtXtXrXtXrXrXrXrXrXeXeX8Xr : ; ; ",
"mXmXbXbXmXbXMXbXzXzXzXzXzXzXnXbXzXzXzXzXzXzXzXzXlXvXvXlXvXvXxXvXxX<X<XvXxXxXcXcXxXxXxXxXxXxXxXxXxXyXyXyXyXyXyXrXtXrXtXJ.7 3 : = ",
"mXbXmXmXmXbXnXnXnXnXnXzXMXnXlXnXMXzXzXzXzXzXzXvXvXlXvXlXlXlXlXvXxXlX2XfXcXxXcXxXcXcXcXkXxXxXxXcXxXxXjXjXjXyXyXyXtXtXrX4.5 3 : q ",
"bXbXmXbXmXnXnXbXMXMXnXnXzXnXnXMXvXzXnXzXvXzXzXvXvXvXlXvXcXlXcXlXvXvX<X<XlXcXcXcXcXxXxXcXxXxXcXcXxXhXNX;XNXrXxXyXtXtX0XW 3 : W _.",
"mXmXmXmXbXmXmXnXnXnXzXnXnXnXMXnXnXMXzXzXnXnXnXvXzXvXvXlXvXcXcXvXvXlXlX<XfXcXcXxXxXcXxXxXcXxXjXpX;X-X-X;XpXyXyXyXyXyX_.6 3 6 J.qX",
"MXmXnXmXmXnXmXnXnXnXmXnXnXnXnXnXnXnXzXvXMXvXvXzXnXcXcXcXcXcXcXcXxXcXcXfX<XvXxXxXxXxXvXkXaX,X;X-X;XuXjXxXxXyXxXxXyXxXs.3 3 :.i.E ",
"mXmXmXnXmXmXmXmXnXnXnXnXMXnXMXnXMXnXnXnXnXnXzXzXbXvXvXcXbXcXbXcXvXxXxXlX<XfXvXxXvXpXM.j.k.-X;XaXcXcXcXcXxXxXxXyXxXyX4.3 : : - - ",
"mXmXmXmXnXmXmXnXnXnXnXnXnXnXnXnXnXnXMXnXvXnXvXnXnXcXbXbXcXbXcXcXcXcXcXlXfX<XkXfXM.o.o.k.:XcXcXxXcXcXcXxXxXxXxXxXxXyXH.y.0.W 7 : ",
"MXmXmXmXnXmXmXnXnXmXnXnXnXnXnXnXnXnXMXMXnXvXMXvXvXnXcXcXbXcXcXcXcXcXxXcXtX2XV.B.O.j.uXxXxXxXxXcXcXcXcXxXxXxXxXxXxXxXyXyXkXqX#X].",
"mXmXmXmXnXmXmXmXnXmXmXnXnXnXnXnXnXmXnXmXnXmXnXzXvXnXcXcXcXcXbXcXcXcXcXlXcX<Xb.#.#.V.vXxXxXxXxXcXcXcXcXxXxXxXxXxXxXxXxXxXtXtXtXtX",
"mXmXmXmXmXmXmXnXmXmXmXnXmXnXnXmXnXmX2XB.B.B.,XdXnXvXnXvXbXvXcXbXcXcXxXcXcX<X$.{ $.V.xXxXxXxXxXxXcXxXcXcXxXxXxXxXxXyXxXxXkXtXtXtX",
"mXmXnXmXmXmXmXmXmXnXmXmXmXnXmXnXmXmX1X#.} } O.v.2XnXnXcXbXcXvXcXcXcXcXxXcXlXc.} b.<XxXxXxXvXxXvXcXxXcXcXxXcXxXxXxXxXxXyXyXxXtXxX",
"mXmXmXmXmXmXnXnXmXmXnXnXmXnXmXnXmXmXgX$.( / ] O.O.B.bXnXsX=X=X;XlXcXcXcXcXcX,Xv.V.vXxXxXxXxXvXxXvXxXvXcXxXxXxXxXxXxXxXyXkXyXtXtX",
"mXmXmXnXmXmXnXmXmXnXmXmXmXnXnXnXnXnXnXV.+.( ~ | O...c.j.I n b A X.N.aXcXcXcX,X2XfXxXxXvXxXxXxXvXxXvXxXvXxXxXxXxXxXxXlXkXrX7Xx.4.",
"mXmXmXmXmXmXmXmXmXnXmXnXmXnXnXmXnXmXnXgX#.( ~ / ~ ~ D S b A A A D  .c.xXcXcX<X1XzXvXxXxXxXxXvXxXvXvXvXvXvXvXvXxXxXxXqXx.:.7 : - ",
"mXmXnXmXmXnXnXmXmXmXnXmXmXmXnXnXnXnXnXnXb.../ ^ D S S S A A F ] { | @.lXcXcX<X1XzXlXvXxXvXxXxXvXvXvXvXvXvXxXxXvXtXx.W 1 - - # # ",
"mXmXmXnXmXmXmXnXnXmXmXmXnXmXmXnXnXMXnXnX1X..( D F F S S S S | ] ~ ~ @.lXxXxX,X2XdXxXxXxXvXxXvXxXxXxXvXvXvXvXxX9X;.3 - - - - : 3 ",
"mXnXmXnXnXnXmXmXmXmXnXnXmXnXnXmXmXnXMXmXMX@.~ D F D S S C  ./ Q ~ | c.,XiX,XM.N.$XwXvXvXvXxXxXvXvXvXvXvXvXvXxX#Xq.4.;.4.i.x._.#X",
"mXmXmXmXmXmXmXnXnXmXmXmXmXmXmXmXnXnXnXmXmXV.( D D D S F  .{ / { @.2XgXmXmXnX1X2X:XkXcXcXxXxXvXxXvXvXvXvXvXvXxXxXxXlXkXkXpXtXtXdX",
"nXmXnXmXmXmXmXnXnXmXmXmXnXnXnXnXnXnXMXMXmX1X..^ ^ S N ] { }  .B.gXmXgXgXtX>Xo.o..XcXcXvXcXvXcXcXvXvXvXvXvXvXxXxXxXxXxXtXkXkXtXkX",
"nXmXmXmXnXnXmXmXmXmXnXnXmXmXnXnXnXnXmXmXmXgX@./ ~ F ! +...+.@.$.h.o.l.o.o.` M M XXvXcXxXcXcXcXvXxXvXvXvXvXvXxXvXcXxXlXkXkXrXkXhX",
"nXmXnXmXnXmXnXmXmXnXmXmXnXnXmXnXnXnXnXMXvXnXV.../ F ..+.}  .[ ! Q Q Q Q C V M Q uXcXcXcXcXcXcXcXvXvXvXvXnXcXzXxXxXcXxXtXkXkXyXhX",
"mXnXnXmXmXnXmXnXnXnXnXnXnXnXnXnXnXmXnXnXnXnX<X#.} { ..O.] Q Q Q Q Q Q Q Q C M ` cXvXcXzXcXxXcXvXcXvXvXvXvXcXcXcXcXkXlXyXkXkXhXrX",
"mXmXmXnXnXmXnXnXnXnXnXnXnXnXnXnXnXMXvXnXvXnXMXV.+.} @.c. .[ Q Q Q Q Q ! D C Z 9.cXcXvXcXcXcXcXcXvXvXvXvXvXcXcXcXcXxXkXxXjXxXkX0X",
"MXnXnXnXnXnXnXnXnXnXnXnXnXnXnXnXnXnXvXnXvXnXnX1X#.@.fXB.O.[ ! Q Q C Q ! ' C M j.vXcXcXcXcXxXxXcXcXvXvXcXvXvXcXcXcXcXxXkXhXhX*X:.",
"nXnXnXnXnXnXnXnXnXnXnXnXnXnXnXnXnXnXvXnXnXvXvXgXb.2XvXB.c.[ Q V V V Q ! V N b N.vXcXvXcXcXcXcXcXvXvXvXvXcXcXcXcXcXcXkXkXjX+Xr $ ",
"zXMXnXnXnXnXnXnXnXnXnXnXnXnXnXnXnXvXnXvXnXnXvXnXzXvXnX-Xc. .Q C C N V ' K C b M.vXcXcXvXcXcXcXvXcXvXvXvXzXcXxXcXxXxXxXkXY.9 # % ",
"iXlXnXnXnXnXnXnXnXnXnXnXnXnXvXnXnXnXnXnXvXnXvXnXnXnXvXB.o.o.V N N M V ' D N b -XvXcXcXcXcXcXcXcXvXvXvXvXcXxXlXxXxXxXkX$X0 # @ % ",
"9.%XdXzXnXnXnXnXnXnXnXnXnXnXnXnXnXnXvXnXnXnXnXvXnXvXnXM.h.| V N b M V ' K b b =XvXnXvXvXvXvXcXvXvXvXvXvXzXxXxXxXxXkX0XW % % 7 q.",
"3 e .XjXbXmXbXmXnXnXnXnXnXnXnXnXnXnXnXnXnXnXnXvXnXnXmXM.h.X.B N M b U ' U b m M.vXnXvXvXnXvXnXvXvXvXvXcXcXcXcXxXcXrXq.* 1 4.4XeX",
"& * P  XpXjXmXmXnXnXnXnXvXvXnXnXnXvXnXnXvXnXvXnXnXmXmXB.h.[ V N N B Y ' D b c k.nXvXvXvXvXvXvXvXvXvXcXzXxXxXxXkXkX9Xq.q.#XhXrXhX",
"& & = 5 6.+XsXaXcXvXnXnXnXnXnXnXnXnXnXnXnXnXnXnXnXnXgXk.h.[ B b B b K U V m z k.vXnXvXvXnXvXvXvXvXcXcXcXvXcXyXvXkXrXrXhXhXhXrXrX",
"O & O O * 6 %.5.+XkXvXnXvXnXnXnXnXnXnXvXnXvXvXnXvXnXgXk.h.T B b M c B U I m a X.nXnXnXnXnXvXvXnXvXcXxXcXxXcXxXxXxXkXhXhXhXrXhXwX",
"O O X O & & * , q $XxXnXvXnXnXnXvXnXnXvXnXnXvXvXnXnX,Xj.h.' A b c c n Y I b a K vXvXvXnXvXvXvXvXvXcXvXxXxXvXxXxXxXkXhXrXrXrXrXwX",
"O O o X O @ @ & & :.9XzXbXnXnXvXvXvXvXnXnXnXnXnXvXnXM.l.X.Y v v c c B I I b g G iXvXvXvXvXvXvXcXvXcXxXvXxXxXvXxXxXkXkXjXhXhXrX/.",
"X X X X . o @ @ o , 8.4XpXjXcXcXvXvXvXvXvXcXvXbXnXMXk.X.Y A g d d g m I B b a z .XcXxXxXvXxXxXxXxXxXxXyXxXyXyXxXyXyXjXrXrX4Xs.9 ",
"X X . X . . . . . + * 0 4.D.9XjXxXxXxXcXxXxXxXxXxXaXl.Y R l f f u f v n n v a s k.yXyXrXrXrXrXrXeXeXqXqXeXqX8X8X0X5X8X5X'.0.2 - ",
"X .     . + + @ % * 1 7 9 0 ,.S.'.8X5X5X8X8X8X8X8X4Xl.Y H l i i u d v n n l i p 7.5X5X5X[.5X[.[.[.[.{.{.{.{.{.}.{.}.Q.W.<.1 $ # ",
"* * < < < 3 2 7 0 :.,.;.*.9 1 9 =.<.Z.W.[.[.[.[.[.D.T L K H h a d f k v v c p t L [.{.{.{.}.}.{.{.}.}.}.}.(.}.(.Q.Q.G.<.2 # % @ ",
":.;.4.0.0.w.t.t.F.L.I.0.9 , % % $ 1 %.A.`.[.'.[.[.k.T T K m c c g d g v v k p t P G.Q.(.(.Q.W.(.}.}.(.(.(.W.W.(.Q.W.r.9 # # $ 9 ",
"D.S.S.I.E.E.E.~.].`.P.=.$           , %.A.E.`.`.{.d.T Y n m c h g f d l k l p t P A.G.G.G.W.W.W.}.}.W.W.W.(.(.W.(.G.-.- 1 9 ;.r.",
"C.C.C.K.I.I.I.I.I.E.C.=.1 < , , , $ % 1 %.r.G.R.Q.g.Y H v k l d f f f d k d t t 8 C.Z.W.Q.W.R.R.W.W.W.W.Q.(.W.R.W.G.-.W <.A.G.G.",
"C.t.A.S.P.P.I.K.K.S.e.<.-.=.-.%.%.%.%.%.;.r.Z.C.Q.f.H n l u u f f u u i i i t y P D.Q.Q.Q.Q.Q.W.W.W.Q.(.(.W.G.G.W.W.G.G.R.R.R.F.",
"I.K.E.~.].).~.E.E.E.I.Z.A.Z.A.w.A.1.A.t.Z.Z.Z.K.E.D.K l l f f j u p a i p p t y _ {.}.(.Q.Q.Q.Q.Q.).).(.W.G.F.r.G.G.G.F.F.F.F.G.",
"~.U.~./.[./.`./.`.'.{./.E.Q.E.R.!.W.R.R.D.G.C.Q.(./.L l l f f j i i a a p t t s i.Q./.Q.E.!.K.G.R.I.R.G.A.A.1.1.1.1.1.>.>.1.1.1.",
"4X3X4X4X7X7X7X7X3X3X'.[.[.[.'.[.'.).Q.E.K.I.Q.].`.{.7.l l f f f i a v a p t y G y.F.F.I.F.Z.A.e.r.r.1.<.>.>.>.>.-.*.&.&.&.*.*.-.",
"0X0X0X0X9XqX0X0X7X4X#X#X7X#X3X'.'./.~.~.~.~./.`.'.`.D.H f f u u g h c z p t j _ u.e.e.Z.F.y.r.1.<.-.*.*.*.-.>.>.>.-.&.*.*.*.*.*.",
"0X0X0XqXwXtXpXqX0X7X7X7X4X7X7X3X+X'._./.~.~./.^.~.I.K.7.l u u d k k c a p p J s.y.e.u.C.H.F.t.e.1.>.>.;.,.<.0.<.<.,.>.>.,.>.-.-.",
"0X0X0X0XqXrXqXqX0X0X0X7X0X8X7X4X4X#X@X^.L.L.~.~.L.S.S.~.7.l j h h x h h p G s.U.L.P.P.U.P.J.H.H.x.x.x.Z.C.C.t.e.r.w.w.1.<.<.>.<.",
"$X7X9X9X9X0X9XqX0X0X0X0X7X4X4X#X@X@X/.U.L.L.U.U.U.D.U./.T._ j j x x x x J d././._._.#X'.~.P.H.H.P.P.J.H.F.x.y.y.i.w.t.w.w.w.i.w.",
"'.#X#X#X4X4X4X7X0X0X9X0X9X7X4X4X3X+X/./.^.+X/.L.D.D.^.@X/.+Xg.G J L J 9.Y.@X@X/.].@X#X'.~.D.y.i.u.x.y.u.u.y.y.C.S.A.C.t.i.t.C.t.",
"U.U.U.~._._._.'.#X7X0X9X0X0X0X7X4X4X#X@X@X3X+XL.C.D.@X3X@X@X@X5.P 7._  X4X#X'.^._./._._.P.S.u.u.x.x.J.x.y.H.L.P.D.D.S.C.S.S.S.D.",
"x.x.x.x.x.J.J.P.U._._.'._._.+X@X@XU.L.D.D.P.D.u.0.D.^./.@X@X4X*Xz.z.z.$X#X/.U.P.U.U.P.H.D.D.S.S.I.].'.].U._._.'././.P.P.D.I.D.D.",
"_.+X/.Y.^.^.^._._.#X#X4X$X+X+X+XY.Y.Y.+X+X+XY.J.s.U.^.+X_.+X$X*XwXfX&X.X^.T.T.Y.Y.Y.Y.T.P.P.H.L.P.^._.].].]._.]./.D.~.~.P.L.S.S.",
"kXkXaXlXlXdXlXkXlXlXlXlXjXlXjXuXuXiXpXlXdXaXaXaXaXaXaXlXhXjX Xa.,XgX&Xn.wX:XiXiXaXpXiXwX6X*X*X*X:X7X:X$XY.z.a.9.p.p.f.f.f.p.8.4.",
"iXaXhXaXaXlXdXaXdXlXdXhXhXpXuXuXiXpXaXaXpXpXiXpXaXlXlXdXlXlX:Xp.,XgX.X.XiXaXdXlXaXiX>XoXoX*XwXiXwX:X>XXXz.3.3.4.%.w e q r 8 8 8 ",
"wXiXiXpXiXiXwX>XoXXXz.d.d. X*X;X,X:X:XuXiXsXaXdXlXlXaXuXwX,X&Xd.n.|. X:XiXiXuXuXwX:X>XoX%X>X|.d.f.z.XXoX>X%X>XXXg.2.6.5.3.) e e ",
"|.:X:X.Xf.) 2.E w 8 6 5 5 w a.|.oX&X:XuXuXiXiXuXoXa.p.p.9.p.d.n.oX&X|.>X,X&X>XuXsXuX%X|.XXz.) w ) a.|.>X>X>X|.n.p.5.) w q w w ) ",
"n.&XoXz.8.r 6 5 4 4 4 4 4 6 a.;X,X,X%Xd.a.oX&XoXm.6.2.a.|.,X,Xn.9.9.a.|.m.n.oX|.9.) ) 3.a.z.k.a.m.n.n.a.9.) ) _ a.m.d.a.5.6.6.) ",
"oX.X|.|.k.z.p.e w ) 3.9.f.d.&X|.9.3.) ) m.OX*X&XoXn.XX.X|.oXn.5._ ) 6.6.P ) w 8 8 w w ) 3.3.) ) ) 9.9.8.3.3.9.p.f.9.9.a.d. X|..X",
".XoX|.9.f.=X%X.X|..X%X>X,X;X.X5.w 6 ) m.oX>X,X:X*X,XuX%Xd.9.8.6.) ) w 6 3 > 4 8 e ) ) ) ) 8 4 > ; > 4 q ) 3.f.k.m.m. X.X.X.X.X X"
};
