/* XPM */
static char *_f52328302c84417c39db2c04d1a4b861f3q5buPHN4OtzDh[] = {
/* columns rows colors chars-per-pixel */
"64 64 253 2 ",
"   c #3D1D00",
".  c #193A05",
"X  c #382700",
"o  c #2A3901",
"O  c #383600",
"+  c #2E2F0C",
"@  c #342C2A",
"#  c #4A1C03",
"$  c #591907",
"%  c #551B17",
"&  c #661602",
"*  c #71180B",
"=  c #4A2803",
"-  c #572801",
";  c #493703",
":  c #583600",
">  c #4E2D17",
",  c #672800",
"<  c #713208",
"1  c #621F2A",
"2  c #374700",
"3  c #395402",
"4  c #2D4607",
"5  c #2C5931",
"6  c #464801",
"7  c #584806",
"8  c #4B5806",
"9  c #555C08",
"0  c #5B5914",
"q  c #524917",
"w  c #654F15",
"e  c #486904",
"r  c #576607",
"t  c #586916",
"y  c #4D7C17",
"u  c #537D1C",
"i  c #577A18",
"p  c #4F6F0F",
"a  c #666E1B",
"s  c #515826",
"d  c #695C22",
"f  c #5C7D25",
"g  c #526724",
"h  c #666925",
"j  c #667A28",
"k  c #74752E",
"l  c #2D3553",
"z  c #523574",
"x  c #6D3473",
"c  c #642947",
"v  c #0D5A77",
"b  c #135979",
"n  c #144E79",
"m  c #09686E",
"M  c #0D6773",
"N  c #126778",
"B  c #147975",
"V  c #0E776E",
"C  c #2D5F67",
"Z  c #45764F",
"A  c #871C13",
"S  c #BC1A02",
"D  c #BD1709",
"F  c #BD161C",
"G  c #BD1915",
"H  c #A91E19",
"J  c #8B2E08",
"K  c #B6270E",
"L  c #BC1624",
"P  c #B91828",
"I  c #BB1A33",
"U  c #B81A38",
"Y  c #AE1D29",
"T  c #AD222E",
"R  c #8F2025",
"E  c #C31C02",
"W  c #C41609",
"Q  c #C31819",
"!  c #C52303",
"~  c #CA2B04",
"^  c #D63807",
"/  c #D13308",
"(  c #C11725",
")  c #D23027",
"_  c #8E4E0F",
"`  c #AB4D17",
"'  c #B6572C",
"]  c #9A6322",
"[  c #DB450B",
"{  c #E65609",
"}  c #EB5716",
"|  c #E85013",
" . c #DF7000",
".. c #EC6E03",
"X. c #E76B03",
"o. c #F26E08",
"O. c #E57300",
"+. c #EB7303",
"@. c #E57B01",
"#. c #EA7507",
"$. c #F2710C",
"%. c #F27509",
"&. c #F46B14",
"*. c #FA6C1A",
"=. c #F56717",
"-. c #F77315",
";. c #ED6418",
":. c #D56A2B",
">. c #F1712A",
",. c #B91D43",
"<. c #8D2F4D",
"1. c #BB2449",
"2. c #BD2858",
"3. c #A83257",
"4. c #903A72",
"5. c #BB2C67",
"6. c #BC326C",
"7. c #B4386B",
"8. c #AA357C",
"9. c #B83578",
"0. c #AD346F",
"q. c #C4264B",
"w. c #C22A59",
"e. c #CD3156",
"r. c #C22E65",
"t. c #C43268",
"y. c #C63772",
"u. c #984175",
"i. c #1B943A",
"p. c #198F37",
"a. c #279639",
"s. c #349939",
"d. c #309031",
"f. c #4B870D",
"g. c #4C8215",
"h. c #4D8219",
"j. c #4D8A11",
"k. c #52811B",
"l. c #578618",
"z. c #589916",
"x. c #508D0E",
"c. c #65971D",
"v. c #668619",
"b. c #5BA614",
"n. c #5CA814",
"m. c #5DA319",
"M. c #5FA819",
"N. c #62A31B",
"B. c #69A21F",
"V. c #5B8224",
"C. c #4A992F",
"Z. c #688926",
"A. c #738A2B",
"S. c #689B24",
"D. c #75992B",
"F. c #779932",
"G. c #719135",
"H. c #52A238",
"J. c #6CA424",
"K. c #68A325",
"L. c #73A42B",
"P. c #79A736",
"I. c #6CA93A",
"U. c #199948",
"Y. c #169B57",
"T. c #109756",
"R. c #28934B",
"E. c #1BA156",
"W. c #148A6A",
"Q. c #169867",
"!. c #168973",
"~. c #179872",
"^. c #0E896C",
"/. c #16A169",
"(. c #309659",
"). c #50A843",
"_. c #71B346",
"`. c #53924B",
"'. c #B6A41B",
"]. c #B58C30",
"[. c #8DB136",
"{. c #A09A2B",
"}. c #EA8807",
"|. c #ED940A",
" X c #F2940E",
".X c #F59A15",
"XX c #ED9010",
"oX c #F8A718",
"OX c #EBBA1A",
"+X c #F8B81C",
"@X c #F1A811",
"#X c #D88931",
"$X c #CFB127",
"%X c #FEAB25",
"&X c #FEB524",
"*X c #FDBC24",
"=X c #FEBD2A",
"-X c #F6BB26",
";X c #EFBB2A",
":X c #E1AC1C",
">X c #B1C53D",
",X c #D8CA38",
"<X c #CEC735",
"1X c #E7C32A",
"2X c #F7C12B",
"3X c #E7C936",
"4X c #F6C535",
"5X c #EAD03B",
"6X c #8AB944",
"7X c #B79047",
"8X c #DEA949",
"9X c #96C44C",
"0X c #AAC746",
"qX c #B8CA44",
"wX c #B3D056",
"eX c #9ACC75",
"rX c #C6CC45",
"tX c #D1D04D",
"yX c #F0C84B",
"uX c #3A398C",
"iX c #2D3E93",
"pX c #383B97",
"aX c #2D3A8D",
"sX c #47368A",
"dX c #57348A",
"fX c #473A99",
"gX c #573A96",
"hX c #5C2C80",
"jX c #763589",
"kX c #673C94",
"lX c #773D93",
"zX c #6A3084",
"xX c #194A89",
"cX c #0E5686",
"vX c #155789",
"bX c #184A91",
"nX c #1C5593",
"mX c #274694",
"MX c #354398",
"NX c #24488B",
"BX c #166D86",
"VX c #554297",
"CX c #744296",
"ZX c #893C8C",
"AX c #973B88",
"SX c #8F3E91",
"DX c #A83B85",
"FX c #B53B83",
"GX c #A23F91",
"HX c #C13D81",
"JX c #974294",
"KX c #8B4390",
"LX c #AC428C",
/* pixels */
"W Q W Q Q W W W W W W W W W W W E E E ~ ~ ~ / ~ ^ ^ ^ ^ { { { { ..o.....o.o...o...o.%.o.....o.%.+.X.X.X.......X.O...+.O.O.+...+.",
"E ! ! E ! ~ / / ^ ^ ^ [ [ | | | | | } } } =.=.=.=.=.=.&.&.&.o.o.o...+.+...+.+.+.O.O.O.O.O.O.O.@.O.O.O.O.O.@.@.@.@.@.@.}.}.}.}.}.",
"} } } =.;.=.=.*.=.*.*.*.*.*.=.o.&.-.&.&.*.o.o.o.o.......+.+.O.+.@.+.@.}.@.}.}.}.|.}.|.|. X XoX.X@X@XoXoX@X@XoXoXoX+X+X+X&X+X+X*X",
"#.$...o.$.#.#.o.o.o...+.+.O.....O.@.@.}.+.}.}.}.}. X}. X.X.X.XoXoXoXoX%X%X&X&X&X=X*X+X2X2X2X4X2X=X1X2X;X1X1X1X1X1X1X1XOX1X3X1X3X",
"}.@.#.}.}.}.XX}. X.X|.|. X.X@X@X@X+X+XoX*X+X*X*X&X&X+X+X=X*X2X2X2X2X2X2X2X4X4X1X1X5X1X5X5X5X,XtX,X,X,X<X<X<XqXqX>XqX>X>X0X0X0X0X",
"%XoX;X%X=X;X=X=X2X2X4X2X2X2X;X2X1X5X2X1X3X1X3X,X,X3X<X<X,X,X5XtX,X5XtXtXrX<XrXrXqX>X>X>X>X[.[.[.[.P.P.J.I.K.K.K.S.z.C.C.C.d.d.C.",
";X4X;X4XyXyX4XyX5XyX5X3X,XtX,X,X,X<X,X>X>XqX>X0X0X0X9X9X6X9X_._._._.).).H.).).s.s.a.s.s.a.p.a.i.a.p.i.p.i.i.i.p.i.i.p.R.U.U.i.U.",
"rXrXrXrXrXqXqX0X0X>X>X[.[.[.[.P.P.I.K.K.H.K.C.C.C.s.d.d.d.a.s.U.a.U.i.U.T.U.Y.Y.E.T.T.T.T.T.T.T.Q./.Y./.T././.Q.Q.^.T.W.W.Q.W.Q.",
").).).).s.H.R.a.s.a.a.a.a.i.i.i.U.i.i.U.U.U.U.U.U.U.U.Y.E.Y.Y./.E.E.Y.Q.Q.Q.Q.Q.Q.Q.Q.^.^.^.V W.W.V B B B M B M m N v v b n b N ",
"R.U.R.E.E.Y.E.Y.Y.Q.Y.Q././././././././././.~.Q.Q.~.~.~.~.!.^.!.~.^.^.V V m m m m m m m v n v v v v b n n n n xXn xXNXn n n n MX",
"/.Q.E.Q.~.Q.~.~.~.W.~.W.!.!.!.!.B B B B B N N N N N b b cXBXcXcXnXcXcXcXbXbXbXbXbXbXbXbXbXbXbXiXNXmXmXiXaXmXpXaXMXuXMXuXuXsXdXsX",
"B !.B !.B B V M m M v M b b b vXb b b b cXxXxXxXxXNXNXmXNXmXmXMXmXiXMXpXpXpXpXfXpXpXpXfXfXfXfXfXfXfXgXgXgXdXgXgXkXkXlXkXlXlXlXlX",
"nXvXnXnXnXnXbXnXnXbXbXmXNXbXmXmXmXmXMXMXNXz MXuXuXsXsXfXfXsXgXkXgXkXkXlXjXjXzXjXKXKXZXSXSXAXAXAXAXAXGXGXAXAXGXDXDXAX8.AXDX8.DXDX",
"sXMXMXVXMXfXpXfXpXfXfXfXfXgXfXgXVXVXVXVXVXVXVXCXkXCXCXKXSXSXSXJXSXSXAXGXGXGXDXDXFXDX8.FX9.9.9.9.6.5.9.5.5.9.y.5.5.5.5.5.6.5.t.6.",
"lXCXKXCXKXKXlXZXKXKXSXSXAXAXAXGXLXJXJXKX4.x 4.JXu.LXDXDXDXDXDXFXFXFXFX9.FX9.9.0.9.9.y.9.r.5.5.9.5.5.5.2.5.2.2.2.2.2.1.2.1.2.1.q.",
"LXLXLXLXLXLXLXFXDXFXFXFX9.9.9.9.7.7.c % % % % 1 <.7.6.6.6.t.t.t.r.r.r.r.2.5.5.5.3.3.3.3.5.2.,.,.,.,.,.,.U U U U U U I P P P P P ",
"FX9.FXFXy.HXHXHXy.9.y.y.y.9.9.7.<.% = q h h g q # 1 2.1.1.1.( ,.U ) I I I Y R R % % & % * R Y P L L L L F F F F L F Q F F G F Q ",
"r.r.t.y.t.r.r.w.w.2.w.2.2.,.1.1 % q j v.h.h.l.j d # A T Y Y Y Y T Y L P P Y * - < d w w , & A G D D D D S S D S S S S S E E ! E ",
"( U ( ( P I P P L ( ( L L Y A $ 0 V.u g.k.l.y y v.d - * R A A A A A A H T & - h h j k k k w $ A ~ ! ! / ^ ^ ^ ^ [ [ { [ { | } } ",
"I L ( ( Q G Q Q Q W Q Q G H $ 7 j y l.i t r i l.l.D.d - : - - : : - - $ $ = a j h 8 6 6 g k w , :.;.;.=.*.*.$.&.&.o.&.$.o.o.$.%.",
"W E W D W W W W S ! ! ~ ~ J # h i i h : = = = 0 S.S.D.c.v.A.D.D.D.D.A.a r r k w : : - # = > k - _ >.X.{  .X.O.O.X.O.O.O.O.O.O.O.",
"[ ) [ [ ^ | | } } } ;.;.>.J 7 A.A.r - < < $ # X 8 D.c.N.N.m.b.n.N.b.n.B.J.L.a = _ T & $ $ # 0 w , #X}.}.}.}. X|..X.X.X@X.XoXoX%X",
"=.&.=.*.&.=.*.*.-.&.-.;.>.< r [.k - ` ` & $ $ # X a B.n.n.N.b.m.n.n.n.n.N.D.: J ' * $ % $ # X ] - #X4X+X+X+X+X+X+X+X+X+X+X+X+X+X",
" . . .O.@.@. .@. .@.}.#.#X: 8 [.7 < ' J & % $ $ = 0 J.n.N.n.m.m.N.N.N.N.B.j , ' ` & & $ $ = = d - #XyX1X1X,X1X1X1X,X1X,X,X,X,X,X",
"XX.X@XXX@X.XoXoX%X%X;X8X_ X v.D.: _ ' J & $ $ $ # 0 L.b.x.j.j.j.f.x.z.z.J.r , ' ` & & $ $ # = h = 7XtX>X0X0X>X[.6X9XP._._.I.I.P.",
"4X4X4X2X;X2X1X1X1X;XyX_ X Z.J.D.: ' #XJ $ $ $ $ X h L.z.f.y h.h.g.g.g.j.L.r < #X:.< $ $ $ # 6 G.O 6 Z.V.C.C.d.d.d.d.d.p.a.a.a.a.",
"3X1X3X3X3X,X,X,XtXtX].+ t Z.m.D.; :.yX'.$ # $ # X A.D.l.u f k.h.g.k.V.k.N.v.; 8XyX].- $ $ = t F.f O o s R.a.U.U.i.U.U.T.Y.Y.E.E.",
"0X>X0X0X[.[.[.[.{.6X; 8 V.g.g.G.t : $XyX7X_ -   r P.Z.3 2 t u g.g.u 8 8 c.L.6 7 '.8X8X_ # q F.j.k.j q . 5 (.W.W.^.^.^.^.W.^.^.^.",
"s.a.s.s.a.a.a.s.R.s o j u h.h.p h : : ] 7X] ; 8 S.K.S.2 X o v.j.l.e X X l.B.S.6 O 7 7 ; 9 F.l.y k.u V.g + 5 n v v v cXn xXv cXcX",
"Y.Q././.Y.Q.Q.Q.(.. 3 j u y k.p + h 0 O O 3 t D.N.m.B.Z.8 8 S.N.J.p o 0 S.N.N.D.j 9 9 A.F.l.y h.h.h.y f s @ l aXaXNXmXiXaXaXiXiX",
"~.~.~.!.~.!.!.B Z 4 g V.y h.h.V.8 O [.D.S.B.J.N.b.b.N.N.S.J.N.b.N.N.c.J.N.b.b.N.B.J.J.L.j o y f h.h.h.u f 5 @ z uXsXsXgXdXdXdXhX",
"N N N N b v b C l + V.k.h.h.h.f k o t D.c.N.N.n.b.b.b.b.b.b.b.b.b.n.M.n.n.b.n.n.b.b.N.F.8 6 V.h.h.h.h.h.f g @ x ZXjXZXZXZXSXSXAX",
"nXnXmXmXmXmXmXC @ s V.y g.h.y i j 6 O h A.L.N.N.b.n.n.n.b.b.b.b.n.n.n.n.n.n.n.b.N.J.D.t O t f g.g.h.h.h.h.f q 1 u.DX8.8.8.8.8.9.",
"fXfXVXfXfXVXfXz @ s f g.h.k.u f j 6 ; 2 4 e v.S.B.J.B.c.N.N.N.N.N.N.N.N.N.B.J.J.S.p 2 X O k f k.V.y h.h.g.f s % 3.6.5.t.2.2.r.r.",
"JXSXAXAXJXSXJX4.% h f g.h.u p h d + v.D.p 3 o 2 9 a A.D.D.F.D.L.D.L.F.F.D.A.j 9 2 o p t X k j V.f i y h.h.f k ; R T U U I I I I ",
"FXGXHXFXy.FX9.3.% h f h.h.u 2 O X 6 K.N.J.D.A.r 6 4 4 4 2 3 3 3 3 3 3 2 o 4 O 2 t A.L.D.2 O g 8 o 4 V.h.h.u f 7 * T P F F F F F ",
"y.y.y.y.y.t.t.3.# h f y h.k.k.u y l.K.M.N.N.N.B.J.c.l.y e e e e 8 9 r e i z.c.L.J.K.c.B.Z.3 o o 6 u u h.h.h.V.0 & T G D D D W G ",
"w.q.q.,.,.U q.T $ w f h.h.g.k.k.g.l.M.n.n.b.b.b.n.N.N.B.J.L.K.F.j e Z.P.B.N.N.b.b.n.n.n.J.l.a j V.u k.h.h.y V.0 , K ~ ~ E ~ / / ",
"( ( ( ( L ( ( Y * > j h.h.h.g.g.g.z.M.n.n.b.b.n.n.n.N.n.b.m.b.m.3 4 e z.c.b.b.b.n.b.b.b.N.z.g.u k.h.h.g.h.h.V.9 , :.>.=.=.;.=.*.",
"W Q W Q D W S K J = h k.h.y h.g.f.m.n.n.n.n.n.n.n.n.n.n.n.b.n.x.i l.f.x.b.b.b.b.n.b.n.n.b.m.j.f.g.g.k.g.h.h.f 9 < :.X...X.X.X.X.",
"E ~ ~ ~ ~ / ^ ^ [ $ 8 f u y g.g.j.n.b.b.b.b.b.n.b.b.n.n.n.b.n.b.x.f.f.z.b.b.b.b.b.b.b.b.n.b.b.f.g.g.h.h.g.u f 9 w XX}.}.}.}.|.|.",
"*.*.*.*.*.=.*.-.#X` = a f h.g.f.m.n.b.n.n.n.b.b.n.b.b.b.b.n.b.b.N.b.b.n.b.n.b.b.b.b.b.b.b.b.b.z.j.f.g.g.g.y j 6 _ 4X&X&X-X+X+X*X",
"*.*.$.-.%.o.o.#.#.#X< ; j y y z.m.n.n.n.n.n.n.b.n.n.n.b.b.b.b.b.n.b.b.b.n.n.b.b.n.n.b.b.n.n.n.n.m.z.x.j.f.g.j O ] 2X&X;XOXOXOX2X",
"XXXX}.}.}.}. X XXXoX#X; 8 v.l.N.m.n.n.b.b.n.b.b.n.n.n.b.b.b.b.b.b.b.n.b.n.n.n.n.b.n.b.b.b.n.n.b.b.m.N.m.z.L.j o <XtX<X<X<X<X<X>X",
"&X=X=X=X2X2X2X2X2X=XyX#X  t P.m.b.n.n.b.n.n.n.n.b.b.b.b.b.n.n.b.b.n.b.b.b.n.n.n.n.n.b.b.b.b.b.n.n.b.m.m.m.I.2 s _.H.).H.s.s.C.C.",
"5X5XyXyX5X5X5X5X3XyX3XtX{.+ p F.S.b.n.b.n.n.m.n.b.b.b.b.b.b.b.b.b.b.b.b.b.n.n.b.n.b.b.n.b.b.b.b.n.n.b.m.L.g . Z R.U.R.R.U.U.T.T.",
"tXtXtXwXwXtXtXwXwX9XeX6XeX`.. 6 Z.L.m.n.n.b.n.n.b.n.b.n.n.n.b.n.b.b.b.b.b.b.b.n.b.n.n.n.n.n.b.n.n.m.b.L.A.. 5 (.W.W.Q.W.W.W.W.W.",
"[._.I.I.I.H.H.).H.C.s.d.R.`.(.4 . y G.K.K.m.b.n.b.b.n.n.b.b.n.n.n.b.b.b.b.b.b.b.b.n.n.n.b.b.n.b.N.K.I.g 4 l C M V N m m m m m M ",
"R.U.U.U.U.U.U.E.U.E.Y.T.U.E.Q.(.Z . 4 V.F.J.K.n.n.b.n.b.b.n.N.n.b.b.b.n.n.b.b.b.b.b.n.n.n.n.z.K.F.G.s @ l NXbXbXbXbXbXbXbXbXbXbX",
"~./.Q.~.~.~.~.~.~.Q.~.!.^.!.!.!.C C l @ + g Z.F.I.K.K.N.N.N.N.N.N.N.K.K.N.J.N.N.N.K.K.L.L.G.A.g q + @ z uXpXpXpXiXaXpXpXaXpXpXpX",
"BX!.BXBXBXBXBXBXN BXvXvXvXcXcXvXxXxXNXaXl l @ @ s h j A.F.F.D.S.D.F.G.A.A.A.D.D.D.A.k h s > > 1 c c z hXhXhXhXzXzXzXzXzXzXzXzXzX",
"NXNXnXnXbXbXbXNXmXmXbXmXmXmXMXiXiXiXiXpXpXz z @ @ > # = ; ; ; ; ; ; = = = = ; ; = = # - 1 <.<.4.ZXZXZXSXAX4.AXAXAXGXDX8.FX8.8.FX",
"MXMXMXMXMXMXVXuXsXsXsXsXfXsXdXdXhXdXzXx jXx 4.4.4.4.4.<.<.<.<.<.<.<.<.<.3.<.<.<.<.3.3.4.7.7.9.7.8.8.8.8.9.8.8.9.9.9.9.0.5.9.5.9.",
"VXCXVXCXCXCXCXjXCXCXCXKXlXZXZXZXZXAXAXAXDXAXAX8.DXFXFX9.9.6.9.7.6.6.6.y.6.6.6.9.6.6.5.t.5.r.5.t.r.r.2.2.w.2.2.2.2.2.2.,.,.,.2.,.",
"LXLXLXLXu.LXFXLX9.LXLXLXFXFX8.8.9.8.9.9.9.9.9.6.6.y.6.9.6.5.5.r.2.2.2.w.2.2.q.2.1.1.1.q.1.U U I ( I I I P P I P P P L L L L ( L ",
"y.y.7.y.y.y.y.y.y.t.t.t.t.r.r.r.r.5.r.2.1.w.w.2.2.q.1.,.1.U U ,.U U U I U I P P P P P F L L F F ( F G G G G G G F F G D G F D Q ",
"e.t.e.e.e.q.q.q.q.q.U ,.( I U I I Y P P P P L L P P L L L L L L L F F Q L ( Q L F F F G Q G Q D D D D D D D S D S S S S S S K S ",
"( ( ( ( ( ( ( ( Q Q L F ( F F G F F G G G G G G W D W D W W D S E S S S S S S S S S S S ! ! ~ ~ ~ ~ / / / [ ^ [ [ ^ | | | } ;.;.",
"( ( ( Q ( Q ( Q Q Q Q Q D G D D D D S D S S S S ! S ! ! ~ ~ ~ / ^ ^ [ [ [ [ | { { } } } } ;.=.*.*.=.=.=.;.;.-.-.=.;.&.-.&.-.&.$.",
"E W E E E E ! ! ~ ! ! ~ ~ / / ^ / [ ^ | } | } } } ;.=.;.;.&.*.*.&.-.&.-.-.&.o.o.%.$.+...#.#.O.O.O.#.O.X.@.@.O.@.@. .O.O.@.@.@.@.",
"| [ { { } } =.&.=.=.=.=.=.*.=.*.&.-.-.*.*.-.-.-.$.o.o.o.o.o...$...+...+.@.O.O.O.+.@.@.@.@.}.}.|.}.}.|.}.@X|.|.|.@XoXoX@XoXoXoX+X",
"-.$.$.-.$.-.%.%.#.+.O.#.+.+.O.#.O.O.O.O.@.@.@.@.}.}.@.}.}.}.}.}. X X X.X X.X.XoX+XoXoX&X&X&X+X+X*X*X*X*X+X+X@XOX@X@XOXOXOXOXOXOX",
"#.&.#.}.#.}.}.XX}.}.XX}.}.|.|.|..X.X.XoXoXoXoX+X*X&X&X&X2X2X*X2X&X=X2X2X*X*X=X=X2X2X*X*X=X;X2X+XOX;X-XOXOX1XOXOXOX1X1X3X$X1XOX,X",
".X.X%X%X%X%X%X%X%X&X&X&X&X&X&X=X*X&X*X*X=X*X2X-X-X-XOX-X+X+X-X2XOX+XOX+X2X+XOXOXOXOXOXOX1XOXOXOXOXOXOXOX:X:X$X$X$X$X$X$X'.'.'.'."
};
