/* XPM */
static char *f189493302714ce7b9c85d7fa277b933lv0B5PlHxrrgUNaI[] = {
/* columns rows colors chars-per-pixel */
"64 64 84 1 ",
"  c gray12",
". c #2F2F2F",
"X c #3F3F3F",
"o c #413F40",
"O c #454444",
"+ c #4A4947",
"@ c #4D4C4C",
"# c #504F4D",
"$ c #51504E",
"% c #514F50",
"& c #555454",
"* c #585656",
"= c #595856",
"- c #575759",
"; c #595758",
": c #5C5B5B",
"> c #605E5F",
", c #61605E",
"< c #615F60",
"1 c #646363",
"2 c #686667",
"3 c #696866",
"4 c #676568",
"5 c #696768",
"6 c #6C6B6B",
"7 c #706E6E",
"8 c #72716F",
"9 c #716F70",
"0 c #747373",
"q c #787676",
"w c #7A7977",
"e c #797778",
"r c #7D7B7B",
"t c #807E7E",
"y c #81807E",
"u c #7F7D80",
"i c #817F80",
"p c #858383",
"a c #888686",
"s c #8A8987",
"d c #898788",
"f c #8D8B8B",
"g c #908E8F",
"h c #92918F",
"j c #8F8D90",
"k c #918F90",
"l c #949393",
"z c #989696",
"x c #9A9997",
"c c #999798",
"v c #979998",
"b c #9D9B9B",
"n c #A09F9D",
"m c #A1A09E",
"M c #A19FA0",
"N c #A5A3A2",
"B c #A8A7A6",
"V c #AAA9A7",
"C c #A9A7A8",
"Z c #ACABAB",
"A c #B0AFAE",
"S c #B2B1AE",
"D c #B1AFB0",
"F c #B5B3B3",
"G c #B8B6B6",
"H c #BAB9B7",
"J c #B9B7B8",
"K c #BCBBBA",
"L c #C0BFBE",
"P c #C2C1BE",
"I c #C1BFC0",
"U c #C5C3C3",
"Y c #C8C6C7",
"T c #C9C8C6",
"R c #C9C7C8",
"E c #CCCBCB",
"W c #D0CECE",
"Q c #D2D1CF",
"! c #D1CFD0",
"~ c #D4D3D3",
"^ c #D8D6D7",
"/ c #DAD9D7",
"( c #D9D7D8",
") c #DDDBDC",
/* pixels */
"ilfyddfairdlgplkhnfxzlnfnBnnnnfgpnlatillljijiifklstfnhtttgiilnkt",
"rdfslkfljdfzfpcbnnnxnmnnnZmnnBnlgnzfpflliijikfilNnifZhnnnnkfillt",
"0elgcclddklffrklsshypgtgnppstghhtjgsiaiftttttttthft8ifgstttitti5",
":155e0e96erwq4r988q8t7t080800q830tt0ttttttttttttt8t>27t31t<>74<4",
"dfaralllxhfxlkbbmmnxnlggfnnnnnmxfnncnfiiijtttifftfststt657<>909t",
"adNbhyffyhlxlaVZmnlfsngnnflnmnmxinlcnjflzjzkjcjifhtsttttilift990",
"dfNzNSUPHHxBngNAVmnFLTL~PLLnnAVzfllllFWW^I^WEElflltht8hSDEDJj69t",
"alNfBSKPGFnmmhmAAnnFFPY~PGLlmmmnijkjkDII!IWEIIlllhyft8hLZICDf<<t",
"shnhZSLPHHBnbhxBMlzFFEP~YFLlznnkilllkZIE~I^EEElllgysttcFDIDFd>6i",
"yhmnSZHLSSnBzpxmnlnSGELEYFGlzCMkinnckZIE!I~EIIjiglspetnDDECDl<7t",
"phBmHPWELGlblrxnnkcLL~Q~WLLnznckizkllA!!)^)^!EjillppppzYI~LLl6qe",
"shzhsnnzlfazgpxxnk7q88qt056qslnaillzfijjjljifitkzkssppewt9qt5ee0",
"sggfaaffdpdzgslbnnjiiqtitigiafjiicnlffifikjfijklzladtpi087779we0",
"psgllbncblklgalNnlllfglkznnlaatffMnlllnlzzlczcczccditsi0wwwwi0ii",
"easgggbnclggstlnnnlzkkfgnlfltiaginjfjjkkllkkffllgka5e9970wttq0e9",
"=&1>=:2668q7083355<><<<677<<2960009q797675t09t09909tie9577377062",
"aai0<96e00itdettw77>&76683,8tttppiit0t83tqqtetaafffcmmgqtq69igdt",
"ddfai0iititti50ptt0tpgigfyhstsgttplfspllnlnnlzgdlkednnnllClnkiii",
"dgndnCJJCMtgl70iytgGLTLWPGLgslltttggsnLLYL^LLLfgngidnnNHFELIlijt",
"ddziMMDDMcegz00itthAZLLPLAFgslhytttsyzSFYLTLAAazxkdknnBFZYGLdti9",
"adlpMMGDMzeil22pttkAAPLPIAJzigfatpgzpnFGYLYLAGnlnlgzABVFZTFLf6ii",
"aggtCMDDMnikl730ttgFAPFYIFLzpgfjwplnsnFFYLWLFLngxxigBnZFZTFLfikd",
"aaftFR~EYJsgg8wtttMWU^W^~ITzlxlitglzfMIL^W/QIYlslsslnnVUU/ITgtdi",
"dipttkkfatiasttyttqttiittqqtsgktqfafiqittsttt0tglytglgptttw08tii",
"pyfpw0w700iditpsyttteq9807qipzgtifffdiiitptqttilnliflilkaittygyt",
"twssagfpgglcptygzfszcfillnckzMztflMllnjjxgzllpfnMCfiMcjnlgptsnst",
"t70wiiidfipit7tpsptpietiikdigfi09iidiftit8tt87tpii00iiiett097033",
"%>27909<5665>>87t87q060e96e0ttqq9t0tt0qitttttt00ti0iiittttqe5>73",
"tklkkkkdgflnnlnxnnglkgggfilMMMMBnnnBMnsagnfgnnVnZFnglfikkiaffifi",
"0dnnffkjaknnnsnnxnftiktff9ennMMnnDmBCllfhsnt8pNNDDzilll0qlttfgst",
"ednnMDIGCAlllfxxlxnszFgnC0tlnnnngnnnCZFALVGV0gVAFFnfkkziqFggfsst",
"tfnlBCDZnBlnxznnnnxssAggM79czncclnnnCMMZFnnAttnFFCctfdli9Caigpst",
"tknzMDJDAAlmxfmnxnMdkDkkZwynmBmngnmmmZLLIZHSffbZBllrjfzlpCadjfjp",
"eknlZIIILSlmxfmnbbMdgDacZysnVVmngVBmnSLLUVKFsjlBNNbwfaclaFffjjcr",
"qlckDI!WLCxnhhBnnNNzbInDHtgbmmmlsnmmmFLLEGEFsvvBmVnreeMCMUMbcujp",
"tjliijkiatsnyhmnnnrrtaddp80hmmmlynmZVytsgsfpupgnNnnyippriueuerpu",
"0sditeqqticnsgnxnhpr0teet7wgnBmhpmBnmmmmxzmnnxzVBxbrjldpuurpawre",
"tiggkccncccngsnxnglfdgzcllckxBAhpnnnBVAmBSBmSNVBmvzpjlalzvlfaapr",
"0tgkifclffddtwllxlllsgllllnxxnlptxgggghghvkghkvlssd6pyeytrrrwrr<",
">56666699996227672707078w0070876=>=&==>>=:<,=&&=1>=&6qerw0866671",
"tfdkfkkfddlgglngzasatyfaiapkdalx3>256>><46><3=##1::pclllsppwpspp",
"qllk96tfi0znksxcnl76qtrie49dkknl>>5e00fee6pu=:@:1>;elffewa+>pssp",
"tkcdf&ccztkzgazkzxw0cZtnl%rkczbd&2700uDmGuvm-0@::=:0falpeB:qhyyw",
"eadiMeMclsdasdzglna0gM0szo<lbggg>7607rBnKfdv>w:-&:1yftzt6v&2hwww",
"tdiiMMJFDniafizdkcggdCezn;0zmlkj26381vKFINBFpp::===yfrhhyB3yfwww",
"ejkfMnDDBzkzdangzlaegCwgNrzlNczj44605fDFIMAAqr1<::>pfszawZwrsytw",
"9fkkZfDJMizkddcgzkt3lFanC6flckfj46709sKFIjRG0u165=:asyhhlUpwfwyw",
"qiiiiccczadgaakggs0tplcca00dggkd503646sajjkjpq-564>iyyypfsyywwyy",
"eiie778878ifitfdsppppupreerfglkd6666611=1@+=--:1155wyrr54368qwyy",
"0iteysssssffttitpslvnblgklkkklkdw088666866831:17000wprweptytrryw",
"6itiggggggggt0gtslxxvnvffdjlbbcaustt0wrwprryeewuuprepyrafspprwsw",
">><<2><23766<>t0w9076ww0qq90re6%:748=1336666166646<-q0008843657>",
"7078w880000ttttt96qpqw00qw0efgfaudpppprrrujfpsypsafakaeryyyyerap",
"3ttw7802>0wsaigpyr6&,0187>4pfkkfdnjjfwpr60ut61pjggfpjdr<:r,#6ypi",
">tytxnZs0lygiqggsyw,rvrvz9edllfpslfajrMvmuVl68spsjppsfl7&m6&yyfr",
"3tttnnmmMlttttgpyrqypmrll9idffdpwudfjdNBZkBmqjppfaurfsda6n76yppr",
"3y0wxzBNMkttttsppy8:1l6rp$6psspswpslfbZZVmBVwjjfaauujafq@v66uypw",
"4ywypdC0+ittytsspr,.=f6fw@4sfhsuufdkkrvhZwnh-ujajhyujaa- f&@0wy0",
"4ywybmK6@eiit0fkfy6X,Vrmf2rpppsrrkufhpBvZfVv:8safhyufyu1@n1:08u0",
">r08ylcdittt0tsgp0680ljlswqwsypprpuryyhhvvvhyu0ppyyusy8wtt6410u8",
"1092&=:,;>70t0pgs6=:-%:--=1uddduwtt0re0e881--,6phyrwys8,11664wq6",
"17868800q707570tr&10w0rr9wrrp9e75wptwyddrwwqryusssw8yy0rssssqqq1",
",080ttttr08t050qr660e0ru00q8wew61uptwrrtr00rysysysr8syprryur066,",
"X---,,,,>>><>#5<1,=21441<:<<<11%@,11&&&=,1:&&----:-X=:=$&---&@@X"
};
