/* XPM */
static char *_83277e96c814f6bfb55b63f6d4726fbhLmqFXGASjbut0L0[] = {
/* columns rows colors chars-per-pixel */
"64 64 188 2 ",
"   c #060401",
".  c #0D0902",
"X  c #14130D",
"o  c #1A160E",
"O  c #191512",
"+  c #1D1B14",
"@  c #211D15",
"#  c #221F18",
"$  c #25231C",
"%  c #29251D",
"&  c #262217",
"*  c #3C3B1D",
"=  c #2A2721",
"-  c #2B2A24",
";  c #2A2A25",
":  c #322D26",
">  c #34322B",
",  c #3A352D",
"<  c #3B382E",
"1  c #3B3127",
"2  c #363531",
"3  c #393731",
"4  c #3C3A34",
"5  c #3E3E3B",
"6  c #333A33",
"7  c #44392E",
"8  c #423E35",
"9  c #413E3A",
"0  c #3F403B",
"q  c #454136",
"w  c #44423A",
"e  c #4B473D",
"r  c #4E4B39",
"t  c #504B37",
"y  c #454542",
"u  c #484641",
"i  c #4C4B44",
"p  c #4E4E49",
"a  c #474A43",
"s  c #534E44",
"d  c #514E49",
"f  c #594F43",
"g  c #4F504A",
"h  c #555045",
"j  c #5A5246",
"k  c #54534C",
"l  c #5C554B",
"z  c #5D594D",
"x  c #555551",
"c  c #595651",
"v  c #5C5B53",
"b  c #5D5D5B",
"n  c #615A4E",
"m  c #635F44",
"M  c #645D53",
"N  c #685F56",
"B  c #615E5A",
"V  c #685F58",
"C  c #5F605B",
"Z  c #656155",
"A  c #6A6255",
"S  c #64625C",
"D  c #6C655B",
"F  c #6E685C",
"G  c #70675D",
"H  c #726A5E",
"J  c #706456",
"K  c #646563",
"L  c #696661",
"P  c #656B65",
"I  c #6C6A64",
"U  c #6D6D6B",
"Y  c #736D63",
"T  c #786F63",
"R  c #736F69",
"E  c #6F706B",
"W  c #767066",
"Q  c #7A7265",
"!  c #75726C",
"~  c #7C756B",
"^  c #7E786C",
"/  c #767571",
"(  c #7A7671",
")  c #767872",
"_  c #7D7A74",
"`  c #7C7C79",
"'  c #80776D",
"]  c #827A6E",
"[  c #807770",
"{  c #847C73",
"}  c #887F73",
"|  c #837E79",
" . c #887F78",
".. c #7F807B",
"X. c #868075",
"o. c #8A8275",
"O. c #85827B",
"+. c #8C847B",
"@. c #8E887D",
"#. c #90877C",
"$. c #92897E",
"%. c #858483",
"&. c #8B8681",
"*. c #878884",
"=. c #8D8A83",
"-. c #8E8C89",
";. c #938C83",
":. c #998F84",
">. c #938E89",
",. c #988F88",
"<. c #8F908A",
"1. c #969086",
"2. c #999186",
"3. c #96928C",
"4. c #9B948B",
"5. c #9E988E",
"6. c #8E8F91",
"7. c #918F90",
"8. c #8C9093",
"9. c #949492",
"0. c #9A9691",
"q. c #969897",
"w. c #9E9A93",
"e. c #9D9D99",
"r. c #A0978D",
"t. c #A1998E",
"y. c #A39C94",
"u. c #A89F96",
"i. c #A39E99",
"p. c #A5A196",
"a. c #A8A197",
"s. c #A6A29A",
"d. c #AAA49C",
"f. c #ADA89E",
"g. c #B0A99F",
"h. c #9E9EA0",
"j. c #A6A4A1",
"k. c #ABA6A1",
"l. c #AEA9A2",
"z. c #AEADA9",
"x. c #B0A7A0",
"c. c #B2ACA4",
"v. c #B3AEA9",
"b. c #B8AFA8",
"n. c #B6B1A6",
"m. c #B8B1A7",
"M. c #B6B1AB",
"N. c #BBB4AC",
"B. c #BDB8AE",
"V. c #B1AFB0",
"C. c #B6B5B3",
"Z. c #BBB6B1",
"A. c #BEB9B3",
"S. c #C0B9AF",
"D. c #C0B7B0",
"F. c #C2BCB5",
"G. c #C4BEB9",
"H. c #C8BFB9",
"J. c #C5C0B6",
"K. c #C8C1B7",
"L. c #C6C1BA",
"P. c #CAC4BC",
"I. c #CDC8BF",
"U. c #D0CABE",
"Y. c #C6C7C1",
"T. c #CCC6C1",
"R. c #CEC9C3",
"E. c #CECECB",
"W. c #D0C7C0",
"Q. c #D2CCC5",
"!. c #D3CEC9",
"~. c #D5D0C6",
"^. c #D6D1CB",
"/. c #D9D4CD",
"(. c #DCD8CE",
"). c #D6D4D0",
"_. c #DBD6D1",
"`. c #DED9D3",
"'. c #E1DCD4",
"]. c #E2DED9",
"[. c #E5E2DA",
"{. c #E9E4DC",
"}. c #E6E2D7",
"|. c #EAE7E0",
" X c #EEEAE3",
".X c #F2EEE5",
"XX c #F2EFE8",
"oX c #F4F0E7",
/* pixels */
"D { 3.| 7.=.&.;.=.&.%.=.|  .&.&.7.&.,.!.`.D.i.h.i.V. .&.7.&.| | |  .%.| | &.&.&.-.&.&.d.R '  .$.#.;.#.#.,.&.#.#.' { ' V { 4.>.,.",
"F { v.D.Z.h.i.j.k.H.Z.k.H.V.i.j.V.D.v.!.].G.V.G.G.D.i.P.Z.C.V.D.T.V.G.T.Z.z.V.V.G.R.M.i.' { +.:.,.,.,.;.#.#. .#.{ { ~ N +.D.T.T.",
"V  .F.!.E.y y x ` ).!.Z.'.7.9 9 / _.G.!.{.D.0.k.c.V.b.].9.b ` h.].G.!.].h.U b K Y.`.Z.d.' { V R Y &.,.,.#. .[ V V c V V  .H.!.!.",
"L  .Z.T.T.U K U -.R.R.C./.h.K 5 / !.G.!._.T.i.x.c.l.v.).6.K h.C._.G.R._.C.q.%.%.E._.G.d.' { 9 V d &.t.:.&.#.[ Y U B ( V  .H.!.W.",
"R  .F.T.T.` ` ` 6.E.!.Z./.x.%.5 U ).G.!././.!.l.D.V.b.`.7.K q.V.`.G.E._.C.q.8.7.E._.G.c.{ o./ ( V >.r.,.&. .{ ( ` ` [ M %.G.Q.R.",
"R | G.R.T.` ` ` -.!.!.F./.k.%.B | ).G.!.].G.| ( ! i.b._.h.%.C.G.).A.Q._.V.h.7.6.T._.G.z.[ @.| ( L >.r.r.$. .[ R ` / [ M  .H.!.H.",
"Y  .D.!.R.q.7.>.i.!.!.C.).v.0.i.k.!.G./.].x.O O O j.c.!.T.T.!.!._.A.^.'.V.j.z.j.P.`.H.x.[ +.r.k.i.y.r.,.;.#.[ R / G G M | G.^.T.",
"V  .Z.D.G.G.T.T.R.G.G.Z.H.L.T.R.T.T.Z._.'.x.c c c x.d.H.G.Z.V.G.T.l.V.G.H.L.H.T.T.F.A.c.{ +.#.,.,.,.4.r.:.#.&. .[ ( ' V &.b.i.c.",
"I { i.>.w.d.k.k.x.i.4.4.i.j.k.x.i.y.0.R._.R.R.).H.b.>.4.0.y.>.0.0.>.,.4.w.d.i.d.s.w.0.d.' $.,.4.r.r.r.4.,.;. .#. .[ ' M  .i.0.i.",
"D  .Z.T.T.i.0.9.i.R.R.l.!.v.4.7.j.R.G.A.H.C.)._.M.d.v.R.d.9.4.s.Q.V.W.).v.0.0.4.G.).F.d.'  .#.:.,.:.r.,.:.&.#.|  .[ ~ V  .b.!.W.",
"V +.H.E.R./ b 5 %.).!.Z.'.j.B y ( _.G.G.P.v.!.T.v.9.v./.9.b P >.`.Z.!.`.j.R x b H.`.H.d.' { M d i  .t.r.;.#. .l k u R V &.D.W.T.",
"Y  .R.R.T.i.%.b 7.).W.G.).V.7.K 6.`.G.C.!.Z.R.L.C.>.c.^.z.*.q.j._.C.R._.C.7.K / T._.H.i.{ #./ p 9 &.r.,.:.;.&.Y B u | M &.D.!.T.",
"R  .T.Q.R.*.` C >.).Q.G.).v.| b -._.A.C.Q.v.Z.C.b.0.c.^.z.*.9.s._.V.W._.V.%.U E R.!.H.x.{ #.! p 9 &.r.r.:.;.&.R b y | V  .D.W.T.",
"~  .P.W.T.k.k.e.k.R.R.G.!.Z.z.q.j.).A.A.].i.d d k 3.v.!.q.O.*.w.).G.R.'.z.7.*.%.L._.P.x.'  .! k u | r.r.:.;.#.( L c | M &.D.W.H.",
"~ | P.!.Y.z.v.C.Z.!.!.A.).D.V.D.A.!.G.R. Xv.O X + =.A.!.v.l.l.M./.D.!./.Z.c.b.b.T.'.H.d.{ ' J Y ~  .r.r.,.:. .{ [ ! G V &.H.!.T.",
"I  .D.V.Z.Z.G.Z.Z.Z.D.H.H.G.T.T.H.G.v.!.`.v./ | / y.d.N.B.b.b.b.x.i.u.j.b.c.v.b.v.i.x.d.' #.:.:.r.r.r.r.,.:.:. .{ ( ' G  .u.0.i.",
"T { x.w.i.u.k.x.d.i.k.y.j.u.k.x.k.i.x.T.!.W.T.W.G.v.k.g.x.f.x.f.u.u.d.i.f.k.c.l.u.y.y.y.' #.4.y.u.y.y.r.$.#.#.#.+.{ ~ M ' d.x.c.",
"M [ G.!.W.7.| U >.!.Q.c._.c.&.%.0.!.G.T.H.H.Z.v.l.u.F.^.w.W ! y._.H.(.'.u.| W ( T._.H.g.' +.{  .{ ,.r.r.+.@.[ Y Y F Y N { N.'.!.",
"M { H.W.T.[ L 9 %.!.W.b./.i._ | =.!.D.T./.A.D.G.I.d.B.^.| > z 1./.H.^.`.>.b 4 p H.^.I.g.' $.R ~ L ;.y.2.@.$.^ e u < Y N { b.Q.W.",
"Y [ H.!.P.7.[ d 0.!.W.N.^.v.q.7.j.!.Z.c.I.D.W.N.H.b.D.~.-.e ! e._.L.!._.y./ k S T.!.I.x.^ :.%.q.0.r.r.r.@.;.{ S c u W M { b.^.W.",
"I [ H.T.T.( R 9  .!.W.D.!.v.j.j.k.!.Z.A._.H.b.k.l.c.A.^.>.i I 1._.H.!._.3.! k v P.!.H.c.{ ;.O.j.7.9.r.r.#.#.{ M c i ~ V { D.!.W.",
"' [ G.!.G. . .| &.W.!.Z.!.y.=.9.0.Q.N.c.].u.= : , 5.D.W.3.{ | w.!.K.).).0.+.O.| G.'.P.g.] X.| | Y &.r.r.#.+. .X.| ~ [ N  .b._.P.",
"V [ H.!.T.v.x.v.N.Q.W.A.!.F.v.Z.A.!.b.M. Xc.= = : 1.S.Q.S.S.D.P.~.H.!.^.D.F.F.H.W.~.W.g.] X.~ ^ ~ :.y.r.+.}  .' W Y G n  .N.W.W.",
"N ' b.i.k.b.u.u.c.v.x.x.c.M.A.F.N.c.u.I.'.F.w.y.4.p.u.u.d.t.a.p.y.y.y.f.m.D.D.D.D.g.b.g.] $.4.4.4.r.r.r.+.+.+.' ' W Y n [ u.4.u.",
"V ' x.x.c.d.s.d.c.c.c.d.l.c.l.v.c.c.c._.`._.].|.].R.x.g.s.a.s.d.v.k.c.v.c.c.x.n.m.b.g.y.T ] +.$.:.1.;.:.:.:.#.} ' ~ Y n  .b.Z.M.",
"n  .G.W.P.| | B _ ^.W.A.~.4.L v %.!.D./.{.~.R.!.P.A.D./.;.k v @.`.H.!./.y.D W s K./.K.g.Q ] z M h X.2.2.2.:.+.M l e G N +.F.!.W.",
"n  .F.H.L.*.-.i M !.P.M.Q.0.E x O.R.Z.~.|.`.]._.E.N.B.Q.-.q D =._.A.R./.0.s W < F.~.H.a.~ ] z 8 > +.4.:.:.:.+.v 9 @ Q G &.G.W.T.",
"A  .G.P.T.-.-.k B !.P.Z.E.s...K %.!.A.'. X|. XE.^.H.A.Q.9.S _ >._.A.Q.!.5.z ! q P.!.P.g.Q { ! h 4 =.4.:.:.4.;.R 9 $ ^ D ;.H.W.T.",
"F { L.I.L.k.z.U / !.T.Z.!.4.U C ! ^.H.'.[.P.s.s.w.A.B.Q.w.! _ >./.J.Q.~.f.@.<.C P.~.I.g.~ { F n i $.4.$.2.1.@.S s > ' A #.H.W.H.",
"M { L.Q.A.Z.L.A.V.W.W.b.!.0.O.+.>.R.D.!.{.y.o - + M.D.I.4.@.+.y.^.K.Q.Q.B.L.B.M.P.^.I.d.Q ] ~ ] Q X.4.2.:.1.@.Q ~ Y T G ;.H.!.F.",
"n { L.F.F.A.A.D.H.P.H.D.H.H.F.F.H.T.A.'.{.d.q h w B.B.I.F.B.F.K.U.F.L.I.J.B.J.F.U.I.P.g.~ X.X.X.o.$.2.2.2.4.2.{ ~ Q ' G :.D.D.H.",
"N ' f.4.5.s.k.g.u.,.r.,.,.u.M.b.c.f.u./.~.D.x.m.a.m.a.a.f.a.g.a.4.y.5.5.s.f.s.s.y.:.y.a.Q X.$.$.$.$.4.$.;.;.:.$. .{ ] N +.u.,.y.",
"M ~ M.N.B.j.s.k.l.A.F.z.J.z.j.j.z.J.M.A.I.L. X'.~.J.B.J.c.f.s.c.F.B.F.H.x.s.d.d.D.F.D.y.Q X.o.=.;.1.:.1.+.o. .T T Y G n #.D.U.F.",
"f { L.~.Y.v x u O.(.~.L._.<.a a O.`.J.A.A.L. XC.n.L.L.~.@.0 > ..'.H.!._.+.i w k K.~.I.d.Q ' f s 8 +.2.1.#.#.] j u 8 G M $.K.Q.K.",
"c { J.E.G.P P b -.^.U.L.).e.P 6 *.`.C.M.L./.`.A.f.B.J.Q.e.k k e.^.J.W./.1.I k I I.!.I.a.~ } Y d 4 1.4.2.#.#.{ W z w R n #.D.Q.P.",
"M { L.E.Y.) ) S 3.~.~.L.).h.P ; ) '.A.A.^.[.[.P.).A.B.~.9.a S e.^.J.W.^.-.I S U I.Q.P.a.'  .Y x 4 $.r.2.+.@.{ A k w Y n ;.H.!.H.",
"n ] F.!.P.O.*./ 3.^.!.L./.d.) x O.`.n.n.{.z.E ) ..n.N.~.p.E O.s.~.K.Q./.1.! E F J.~.I.a.^ o...Q Z 1.r.$.o.o.] J I z T n #.F.Q.G.",
"f _ P.~.F.:.>.;.w.~.!.Y.^.s.1.3.e.^.B.M..X1.    + l.A.I.p.p.p.n.~.Q.~.~.w.=.3.1.J.~.I.a.Q ] ^ X.X.@.r.$.#.#.] J F N A M @.F.!.H.",
"M ~ P.I.P.P.U.P.P.P.K.I.!.Q.~.R.~.~.A.~.}.5.j z z g.B.I.I.J.P.P.K.N.m.n.B.L.I.I.I.J.K.a.^ o.o.o.o.4.r.2.#.#.o.] T H H n +.N.m.N.",
"l T d.>.u.c.d.f.d.w.y.d.d.c.n.N.n.d.w.~.(.F.N.B.n.m.p.f.n.B.n.l.t.2.1.1.a.n.B.N.g.p.a.4.H o.#.@.$.$.$.#.o.o.] ] ' Q H l ' r.4.,.",
"f Q N.M.Z.0.>.;.s.F.F.N.I.s.3.>.e.J.z.R.^.L.{.}.}.B.B.J.e.=.=.f.R.F.T.!.n.2.2.w.I.L.J.p.Q X.J F J o.$.#.o.X.~ z N n J z X.m.I.P.",
"l ^ G.H.H.v x = ! !.L.A.^.>.k 4 E /.M.T.~.I.|./.).A.J.^.E - g <./.Z.I.(.2.l r Z ~.E.J.p.Q Q q > & o.$.#.o.o.T % q - H z X.m.I.P.",
"S T F.T.G.*.` y =.R.L.M.Q.s.` p O.~.C.^.).`. X_.~.A.J.~.@.g @.j.Q.A.R.~.m.X.C O.~.Q.K.y.T X.F 4 & +.$.#.o.o.~ C k w W z +.N.I.K.",
"I ' F.P.G.! / i >.R.L.Z.^.0.S 3 ! /.n.T.{.].XX'.).A.J.R.9.C E e./.A.R./.a.~ z @./.Q.J.y.T X.g < o +.$.#.o.X.^ H z k ! z } N.P.T.",
"A Q F.I.A.%.-.! >.I.G.A.Q.e.O.I O.~.n.J..Xd.g k m z.J.U.o.....p.^.A.R.~.s.@.X.=.R.Q.J.y.Q ] J Z M X.:.#.o.o.' J D A G j { N.I.F.",
"f { D.W.G.>.>.3.y.Q.P.A.~.l.w.s.l.Q.M.L.XX0.. . & f.B.U.p.p.p.n.~.A.Q.~.n.s.d.d.R.^.J.t.Q ] T Q Q o.$.#.] } ' n N n n l X.B.I.F.",
"n ( N.N.N.F.H.F.B.m.n.m.M.J.I.I.J.A.g.U.}.s.Z F A n.n.J.J.J.K.J.N.n.m.m.B.J.F.F.N.g.n.p.Q o.o.o.o.$.$.#.} } } Q H H G l { d.y.d.",
"j Y w.4.5.k.s.d.p.4.1.2.3.p.f.f.p.w.3.~.}.J.B.J.B.n.f.p.5.f.f.a.p.y.t.y.s.f.a.a.t.5.p.2.T o.o.#.$.$.r.$.] ] ] T A Z N l ~ r.y.y.",
"l ~ b.D.N.&...! 3.L.J.N.L.y.O.` 1.L.l.`.(./.{.}.(.B...Q q.....$.I.A.H.R.-.D W ! A.J.J.p.^ ^ h z t +.5.2.#.o.Q s f q n n o.B.F.M.",
"j ' N.F.N.B i $ I T.F.N.I.&.Z w ^ L.l.`.~.~.^.^.E.d.^ g.<.r ..o.R.N.F.R.W ; + < J.K.J.a.Q X.l h 7 +.r.$.o.+.H j d 4 N n o.M.D.x.",
"l ~ N.D.N.! P w O.P.A.M.R.0.%.I *.L.c.'.`./.].E.B.p.5.Q.3.m <.p.I.B.L.R.-.C $ i J.K.J.p.Q o.W W m @.4.$.o.X.Q A c y M l +.n.F.c.",
"N W A.A.A.B K 9 ` P.A.A.R.>.W P O.P.c.`.}./.'.).L.w.s.U.<.> W @.R.B.L.!.*.v - i K.J.B.t.Q X.F Y Z #.r.$.o.X.Q m B f M z X.n.B.x.",
"n W N.G.x.( / L ` H.A.Z.I.>.! L _ J.z.`. X3.% ; 6 O.B.J.$.@.@.3.P.B.L.J.1.O.^ ..A.P.N.f.] ' H H F ] $.$.#.#.J * 7 1 f n { g.D.f.",
"j ~ D.H.N.t.w.y.d.Y.L.Z.P.d.w.y.d.J.z.(. X*.X o + O.K.J.p.f.p.n.I.F.I.I.n.f.d.l.F.I.F.:.' X.Q Q ^ #.$.$.o.o.o.J J N A l o.b.N.m.",
"n ' c.d.b.H.F.F.F.b.b.M.M.F.K.P.J.B.d.^.'.p.^ X.F $.n.B.J.J.J.B.m.m.a.g.B.B.B.S.N.f.c.@.X.2.] } o.o.$.#.o.X.T Q J A N f [ y.,.r.",
"f I ,.y.y.d.f.k.d.y.i.s.d.d.c.c.l.f.w.~.~.P.J.~.B.f.a.a.p.f.p.p.y.y.p.p.a.d.d.d.y.y.a.2.H a.H H T ] o.o.o.' J J n n n s Q u.r.y.",
"f W s.A.Z.! I S ` L.A.v.T.>.B S ` I.l.!.~.Q.`.}.I.B.B.J.! a s X.P.B.L.I.R i k v A.J.A.p.H 5.e q q X.$.o.o.X.Q q , & A l { A.M.N.",
"z I e.A.A.d i 0 c L.M.k.L.&.k 4 v T.k.R.`./.'.[.U.n.m.I.F + > ) R.N.F.P.S 5 4 3 F.F.F.p.A 4.P w t o.$.o.X.X.Q v 4 @ D l { N.N.N.",
"z Y u.A.G.v k k S F.n.l.L.3.E 5 C R.s.~.`./.[.`.U.c.m.J.E - g O.I.B.F.T.` x i g A.L.F.p.A 2.) , < ^ o.o.X.X.Q j 4 X H l  .b.N.N.",
"l Y s.A.A.K K x L L.M.l.L.>.K y I Y.d.Y.`.F.A.A.l.f.f.J.) 0 i O.P.M.F.I.| a ; g J.J.S.t.H $.| 4 q ^ o.o.X.X.Q A k 4 F l { m.N.B.",
"s T y.F.z.M.A.k.i.A.M.d.A.=.` _ @.J.d.F.[.@.    0 c.c.B...W F <.J.B.J.F.&.! U ! B.L.B.5.J X.o.M Z Q o.o.T X.J m Z A A j { c.D.c.",
"j R k.H.M.s.d.s.k.G.D.f.J.n.s.a.g.B.l.R.`.=.X X Z B.B.B.f.f.f.M.F.M.F.F.v.l.v.c.J.J.B.p.F X.$.J T X.o.o.X.] T m A m A j X.N.D.B.",
"q c >.i.a.l.M.A.x.s.y.y.p.n.B.B.n.t.<.J.I.w.X.O.E 3.5.f.M.f.f.p.3.=.+.$.s.f.l.s.3.2.p.=.Z ^ 2.Q T X.o.....] T J A A m t Q 4.;.r.",
"q f _ 1.4.4.4.4.t.y.5.2.y.t.y.t...y.<.J.I.B.U.B.$.p.w.p.5.5.p.p.s.w.p.s.s.s.s.p.y.p.p.@.m T o.m m H X.Q Q T A j l t * * H >.>.;."
};
