/* XPM */
static char *_0807c4d4dad4c11aa5550c93f0e70e9ifEYKOWBKIAZQhTu[] = {
/* columns rows colors chars-per-pixel */
"64 64 246 2 ",
"   c #030000",
".  c #0C0A08",
"X  c #1C140C",
"o  c #19160D",
"O  c #1E1912",
"+  c #171716",
"@  c #0F1112",
"#  c #281B0D",
"$  c #221C15",
"%  c #251E18",
"&  c #2D241B",
"*  c #272119",
"=  c #31261B",
"-  c #35291B",
";  c #2E220E",
":  c #1C1D21",
">  c #1E272D",
",  c #262726",
"<  c #352C24",
"1  c #38322B",
"2  c #2D3436",
"3  c #383937",
"4  c #443728",
"5  c #433D36",
"6  c #503E30",
"7  c #3E403B",
"8  c #57482E",
"9  c #46433B",
"0  c #594D37",
"q  c #5E5536",
"w  c #66563A",
"e  c #604F31",
"r  c #3C3D41",
"t  c #403F44",
"y  c #3C4243",
"u  c #4A4644",
"i  c #4B4B4C",
"p  c #464747",
"a  c #534D48",
"s  c #585248",
"d  c #485259",
"f  c #585857",
"g  c #484C53",
"h  c #675B46",
"j  c #635D53",
"k  c #645E59",
"l  c #725F44",
"z  c #5C615D",
"x  c #6C614A",
"c  c #75654B",
"v  c #6C655C",
"b  c #696359",
"n  c #746B5B",
"m  c #766958",
"M  c #585C62",
"N  c #4B5D69",
"B  c #635E66",
"V  c #5C6266",
"C  c #5A6C75",
"Z  c #6B6B6B",
"A  c #686866",
"S  c #746C63",
"D  c #746D67",
"F  c #7C756B",
"G  c #777369",
"H  c #686D74",
"J  c #6C757D",
"K  c #697378",
"L  c #7E7C73",
"P  c #74767A",
"I  c #737A7D",
"U  c #7D7C7C",
"Y  c #747473",
"T  c #6E706D",
"R  c #827259",
"E  c #837A6D",
"W  c #877967",
"Q  c #847D73",
"!  c #867F75",
"~  c #7E807D",
"^  c #94846D",
"/  c #8B8275",
"(  c #85837B",
")  c #8C847B",
"_  c #89867A",
"`  c #948A7C",
"'  c #978B76",
"]  c #9D917B",
"[  c #8A816F",
"{  c #A4947A",
"}  c #AD997A",
"|  c #B4A07F",
" . c #6C7A84",
".. c #757D81",
"X. c #787D84",
"o. c #7C8385",
"O. c #76838C",
"+. c #7B858A",
"@. c #7B8588",
"#. c #798892",
"$. c #6F818B",
"%. c #8C8B84",
"&. c #848A8C",
"*. c #8A8C8C",
"=. c #868686",
"-. c #938D83",
";. c #958E88",
":. c #949186",
">. c #9D9384",
",. c #94928B",
"<. c #9B958C",
"1. c #9F9A8E",
"2. c #888D93",
"3. c #8C9298",
"4. c #9C9A94",
"5. c #92959B",
"6. c #979796",
"7. c #8D908C",
"8. c #A39584",
"9. c #A49A8B",
"0. c #AB9C8B",
"q. c #A69986",
"w. c #B09E85",
"e. c #A39D93",
"r. c #A69F96",
"t. c #B4A48B",
"y. c #BDAA8B",
"u. c #B9A585",
"i. c #ACA394",
"p. c #ABA59C",
"a. c #A7A59C",
"s. c #B3A693",
"d. c #B3A996",
"f. c #BCAD94",
"g. c #B5AB9B",
"h. c #BAAD9B",
"j. c #B1A699",
"k. c #BCB19E",
"l. c #B7B09E",
"z. c #AEA28E",
"x. c #949CA3",
"c. c #989EA4",
"v. c #8B99A4",
"b. c #A19EA4",
"n. c #9BA4AB",
"m. c #97A2A8",
"M. c #9BA8B3",
"N. c #A7A9A7",
"B. c #B5ADA3",
"V. c #BCB3A3",
"C. c #BCB4AB",
"Z. c #B9B4AA",
"A. c #A4ADB4",
"S. c #AAB3B9",
"D. c #BBBBB4",
"F. c #B6B8B7",
"G. c #9FA69F",
"H. c #C3AD8B",
"J. c #C9B28E",
"K. c #C2AE92",
"L. c #C4B295",
"P. c #CBB594",
"I. c #CCB896",
"U. c #C4B39C",
"Y. c #CCBA9C",
"T. c #C9B69B",
"R. c #D2BB95",
"E. c #D3BD9C",
"W. c #D8BE99",
"Q. c #C3B5A3",
"!. c #CDBCA4",
"~. c #C4BAAC",
"^. c #CBBDAB",
"/. c #C4B8A6",
"(. c #D2BEA2",
"). c #D0BFAB",
"_. c #C3BDB2",
"`. c #C7BEB5",
"'. c #D5C19E",
"]. c #DAC39C",
"[. c #DDC69C",
"{. c #E6CB9D",
"}. c #CDC2AE",
"|. c #CBC1AB",
" X c #D5C2A4",
".X c #DBC5A3",
"XX c #DDC9A5",
"oX c #D4C4AC",
"OX c #DAC6AA",
"+X c #DCCAAC",
"@X c #D6C9AE",
"#X c #CCC3B3",
"$X c #CCC5BA",
"%X c #CAC6BC",
"&X c #D4C6B2",
"*X c #D5C9B5",
"=X c #DBCCB4",
"-X c #D4CBBA",
";X c #DBCDBA",
":X c #D5C7B6",
">X c #DED0B6",
",X c #DDD1BC",
"<X c #D7D0BE",
"1X c #DED0AD",
"2X c #E2CBA4",
"3X c #E2CDAC",
"4X c #E6CCA3",
"5X c #E5D1AD",
"6X c #EAD2AC",
"7X c #E9D0A5",
"8X c #E1CFB4",
"9X c #E0CFBA",
"0X c #E4D2B4",
"qX c #EAD4B4",
"wX c #E3D3BB",
"eX c #E9D6BB",
"rX c #EAD9BD",
"tX c #EAD8B9",
"yX c #F2DBBB",
"uX c #ABB8C3",
"iX c #B4BDC7",
"pX c #C8BFC0",
"aX c #B7C2C9",
"sX c #BDC9D3",
"dX c #C8C8C5",
"fX c #D2CDC4",
"gX c #D5CFC8",
"hX c #DCD3C3",
"jX c #D9D5C9",
"kX c #DADAD7",
"lX c #CAD0D7",
"zX c #E3D6C2",
"xX c #E5D9C5",
"cX c #EBDBC3",
"vX c #E4DBCA",
"bX c #EBDDCB",
"nX c #E4D7C6",
"mX c #E2DED4",
"MX c #EDE0CC",
"NX c #F2E3CD",
"BX c #ECE2D3",
"VX c #E5E2D7",
"CX c #F3E8D6",
"ZX c #D4DCE3",
"AX c #EFEEE9",
"SX c #DFE4E8",
/* pixels */
"% % % o X = < < $ O O % * * & $ $ X O + $ $ % % % $ X X O $ $ O o o o o o o O * % % % + + O $ X $ X O < < = $ # O $ & & & # X $ ",
"! ) E j E 9.s.0.) E ( ) >.e.9.` E E E F F Q ! ! E k v v [ ` ( ~ ~ [ [ [ / F x E ) ! ! ! L Q ! E E ! ! 0.j.8.! ! ! %.9.0.9.! E E ",
"nXwX,XwXcX&X&X;X;X;XhX;X:X=X&X9X9XnXgX:XfXnXnXcXnX9XzX9X-X<X-X-X*X|.oX@X@XwX+X=X`.~.`.pX_._.~.).:XzXcX).:X9X:XhXhXfX=X).).hX:XnX",
"] &XcXwX0XwXwX9.` ) 9.B.).wXoXwX).W ! E ` ` ` 8.w.zXeX=X&Xi.e.i.i.z.f.@X1X>XXXtXB.< 1 1 3 , a hX8XqXwXyX^.-.` %.p.V.:X9X).cXs.W ",
"9 ~.NXwX9XbXvXS 2 M H H fXMX=XnXh.# X 5 a u f 5 m bX,X|.oXs O 3 1 1 8./.T.XXXX0X`.B X.H X.P k :X8X3XeXNXC.p r H B 2.cX9X8XNXS . ",
"j.fXbXzXcXbXjX%.X.A.uXuXmXvX9XNXC.u i P N.A.b.b.C.bXzX&X&XF   f 7 o $XQ.k.@X1XtX_.M B  .P B j -X8XOXrXBX`.X.3.uXM.pXBXcX9XNXQ u ",
"N.fXvXeXwXbXgX6.uXuXiXZXmXcXzXbXB.D 5.3.c.M.c.b.B.vXnX^.$X( 7 Y A Y $XV.L.|.1XtXC.B B H H Z A ;X9X XeXbXF.c.iXuXlXZXbXcXzXBX) U ",
"N.-XvXzXcXnXgXb.uXiXiXZXvXzX9XbXB.( AXn.x.S.c.b.C.nXzX&X*X` A T I kXjXV.k. X5XtX~.X.2.5.2.*.F ;X9X8XrXbXF.n.sXuXlXZXnX9X9XBXU C.",
"C.jXbXeXzXxXgXA.lXZXsXSXmXzX9XcXB.Q VXN.5.F.b.r.|.xX,X}.*X>.u T f Z.VXB.k.XX1XMXV.3 i g g t k fX0X8XcXbXpXA.ZXdXlXSXbXeX9XbX! B.",
"n s.bX9X=XbX$XQ X.2.2.%.h.cX9XzXf.j E D D Y S S F <XMX1X-X[ n E b _ ~.k.Y.XX5XrXC.~ &.3.5.2.F -XwX8X9XvXN.Y &.*.2.2.).cX8XhX! v ",
">.Q.zX9XzXwX:XQ.B.B.V.r.Q.zX:X9X&Xh.9.<.>.8.8.0.f.@XrX>X1X{ ' ' ' ^ { P. X5X5XtX_.Z P I X.D n hX0XwXwX9XoXV.h.B.B.0.).9X:X;X^.0.",
").9X;X;XzX=XwXcXcXnXnX9XzX9X:X:X=X;X*X^.Q.Q.!.8XeX>X>X@XXXXXoX0X+X0XqX'.'.XX2XtXC.Z M , , f Q fX=XtX9X=XcXcXeXzXzXhXhX9X:X:X9X8X",
"oX9X9XwX9X=X8X=X8X=X:X:X:X9X9X).rXrX,X*X<X&X&XwXxXeXeX+X.XOX@X+X+X X+XE.I.3X6XrXZ.f @     1 E -XwXtX8X8X9X+X8X=X=X:X9X9X=X;XzX9X",
"K.Q.!.(.oXT.!.U.U.Q.Q.Q.Q.!.!.!.{ { ] ' ' ] ] ] ] u. Xt.y.u.{ q.t.u.y.w.| I.y.L.) A Z k A Z E j.y.I.(.!.!.Q.Q.Q.Q.Q.!.T.!.K.{ { ",
"wX;X9XwXcX:X9X9X-XfXnXhX:X:X).^.^ w x x 0 q w w x t.>X!.Y.|.k.|.>X+X.XE.Y.+X[.+X~.=.%.U ! U ) &X(.3X8XOX:X).).-X:X:XOX8X=XK.R w ",
"/ :XeXwXzX;X).b f j k k B.hX).hXV.x x n n n n n ] zXeX+X;X>.n n ^ [ y.3XOX5X[.qX~.< 2 i f p s &X.X5XeXtX0.j k n S ! OX3X8XrX' s ",
"L vXwX8X=X;XC.3 > y 2 2 A.<XoX,X%X1   Y Y 2.m.z p.MX>X@X>Xx o 9 5 - s.>X X3XW.6X`.a i X.=.P D ^.).6XqX=XB.i , =.B 6.:XW.OXzX8.1 ",
"A.kXeX8X=X,XZ.z N  .C  .D.<X&X,X%XA y x.m.uXsX5.aXMX@X@X@Xv & v 9 5 |.oX(.3X2X8X).5 u u i u a ^.(.3X8X&XB.*.5.S.x.N.zX3XOXzXb.B ",
"D.jXwX+X+XhXF.H  . .N H D.<X#X<X%X7.m.uXm.aXaXv.dXhX>X@X-Xm 9 4.T F $XoX X+XR.OX`.B Q X.=.2.R ^.(.3X8X=XB.t H b.=.pX:XOX(.cXe.2 ",
"F.kX;X=X@XhXD.V #. .> 2 Z.fX&X-X%X@.#.S.M.aXaXm.dXjX@X@X<Xb 9 j._ _ <XoX X.XE.OXQ.B Z P X.Y k ^.(.3X3XOXB.u 5.b.B pX).OX3XcX<., ",
"D.kX;X>X>X<XZ.A +. .2 2 B.hX=X9X%X%.3.S.A.aXF.N.dXjX1X XoXv v _.%.:.*X@XE.2XR.3XK.a i i g t 4 ^.T..X4X).~.D pXF.*.jX8X(.3XeX<.u ",
",.g.=X0XrXwXV.L ~ Q Q F 9.hX=XzX/.1.<.,.7.4.6.1.i.@X>X@XoX^ ' 1.>.>.z. X'..XW.XXj.a B B H P a ^.E..XqX3Xs.e.r.B.N.r.E.6X.X8XW m ",
"i.Q.=XtXrX*X*X,X:X`.`.Q.!.).:X9X@X*XQ.0.9.9.i.l.|.wX>XXXXXL.s.t.t.u.y.'.(.4XW.3Xh.% , , t t a U.T.(.yX3X).(.(.!.T.P.(.4X3X5X.XI.",
").8X1XtXrXoX@X=X8X).=XOX9X).OXcX+XqXrXoX^.|.|.@XwX5X1XXXXX'.'. XL.'.XX[.W.2XR.2XK..   . % 5 h Q.T.2X3X].qXyXcX6X3XyX6XW.2X3X2X{.",
"(.+X+X8XwXoX X X^.^.!.!.(.(.(.9X0XtX0XoX@X<X1XtXtX5X1X[.'.L.f.'.P.L.[.'.'.'.J.'.! = = # % 6 0 t.y..X+XE.OX1X1X'.T.(..X(.3X8X2X6X",
"U.Y.E.E. XT.T.U.h.U.U.L.K.K.T.T.R R R m x n n c c { XXI.I.k.t.y.L.f.f.'.J.'.R.I.K.j.h.h.B.j.0.K.H.E. XP.T.f.f.k.K.U.H.K.(.t.R c ",
"T.=XtXqXtX0X=XV.V.V.~.!.OX9XqXOX{ c c x q h h x R Y.>X>XXX@X%X%X*X#X@X>X1X1X5XtXr.B B D D S ;.bX+XtXrX,X;X*X<X<XhX;X;X=X@X).' m ",
"h (.tXqXtXwX^.j 1 u j j K.3X).cXV.0 4 s h x h 9 F xX>XoX|.~ j v Z b ] >X@X1XXXrXQ 3 i t t 3 ! bX@X3X+XzX` 3 9 p t v :X=X XcX' 0 ",
"*XxXqX5XtX@X~.;.3 &.2.X.;X).OX9X|.D , :.l.<XZ.~ i.MX1X}.#X~ 1 g m.2.D.>X1XXXXXwX) Z 5.+.&.P r.bX@XqX=XwX~ , 3 d 2 K -X*XoXxX,.  ",
"MXrXtX5X0X=X#X_ =.S.b.A.:XOX.X8X|.A T N.%XVXaXv.D.vX,X}.|._ f I aXS.jX<X1X1X1XrX=.t B M d p ;.vX+X0X=X,X&.N C C C 3.fX-X&XnXN.f ",
"-X>X5XqXwX=X$XA 3 b.X.b.9X).OX9X%X7 3 G.jXjXaXG.D.vX<X|.|._ 7.S.uXiXjX-X+X+X5XrX;.=.c.x.5.*.e.nX0X+X=XzX2. .#.C N +.fX:XoXhXN.2.",
"/.MX0XqX0XoX*Xv Y lXB j.;X).3XcX|.9 z D.D.%XdXG.%XvX>X@X%X_ 6.aXaXaXMX<X+X1X5XcX) i M M M g ( BX0X5X+XhX#. .#.d @ V jX*XoXhXN.X.",
"w.9X6X6X8XOX).;.b.gX4.`.9XOXOXqXU.h G 9.q.i.N.1.l.xX>X|.|.1.D.lXsXlXVX@X1X5X5XrX;.B ..H H M ;.vX8X3X8X;X=.H @.f 2 A ;X;X=XnXN.%.",
"R w.qX3XyXqX(.0.i.r.j.q.w.3X2XqXt.W W R m R m R [  XtX>X}.] ` %.( / q.1X1X1X0XwX;.P 5.3.2.X.e.vX8X0XtX,X1.%.%._ %._ ~.9X=X;Xi.9.",
"W.3X6XqXqXOX3XqX9X8X).OX3X4X(.6X6X7X[.[.{.[.{.6XqXqX0X1X@X'.'.y.U.L.'.XX+X5X5XrX;.M M g V M ,.vX+XqX0XoXwXxX;X$X|.^.oXoX;XeX=X=X",
"6X6X6XqXyX.X6XqXyX6X.X6X6X4X2XqX2X4X{.{.7X4X6X6X6XqX0X@X[.[.'.'.].R.].XXXXtX5XrXr.~ u @ M H 6.bX0XrX0XoXOXOXoXOX=XoX+XOX9XeX3XtX",
"[.].W.].2XP.W..XOX].K.W.2XW.E.2XP.].].R.[.[.[.{.XX[.{.'.J.J.y.H.J.J.R.J.'.XXR. XQ a 5 % u u v ^.Y..X.XP.(. X XT.T.E.E.R. X X(.4X",
"].W.W.W.W.R.(.OXOX).(.(..XE.(.J.R w l w e w w e q ^ '.I.'.'.u.'.[.[.[.'.'.Y.J.L.B.,.b.6.b.r.e.Q.L.R.W.E..XOXOX^.!..X(.W. Xw.c w ",
"&X9X8X3X3XqX9X8X9X`.`.:XeX2X2XOXy.m R R F G n W ' oX1XXXXX| ' q.T.Y.R.XX.X3XXX0X! 5 p g t 1 ` bX+X3X6X6X=X$X-X`.`.9XqX4X3X X{ m ",
"s hX8X2X2X3X=X! D ;.=.) oXXX].2X}.F b / 7 v _ 1 ` MX X'.|.q 0 s 0 9 ] OX X+XW.XX! H X.&.f 3 8.zX.X.X7X3X/.G L ,.! 0.3X[.E.wXi.v ",
"u bX=X2X6X+X,X<.T N.2.~ ;X.X.X0X$Xa.a.F., A N.@ _ BX@X'.z.[ a.N.2.Y |.@X XXX(.OXE i M f a 1 ;.cX.X2X7X+X#XL ( A.J r.qX].4X9XC.4.",
"N.VXOX.X6X2X,X4.7.uXx.5.,XXX].8XfXA 7 5.d uXM.i jXMX|. Xs.( &.5.m.M.%X|.!. XW.8XQ k B M B u 8.zX(.2X6X5X#X*.c.iX&.S.eXW.W.eXZ.r ",
"F.VXOXXX7X+X,X%.T F.m.c.,XXXE.@XhXf @ v.C lXS.V VXjX@X'.s.~ 3.iXm.S.,X X(.XXW..X) =.r.*.=.F 9.8XI.XX7X1X#XY *.F.3.F.9XW.E.9XZ.: ",
"dXBX=X2X5X.X,X:.T D.m.4.wX+X.X+XfXs 3 S.H lXF.Z VXhX@X'.z.[ 3.aXm.D.xX|.(.XXR.).D < f i a u ! 9XE..X2X+X#XT *.aX2.C.eX.XXXwXB., ",
"jX<XXX[.5X3X:Xj.p.%XZ.C.=X3X2X+X|.i.p.fXD.jXfXD.vX1X XI.q.` B.D.N.D.@X'.I.'.E.=XD u P M M i ! 9XE..X3X3X~.i.Z.D.Z.#X=X2X2X8XV.e.",
"s.L.5X].XX0X Xg.k.d.a.>.w.0X.X.Xk.t.g.i.i.d.s.d.t.'.|.f.| ] >.>.>.] ' P.P.I.R. XE i M g g 5 Q 9XE.R.3X3XT.g.g.d.e.] P.7X X Xt.s.",
".X2X2X'.'.+X+XqX0X0X+X.XXX[.[.I.XX'.'. X X X.XXX1XXX'.| J.'.I.P.'.'.'.'.I.P.I.I.D 1 t +     S qXW.R.XX+X0X0X5X0X@XXX{.[.Y.'.XX'.",
"3X7X2X.X X3X2X5X5X5X7X5X4X2X.X'.7X[.[.[.2X5X7X7X7X[.'.'.y.'.I.E.'.'.J.P.P.'.'. XE t i : @   m wXR.P.+X3X3X5X3X3X5X6X2X2X'.XX2X[.",
"I.E.R.R.(.E.L.Y.!.E.E.E.P.T.P.P.u.u.y.| H.J.J.J.H.I.I.y.u.u.u.y.L.y.u.H.y.L.^ [ S u u u a 9 a W } J.E.I.P.Y.(.(.E.E.P.J.P.J.u.H.",
"=XOX.X3X8X(.OX X^.=XwXzX3XOX0XQ.c e w w e e l q c u.0X.X X1X|.oXwX=X3X+X1X XI.x E f a i k f S s !. XOX XoX).).;XwX9X3X3X9Xw.w e ",
"1.-XcX0XyXcX:XW n F ! W T.NXeXcXk.n n n n F G G >.,XxX0XwX9._ ,.>.>.V.cXtX>XZ.9 5 + , : : , 3 s MX0XrXcXg.m S E ! ' wXcXwXnX>.n ",
"G jXwX0XbXbX:X< X < f u s.NXzXhX_.1 . D Z ~ 7.f 9.xX;X;XxXG   3 I f V.xX>X+X] q X : % : % % @ a V.;XcXNX] X $ u a k 9XbX9XzX-.. ",
"N.VXwX0XrXMX-Xs g H n.A.`.bXcXhXdXf , 3.x.uXaX2.dXjX;X>XhX<., d A.5.jXxXzX|.] ' ^ ' ` / ) ' 9.>.8.=XcXNX9.a f =.N.A.zXMXwXhXN.2 ",
"S.jX,X@XwXMX#XD b.x.c.b.:XMXzXhX%X2.5.S.m.aXaXx.dXjX}.,XjXG.7.A.A.n.fXhXtXy.c 8 w h w 0 w l h l ` &XMXNXe.Y N.5.M.N.hXcXwXhXN.&.",
"F.jX<X>XwXbX*XF SXiXv.M.`.cXzXzX%X&.#.S.M.aXiXn.dXjX=X,XhXG.o.n.A.A.jX<X1Xf.^ w 8 e 8 6 6 w 0 ^ k.#XrXNXe.6.AXm.m.S.hXcXxXhXN.+.",
"D.mX=X>XzXxX*XD gXF.5.B.zXbX9XhX%X%.3.S.M.aXaXN.<XjX>X>XhXi.@.n.S.A.jX,X1Xy.} { 4 ; ; ; # ; # q.*X-XxXMX9.%.kX5.4.D.xXcXwXhXN.=.",
"r.V.;XwX;XxX}.x n S m m 8.cX9X9X/.:.,.4.4.r.e.<.i.*XxXwX;Xq.<.4.e.1.j.$XeXk.xXk.# = = = = = ; g.fX#XzXcXq.h n m n n !.cX=X,Xi.:.",
"<.h.=XrX9XwX=XT.0.q.0.w.U.9X9XzXoXz.0.>.<.>.>.0.0.=XcX0X=Xf.q.>.] 1.i.&XeX XCXV.4 - = ; = = = ~.BX-X9X9XoXf.q.q.0.w.oXwXwX0XL.0.",
"!.=X+XwXwX=X=X&X~.~.Q.).;X9X9XcX>XtXtX|.^.^.^.oX0XwXcX=X0XtX}.~.|.|.oX=X0X@XBXV.- 4 - = = - = :XAXwX=X=X=X&X~.~.^.oXwX=XeXeX9XrX",
"*X>XwXwX,X:X<X-X`.fX`.`.;X;X;XwX1X1X,X#X}.;X@X=X0X0XeX=X>XwX&X}.=X=X+X>XwX}.hX~.- 4 = = = = % fXAXhX:X;X;X$X%X%X`.*X;X,X,X8X@X0X",
"k.k.k.k.V.d.V.~.C.Z.p.V./.k.l.g.d.g.d.d.l.V.k.k.g.k.V.d.g.j.i.l.k.k.k.l.g.h.CX-X4 6 4 - & = * -XAX#Xl.j.C.~.C.l.g.C.V.k.g.g.g.g.",
":.%.L L ( %.%.7.6.,.,.,.%.~ L ~ _ %.%.7.,.:.:.%.( F ~ _ %.%.7.4.:.:.:.~ L L _.j.< 6 4 < 1 & * a.CXl.( %.%.,.4.,.:.,._ L L ( %.%.",
"@.@.I I J I I I +.O.o.@.o.$.Y I ~ J  .+.@.o.@.@.~  .I ~ I J @.@.o.@.o.~ I T 1.` ; 1 < < < & * _ ~.a.K ~ I I +.$.@.@.o.I I I ..J ",
"#...J K J  . .O.#.#.O.#.$.K K J $.J $.O.#.O.#.$.J C K  . .$.O.#.@.O.#.J H Z :.E < < < & 1 < & F 1.N.K  . .O.#.#.@.#. .K H  . . ."
};
