/* XPM */
static char *_1a72dc1eca54b7aac672e64ac3b6b59JCGbYhvqJlzyp5Qy[] = {
/* columns rows colors chars-per-pixel */
"64 64 220 2 ",
"   c #271F14",
".  c #302A1D",
"X  c #2D261E",
"o  c #2A2928",
"O  c #352E23",
"+  c #382F26",
"@  c #383024",
"#  c #3C362B",
"$  c #3F392E",
"%  c #373227",
"&  c #3B3936",
"*  c #423A2C",
"=  c #41372B",
"-  c #453E33",
";  c #4C4434",
":  c #45413A",
">  c #4B4439",
",  c #524A3B",
"<  c #524836",
"1  c #5B503E",
"2  c #3D4045",
"3  c #444443",
"4  c #4D4A44",
"5  c #4C4C4A",
"6  c #48484A",
"7  c #534C44",
"8  c #514E4B",
"9  c #5C4A46",
"0  c #53514D",
"q  c #555453",
"w  c #5C5B5B",
"e  c #585758",
"r  c #4C4F54",
"t  c #615E5E",
"y  c #62615F",
"u  c #74665D",
"i  c #7B6F57",
"p  c #5C5D62",
"a  c #5A5B66",
"s  c #5E6169",
"d  c #656362",
"f  c #6B6B6C",
"g  c #686769",
"h  c #6C6D73",
"j  c #6B6E7A",
"k  c #6E7278",
"l  c #727275",
"z  c #74757B",
"x  c #77797D",
"c  c #7B7B7D",
"v  c #797876",
"b  c #796F6A",
"n  c #867959",
"m  c #867A64",
"M  c #837E7B",
"N  c #90805F",
"B  c #8F8266",
"V  c #928364",
"C  c #9C8C6C",
"Z  c #968769",
"A  c #9F906E",
"S  c #948A73",
"D  c #9C8D72",
"F  c #9B8F7C",
"G  c #958673",
"H  c #9C927B",
"J  c #9D9074",
"K  c #87827C",
"L  c #A18F6A",
"P  c #A4936E",
"I  c #AB966C",
"U  c #A49373",
"Y  c #A99672",
"T  c #AD9A74",
"R  c #A3957B",
"E  c #A6997D",
"W  c #AC9B7A",
"Q  c #A69875",
"!  c #B29D74",
"~  c #B29E7B",
"^  c #A18A7A",
"/  c #B6A076",
"(  c #B4A27D",
")  c #B9A67B",
"_  c #BDA97B",
"`  c #B9A476",
"'  c #757682",
"]  c #767983",
"[  c #7B7C82",
"{  c #7A7E8A",
"}  c #737889",
"|  c #7E8185",
" . c #7E828C",
".. c #7E8595",
"X. c #838385",
"o. c #83858A",
"O. c #86898D",
"+. c #8B8B8D",
"@. c #8C8785",
"#. c #908F8D",
"$. c #9B9383",
"%. c #9A958A",
"&. c #838591",
"*. c #868992",
"=. c #8B8D93",
"-. c #8A8E9A",
";. c #908F94",
":. c #998F90",
">. c #8E9093",
",. c #8D929D",
"<. c #939294",
"1. c #9C9A94",
"2. c #94959A",
"3. c #96999D",
"4. c #9B9B9C",
"5. c #999797",
"6. c #8E908F",
"7. c #A59A83",
"8. c #A79B86",
"9. c #A29F9C",
"0. c #A19C95",
"q. c #9EA09F",
"w. c #ABA087",
"e. c #B4A383",
"r. c #BDAB83",
"t. c #BAAC8B",
"y. c #B4A688",
"u. c #ABA293",
"i. c #A6A39C",
"p. c #A9A69E",
"a. c #A9A69A",
"s. c #BAAC92",
"d. c #B4A996",
"f. c #BCB29A",
"g. c #9196A2",
"h. c #959AA3",
"j. c #9C9EA2",
"k. c #9F9FA9",
"l. c #8790A1",
"z. c #A09FA4",
"x. c #9EA1A5",
"c. c #9CA2AB",
"v. c #97A1AD",
"b. c #9FA6B0",
"n. c #A3A3A4",
"m. c #ACAAA4",
"M. c #A4A5AA",
"N. c #A6A9AC",
"B. c #ABABAD",
"V. c #A8A7A8",
"C. c #B2ADA3",
"Z. c #B3AFAC",
"A. c #B5B1A7",
"S. c #B3B2AC",
"D. c #B9B6AE",
"F. c #A3A6B2",
"G. c #A5AAB2",
"H. c #ACAEB2",
"J. c #A4ADBA",
"K. c #ABAFB8",
"L. c #B0AFB2",
"P. c #AEB1B4",
"I. c #AEB2BA",
"U. c #B3B3B4",
"Y. c #B9B6B5",
"T. c #BCBAB6",
"R. c #B4B6BA",
"E. c #B9B7BA",
"W. c #B6B9BC",
"Q. c #BBBBBC",
"!. c #B6B8B7",
"~. c #C1AC81",
"^. c #C4B286",
"/. c #CAB689",
"(. c #C7B58C",
"). c #C2B595",
"_. c #C5BDB2",
"`. c #C2BDBA",
"'. c #C1B5B5",
"]. c #BEC0BF",
"[. c #C2C1BE",
"{. c #CBC4B4",
"}. c #ACB5C1",
"|. c #B3B6C1",
" X c #B5BAC2",
".X c #BDBEC1",
"XX c #B9BECA",
"oX c #C1BFC1",
"OX c #BFC0C3",
"+X c #BCC2CC",
"@X c #BDC6D3",
"#X c #C3C3C4",
"$X c #C6C8C7",
"%X c #C5C6C9",
"&X c #C9C7CA",
"*X c #C7C8CB",
"=X c #C9CACD",
"-X c #CACBCC",
";X c #CACAC5",
":X c #D0CECB",
">X c #D3D2CF",
",X c #C2C7D2",
"<X c #C5CBD6",
"1X c #CDCED1",
"2X c #CECED1",
"3X c #C6CEDB",
"4X c #CFD0D2",
"5X c #CFD0D3",
"6X c #CAD3DD",
"7X c #D0D1D3",
"8X c #D2D3D2",
"9X c #D2D2D5",
"0X c #D5D5D6",
"qX c #D2D2D3",
"wX c #D5D6D9",
"eX c #D9D9DA",
"rX c #D8D8D9",
"tX c #CFD0D2",
"yX c #CBD6E3",
"uX c #D3DBE5",
/* pixels */
"4X9X9X9X9X9X0X0XwXwX0XwXrX0X9XqX9XeXeXeXrX0X0X9X0X9X9X0XrXrXeXeXeXeX0XrX9X0X#XS.B.n.Q.].Q.].OXQ.Q.U.u.s.t.e.y.t.t.~.t.e.t.f.e.s.",
"*X-X1X1X1X=X=X*X1X*XtXoX2X0XtX&X1X#X*X#X#X#X=X9X9X9X1X=XQ.Q.E.E.E.Q.E. X-X0X&XV.m.B.Q.Q.OX#XOXE.U.m.d.f.f.s.s.s.d.s.d.w.8.d.n < ",
"1X1X1X1XoX=.=.4.=.3.1XE.=XrX-XE.=X<.O.2.o.X.oX9X4X4X0X.Xo.*.-.X.+.2.+.3.-X7X*XB.B.S.#X$X#X;X#XY.V.i.f & - - > > , - $ $ # - O & ",
"1X1X1X1X,Xz.M.XXk.K.1X7XtX0X9X9XtXn.=.K.2.2.=X9X9X9X4X=XB.G. XN.L. XM.R.-X>X;XL.S.n.q.x.n.q.x.!.!.B.6.f t t w w d d t d f h w v ",
"1X1X4X1X*XK.K.+XF.I.1X1X7XrX9X1X1Xz.-.K.g.h.1X7X4X9X9X<XK.K. XH.R. XK.W.-X4X$XU.S.N.+.>.x.O.>.!.U.B.B.n.4.6.4.V.n.L.V.;.4.4.4.n.",
"1X1X-X1X%XG.I.*XI.R.=X1XtX0X7X1X1Xz.;.I.g.h.=X7X4X4X5X*XP.I.XXI.W. XI. X-X9X$XU.U.P.b.N.Q.M.N.Q.!.!.U.U.U.B.z.M.L.V.z.V.P.B.B.!.",
"-X1X1X1X%XW. X XI.+X=X1X4XrX9X7X1XM.2.K.j.M.1X7X9X4X9X$XI.R. XU.W. XR.P.$X8X$XU.E.!.N.G.W.N.N.].].T.!.Q.!.Q.o.' z.j [ E..XQ.E..X",
"4X1X4X4XR.3.3.=.*.3.=XR.-XeX=XQ.oXO.O.=.+.o.E.0X9X4X0XE.=.X.o.o.| | [ >.=X>X#Xp.d.p.i.a.m.i.a.A.A.A.T.T.Q..X*.' F.j {  X.XXX#X#X",
"tX1XtX9XQ.z.B.B.B.N.=X1X9XrX4X1X=X.X#X.X#XW.tX9X9X7X8X*X!.U.B.U.N.B.N.E.:X8X{.H 7.Z P W Q A P I T w.%.T.oX.XM.M.H.=.4. X*X#XE.*X",
"1XtXtX9X-X&X:X2X8X-X1X7X1XrX4X9X0XrXrXrXrX9X0X9X9X9X0X7X#X-X>X-X-X-X;X-X4X>X{.H ) ! ` _ _ _ _ ` _ ( %.!.oX.XQ..X XoXoX*X*X#XM.1X",
"#X$X#X&X#XoXoX&X;X#X#X;X8X0X8X$X*X*X$X*X$X*X=X;X#X#X#X[.#X;X-X-X*X#X#X;X;X>X{.E ) ) r././././././.t.%.S.Q.#X*X#X&X#X&X#X*XoXL.=X",
"`.#X&XoX&X=X7X1X-X$X#X-X7X9X-X#X#X$X#X$X*X*X=X*X$X;X#X#X;X*X#XOX.X#X#X#X$X>X_.b B B N V N V V Z V V M n.U.Q.Q..XoX#X#X#XoXQ.V..X",
"9X7X7X9XE.+.<.V.V.H.9XR.-X*X#XQ.#X4.M.M.j.3.#X0X5X1X9XE.[ | 3.h.j.X.k >.1X#XB.O # $ @ @ # * $ $ # % d 9.N.Y..X.X`.Q..X.XQ.U.<.L.",
"1X1X1X7XR.X.=.K.;.G.1X4X7XOX4X-X#XP.K.+XI.I.%X1X4X1X4XOXG.J.OXb.I. XN.W.-X$XB.4 s w w s t s w g f c 5.B.E.R.M.B.G.H.H.#X&XE.<.Y.",
"1X4X1X-XXX XXX<Xh.|.5X5X:X#X4X-X$XF.h.+Xg.v.*X7X7X1X4X*X X+X+XJ. X<X X+X*X#XB.l 6.o.O.,.,.*.O.2.n.V.B.U.Q.L.&.&.U.-.M.#XOXE.4.U.",
"1X1X4X-X%XK.XX,Xv.|.5X4X:X#X-X-X$XI.b.@XJ.J.*X7X1X1X1X*X+X@X@X}.XX<X}.@X*X#XU.X.q.4.h.v.J.h.h.G.P.U.Y.!.Q. X-.} XX2.R.#X].E.z.U.",
"1X1X1X*X*XW.|.+X-.R.1XtX-X#X7X-X#XW.I.<XJ.I.+X4X4X-X-X-X<X<X6X X+XuX+X<X#X#X!.5.N.M.c.J.J.v.c.R.E.E.Q.Q.OXOX-. .+Xv..XQ.OXE.q.U.",
"-X1X9X$XW.XX X,XF.R.%XR.-X&X#XE.R.N.W.W.,.3.OX4X7X-X1X.XW. XI.N.G.W.I.H.#X#X!.4.B.I.b.J.}.v.c.W.Q.!.A.C.A.D.O.c !.n.!.A.A.A.%.p.",
"4X1X4X4XY.V.K.Q.&XQ.=X#XtX#X*X#XQ.V.n.n.N.N.$X4XtX-X-X#Xn.4.2.4.4.2.2.V.-X#XE.4.P.P.G. XI.h.c.Q.Q.C.7.Q J C J S D B A D W Q A e.",
"4X7X4X:X&X[.[.tX0X-X1X9X7X$XtX-X-X*X$X-X;X$X4X4X7X7X-X9X*X;X#X#XQ.].[.*X:X$XQ.M.U.N.c.N.N.N.B.Q.Q.p.w.r.` T / I T P T / _ _ I ` ",
"*X&X-X*X#X#X#X;X%X#X-X&X#XoX*X$X;X;X[.#X$X$X-X-X-X*X-X-X&X#X#XoX[.[.[.#X*X#XU.V.U.E.W..X.XOXOXQ.!.u.y.(.r._ ~.` ^.) ^._ ^./.) ^.",
"Q.!.Q.#X[.#X#X$X&X&XoX#XQ.E.$X#X#X-X*X-X-X4X-X*X&X&X#X-XtX=X&X&X*X-X=X-X;X#XL.i.U.U.R.W.OXQ.Q.E.Z.#.S Q C C C V Z B Z N Z V n Z ",
"tXtX1X-XQ.V.B.B.B.M.-XQ.*X-X*X&X#X4.1.4.4.4.*X7XtX1X7XE.4.z.M.n.M.j.4.B.-X-XU.<.V.B.U.!.Q.Q.Q.S.n.#.; . . . @ @ O @ @ @ = @   . ",
"tX=X-X1XQ.4.3.E.<.j.-X$X=X$X=X*XQ.n.B.U.B.B.*X7XtX1X1XR.+.+.L.X.V.4.c B.1X$XQ.m.U.B.4.n.N.V.N.!.B.n.6.g w e w w w w y y d y y g ",
"=XtX=X-X%XR.I.6XF.I.1X5X-X#X7XtX#Xn.n.OX1X#X*X1X1X1X9X.Xc.2. X{ K.n.o.I.4X#XQ.B.R.M.l =.2.x 2.Q.U.B.B.z.<.+.;.2.h.<.<.<.1.5.5.4.",
"=X=X-X=X#X XI.3XJ.W.1X1X=X&XtX=X#X=. .W.1X#X*X1X1X1X9X.Xj.2. X{ G.N.O.U.1X$XQ.B.U.W.h.I.N.o.x.].!.!.Y.U.V.j.j.k.G.2.N.V.B.B.M.B.",
"-X-X-X-X%XR.I.6XJ.|.<XtX=X$XtX7X%X>.>.I.j.j.*X1X-X1X7X.Xz.j.#X| K.M.X.K.tX#XQ.H.R.Q.2.G.v.| x.].Y.E.Q.E.U.B.z.F.I.j.R.P.!.U.L.U.",
"-X-X-X&X.X.XOX5XOXOX*XQ.&X&X$X#X XX.X.x.X.X.#X1X1X1X1X.XN.G.#XB..XG.j.R.-X#XY.n.m.'.;.B.4.v 1.D.D.D.T.Q.!.L.z.G. Xj.Q.R.E.E.Y.E.",
"tX-X1X-XE.4.n.n.x.n.;XQ.$X$X#X*X!.<.5.5.z.z.$X9XtX1X7X#XU.N.L.!.L.U.L..X-X;Xi.u m G ^ 8.H H S 7.y.7.i.E.Q.L.M.K..XU.Q.R.Q.E.Q.Q.",
"-X-X-X-X#XQ.Q.E.Q.Q.$X7X=X#X7X-X;X*X-X;X-X-X7X-X4X1X7X-X#X`.Q.#X#X#X#X$X-X:Xu.D 8.L Y U C C Z A T D %.E.Q.U.V.B.G.H.B.Q.#X`..X.X",
"-X-X-X*X#X].#X#X].].*X-X&X#X-X=X*X*X*X-X-X-X-X7X-X-X-X-X$X;X#X#X#X#X&X&X1X{.d.F ~ Y Y T ~ P A ( e.R 0.U.E.Q..X.X#XoX#X.X#X].E.#X",
"Q.#X#X[.#X;X#X&X$X*X#X*X`.E.#XQ.#XtX-X-X*X*X#X#X#X#X#X#X-X*X*X-X-X=XtX*X#X[.0.G R m Z A Z B m D W S @.m.E.E.Q..X`.Q.Q..X[.Q.Q.Q.",
"=X=X=X=XoXR.R.L.L.L.1X.X%X*X*X#XoXz.V.B.H.H.&X5XtX2XqXE.V.L.M.n.V.B.n.Y.=X:X#.X $ * - * * * # * : : M V.L.!.`.#X#XoXoX.XE.L.M.E.",
"2X=X=X=XE.;.;.z.*.;.=XL.#X*X#X#X`.[ o.;.z ' oX5X2X=XtXU.O.<.4.l <.V.;.Y.-XtX;.% 0 4 4 4 8 q 8 t t v 9.Z.!.U.B.B.L.L.E.oXoXB.z.`.",
"-X=X=X=XoX-...J.] ,.=X1X=XoX1X1XoXL.I.|.{ o.%X1XtX2X=X&Xz.j.N.' z.#X!.*X&X=X4.g +.l l [ +.+.@.<.z.B.U.U..Xz.h [ M.h h.oXQ.V.z.U.",
"-X-X=X=XoX=.{ F.' -.1X=X1X#X1X=XoXK.K.|.{  .%X7X2X:X1X&XV.h.F.z z.*XQ.&X&X=Xz.M 4.<.H.Q.N.M.j.B.H.!.E.R.oXV.[ ;.|.s z.oXQ.n.n.U.",
"&X*X-X&X*X*.] F.' -.&X=X*X#X1X=X&XL.K.R.' o.*X1X2X2X:X%Xj.3.M.z j.*X`.&X&X-XB.#.N.4.B.XXP.N.V.U.!.E.Q.Q.OXN.X.2.R.s k.OXR.V.V.U.",
"*X-X*X&X#Xn.h.|...z.,XoX&X#X=X%XoX XoXXX-.<.*X1X=X2X&XoXH.P.G.2.#X*X=X#X&X-XB.4.B.M.N.#XU.B.B.!.R.!.`.`.[.n.K 1.L.w 9.`.S.0.0.m.",
"1X*X-X1XU.5.z.j.V.V.oXR.*X$X#X#XQ.V.H.M.V.n.#XtX2XtXtXB.4.4.4.4.4.<.<.B.-X-XU.4.B.N.H.#XR.H.N.E.Q.D.8.E U D B C 7.m D H 8.U Z e.",
"*X1X*X*XQ.V.B.L.Q.oX&X2X=X#X-X=X&X#XoXoX`.#XtX-X2X=X=XoX!.!.S.Q.Q.T.Y.[.-X*XS.n.R.M.n.M.N.M.N.Q.T.A.7.T Z C Y Y ~ ! T L ) ! ! ) ",
"*X1X1X=X*X#X.X.X#X*X*X=X-X[.tX=X=X*X*X&X-X&X=XtX-X-X>X#X[.Q.[.#X#X#X[.$X=X-XL.4.U.!.Q.Q.Q..X.XQ.E.C.e._ P I T I ` ! ~ I ~.` ! ~.",
"oXoXoX#XoX#X#X#X#X*X$X&X#XY.#X#X#X*X%X*X&X&X#X#X#X#X[.#X#X#X[.#X#X#X#X;X*XQ.4.n.U.U.R.R.Q.E.E.W.E.p.7.e.U U U P Y Y T W r.W P T ",
".XoXoX.XQ.E.E.E..XE.#XQ.#X#X.XE.#X`.oXQ.Q.E.$X$X#X;X*X`.!.!.T.!.E.U.Y.oX$X$Xn.<.i.n.N.U.Q.T.Y.U.N.1., = - - = - ; ; ; ; > * X = ",
"#X#X#X#XQ.X.{ 4.o.<.#XR.#X#X#XQ.#X<.<.M.O.;.%X$X#X*X1XL.c +.n.X.n.+.c H.-X-XB.i.U.L.B.B.N.N.H.Y.B.V.M e q 7 q q 8 8 8 q w : : 8 ",
"OX#X#XOX#X2.*.I.&.h.*X*X#X#X*X#X=Xx.h. X2.c.*X*X&X*X-XE.O.4.B.c U.<.X.E.=X-XB.V.U.N.[ M.=.X.z.Q.U.H.V.<.+.X.g [ h z X.#.<.c c +.",
"Q.OX].OXOXh.,.}.g.k.*X*X$X#X*X*X*XF.M.XXk.G.*X&X;X*X-XQ.+.j.U.o.U.2.O.Q.-X*XB.N.P.E.| H.j.M.K.E.!.!.S.N.M.=.a { j [ j.n.V.1.4.i.",
"[.#X].OXXXj.g.}.g.N.*X$X#X#X*X#X%Xc.k. Xc.N.*X&X*X-X-XE.X.4.H.c B.2.X.Q.=X=XL.m.P.R.O.K.k.N.U..XW.!.W.P.U.j.a *.j k N.L.U.m.N.B.",
"].#XOXOXQ.F.N.+XK.I.%XOX*XOX$X#X#XR.Q.,XN.P.*X&X*X-X-X.X<.M.$Xq.#Xj.>.Q.*X;XZ.p.C.T.X.S.1.z.V.X.n.].W.!. Xk.e -.' p j.Q.!.L.U.!.",
"].].].OXU.5.3.x.n.n.OXB.OXE.*X#XQ.B.B.B.N.V.#X*X*X=X-X!.n.4.V.V.n.q.n.!.$X;X0.S 7.8.R 8.^ $.u 9 H 0.D.E.Q.N.| j.2.[ n.Q.Q.U.!.E.",
"].].Q.OXQ.B.B.B.B.U.OX$XOX!.=X#XQ.n.i.n.N.B.#X$X*X*X&XQ.V.1.4.q.i.n.V.].$X;XH n W T ~ ~ Y Y G F y.E Z.Q.W.B.P.H.B.B.H.Q.Q.E.E.Q.",
"OX#X#XOXOXOX#XQ.].].OX$X#X!.*X#X[.Q.T.Q.]..X*X*X*X*X&X$X#XE.Q.Q.Q.].].$X$X:X7.D ! / ! ! ! ! W ( ) R m.R.].OXOX]..X.X.X#X#XQ.Q.E.",
"Q.W.Q.Q.OXQ..X].#X].E.!.W.E.#XOX#X].[.#X#X#XQ.Q.Q.#XoXoXQ..X`..XQ.#X#X!.!.T.8.E e.( e.( ( e.( ( y.F 9.R.Q.W.].]..XQ..X#X#XQ.Q.#X",
"Q.Q.Q.OXQ.!.E.!.E.!.Q.E.Q.E.#XOX[.].].Q..XoXoXoX#X#X#X#X#XQ.Q.`.Q.Q.`.OX#X#XK * , , , , , , , , > : X.<.4.2.>.>.>.6.+.X.X.X.#.4.",
"OX#XOX#X!.<.2.<.O.>.Q.U.OXE..X.XP.h v O.g ' %X&X*X$X-X<.e l z w M h g H.*X#Xl o 5 4 8 0 5 5 5 0 3 q 4.l z x [ h g c h f g =.% o ",
"OXOX].].Q.M.4.OXuXyXOX%XOX!.*X%XW.| *.j.6 h &X%X*X*X=Xz.s |  .a 3.X.c U.*XoX+.f X.l h c g p c 6.@.6.N.| |  ... . .O.o.| [ j.6 3 ",
"Q.OX].OX.XG.h.,XyX3X X#X#XQ.#X+XW.=.>.k.6 h &X%X$X*X*XB.' 3.-.[ k.<.o.U.$XOX<.X.2.| z o.h e +.b.3.n.!.3.x.,...l.,.*.3.j.3.x.q d ",
"Q.].Q.OXOXI.3.+X@X@XOXOXOXW.%X+XW.x O.4.2 e =X%X%X*X$XH.{ g.>.] j.-.| R.*XQ.4.+.M.6.z O.k p =.P.N.H.W.x.F.,.{ l.h...x.b.x.q.w v ",
"Q.OXOXQ.W.W.H.uXuXyXW.OXOX].#X#XOXo.O.x.& q =X%X%X*X*XN.] >.-.' h.| X.R.&XQ.4.4.N.>.x >.r 2 q.W.H.R.#XN.L.j.*.h.x.6.B.Z.v #.0 b ",
"Q..X].OXB.x.x.n.J.b.!.q.W.OXR.H.R.2.3.4.o.<.#X&X%X%X$X4.x O.c c X.c z B.$XE.n.4.P.O.l o.2 o *.OXP.i.%.$.$.$.$.$.$.$.7.%.H S i n ",
".XQ.Q.].U.q.4.4.x.V.].!.W.R.#XOX.XE.E.E.`.:.oX*X#X#X#XQ.U.P.B.U.H.B.B.oX#X!.x.n.P.q.2.3.3.4.x.W.P.1.G D U L D L C D Q Q W P I I ",
".XOXQ.OXQ.T.E.!.Q.Q..X%XOXQ.*X+X#X%X%XoX'.b Y.*X%X%X#X%X.X.X.XOXOXQ.Q.#X#X!.n.n.P.!.OXOXOXOXOXW.P.i.R T ! ! ! ! T T ! T / I I I ",
"E.Q.Q.E.Q.E.!.E.E.Q.Q. X!.B.Q..XE.U.R.oX`.Z.Y.oX.X.X X#X.XQ.OX.XOX.X#XOX].x.<.4.N.P.R.R.R.R.!.!.P.1.w.e.W ~ e.~ T ~ T ! ( Y ! ` ",
"]. XOXQ.E.OXQ.Q.#XQ..XQ.R.n.E.Q.E.U.E.E.`.`. XoX.X.XoX#X*X#X#X#X[.#X#X.XQ.N.<.+.2.q.N.S.P.P.H.b.x.X.7 7 , > < ; ; < ; ; ; = , 1 ",
"OX.X.XOXU.X.@.@.d X.%XH.Q.H.Q.U.oX2.:.9.;.5.#X#XoX#X*XM.v <.c t <.X.+.OX#XU.n.n.P.S.N.H.P.H.R.U.Z.i.d 8 4 7 7 7 7 4 4 4 8 - 7 0 "
};
