/* XPM */
static char *_1c84f11ce20459894883a897739878c22zYs9LeDWe6Aqgv[] = {
/* columns rows colors chars-per-pixel */
"64 64 215 2 ",
"   c #010301",
".  c #0B0102",
"X  c #000A00",
"o  c #0E0E0E",
"O  c #160208",
"+  c #001504",
"@  c #001709",
"#  c #021A0A",
"$  c #0F110E",
"%  c #081D11",
"&  c #151716",
"*  c #2C111B",
"=  c #01220C",
"-  c #082714",
";  c #18271C",
":  c #0B321D",
">  c #00320E",
",  c #341723",
"<  c #183825",
"1  c #0F3923",
"2  c #2D2D29",
"3  c #252622",
"4  c #36272B",
"5  c #2B332B",
"6  c #25382A",
"7  c #31312C",
"8  c #303A2F",
"9  c #3B3533",
"0  c #343B33",
"q  c #3D3E3A",
"w  c #363735",
"e  c #2D3F31",
"r  c #453C3C",
"t  c #413636",
"y  c #5E263F",
"u  c #064724",
"i  c #1A432B",
"p  c #0E582E",
"a  c #195C34",
"s  c #165731",
"d  c #10572F",
"f  c #21452F",
"g  c #2A4734",
"h  c #324B39",
"j  c #384A3C",
"k  c #2A543C",
"l  c #30563D",
"z  c #1B693C",
"x  c #22623E",
"c  c #41423D",
"v  c #503D41",
"b  c #763A53",
"n  c #623549",
"m  c #3D4C40",
"M  c #365944",
"N  c #2A6744",
"B  c #33694A",
"V  c #37674B",
"C  c #3A7552",
"Z  c #397653",
"A  c #34744E",
"S  c #494644",
"D  c #57454A",
"F  c #45594B",
"G  c #5B5757",
"H  c #51504E",
"J  c #674B55",
"K  c #685559",
"L  c #496854",
"P  c #536E5E",
"I  c #56665C",
"U  c #49755B",
"Y  c #55745F",
"T  c #735E66",
"R  c #745F68",
"E  c #795E66",
"W  c #6F5F62",
"Q  c #566E61",
"!  c #587764",
"~  c #696866",
"^  c #77626A",
"/  c #79626A",
"(  c #766266",
")  c #65796C",
"_  c #7A7A79",
"`  c #85576A",
"'  c #955470",
"]  c #81666E",
"[  c #846A71",
"{  c #8B6B76",
"}  c #916D7A",
"|  c #398659",
" . c #46845E",
".. c #478964",
"X. c #59866C",
"o. c #4C986D",
"O. c #5B9A75",
"+. c #53916C",
"@. c #688C76",
"#. c #738379",
"$. c #69977C",
"%. c #67A57E",
"&. c #997884",
"*. c #A17687",
"=. c #A3798A",
"-. c #B37991",
";. c #6D9E81",
":. c #7A9785",
">. c #7F8A82",
",. c #6CA785",
"<. c #79AB8D",
"1. c #77AA8B",
"2. c #6BB289",
"3. c #7EAC90",
"4. c #78B793",
"5. c #72B38B",
"6. c #76C798",
"7. c #73CB98",
"8. c #7FD5A3",
"9. c #898687",
"0. c #82998B",
"q. c #968F90",
"w. c #A2848C",
"e. c #AD8A96",
"r. c #B9879B",
"t. c #B5919E",
"y. c #83AC92",
"u. c #87B89A",
"i. c #BB95A2",
"p. c #BF9BA7",
"a. c #90BBA0",
"s. c #A5A6A6",
"d. c #C59AA9",
"f. c #D89CB4",
"g. c #CE99B0",
"h. c #E69EBC",
"j. c #ED9DBD",
"k. c #F09FBF",
"l. c #C6A2AE",
"z. c #D3A4B6",
"x. c #D7A9BB",
"c. c #C9A8B5",
"v. c #E5A2BD",
"b. c #EEA0BF",
"n. c #F0A0BD",
"m. c #81C49C",
"M. c #89C1A1",
"N. c #86CCA4",
"B. c #94CCAB",
"V. c #91C3A5",
"C. c #8BD7AA",
"Z. c #92D3AE",
"A. c #9CD5B4",
"S. c #98DBB4",
"D. c #A4DABA",
"F. c #A4D6B7",
"G. c #8EE7B3",
"H. c #91EAB6",
"J. c #9AEDBC",
"K. c #98E6B9",
"L. c #8FF7B9",
"P. c #90F6B7",
"I. c #93F6BB",
"U. c #9AF4BE",
"Y. c #92FABB",
"T. c #99F9BF",
"R. c #87E6AE",
"E. c #A3E5BD",
"W. c #A7E4BE",
"Q. c #F09FC0",
"!. c #DFB2C3",
"~. c #EDA2C1",
"^. c #EDABC5",
"/. c #EDAFC8",
"(. c #E5ABC2",
"). c #F1A1C1",
"_. c #F4AFCB",
"`. c #F6ACCA",
"'. c #E4B4C6",
"]. c #EDB4CB",
"[. c #EEB8CD",
"{. c #E7B4C8",
"}. c #F2B3CC",
"|. c #F1BACF",
" X c #F2B7D0",
".X c #9DF6C2",
"XX c #9CFBC3",
"oX c #97FBC0",
"OX c #A6EBC2",
"+X c #AAEBC4",
"@X c #A9E6C3",
"#X c #B1EAC6",
"$X c #B2EDCA",
"%X c #B1E2C5",
"&X c #A4F3C5",
"*X c #A1FAC6",
"=X c #ABF6CB",
"-X c #A5FAC9",
";X c #ABF9CB",
":X c #B2F5CD",
">X c #B1F9CF",
",X c #B7F6D2",
"<X c #C3C4C4",
"1X c #D0D0CF",
"2X c #EDC4D5",
"3X c #F1CCDD",
"4X c #C2EFD5",
"5X c #E7E7E7",
"6X c #E8E8E8",
"7X c #E9E7E8",
"8X c #FBFBFD",
"9X c #FFFDFF",
"0X c #FFFCFF",
"qX c #FFFDFD",
"wX c #FBFDFC",
/* pixels */
"8XwX8X8XwX8X8XwXwXwXwX8X8X8X8XwXwXwX8X8XwXwX8X8X8XwX8X8XwX8X8X8XwXwXwX8X8XwXwXwXwX8X8X8X8X8XwXwX8XwX8XwXwXwXwX8X8X8X8X8X8XwXwXwX",
"0X0X0XqX0X0X0X0XqXqX0X0X0X0XqXqX0X0XqX0XqXqX0X0X0X0XqX0X0X0X0X0XqXwX0X0XqX0XqXqX0X0X0X0X0X0X0X0X0X0XqXqX0X0XqXqXqXqX0X0X0X0XqXqX",
"^ ^ ^ ^ ( ^ ^ ^ ( ( ^ / ^ ( ( ( ^ ^ ^ ( E ^ ^ ^ ^ ^ ^ ^ ^ ^ ^ ^ ( ( ^ ^ ^ ( ^ ^ ^ ^ / E ( ^ ^ ^ ( ^ ( ( ^ ^ / ^ E E ^ / ^ E ^ ^ ",
"*.*.*.*.*.*.*.*.*.*.*.*.*.*.*.*.*.*.*.*.*.*.*.*.*.*.*.*.*.*.*.*.*.*.*.*.*.*.*.*.*.*.*.*.*.*.*.*.*.*.*.*.*.*.*.*.*.&.*.*.*.*.*.&.",
"^.`.`._._._._.`._._._._.`.}.`._._._._._.}.`.}.`._._.`._.}.`.}.`._.`.}.`.`.}.`.`.`.}.`.`._.`.}.`.`.`.`.}.`.}.`._._.}.`.`.`.}.`._.",
"j.k.k.j.j.j.j.j.j.j.k.j.k.j.k.j.j.k.k.j.j.j.j.j.j.j.j.j.j.j.j.j.j.k.j.j.j.j.j.j.j.j.k.k.j.k.j.j.j.j.j.j.j.k.k.j.k.j.j.j.j.j.j.j.",
"j.k.k.k.k.k.k.k.k.k.k.k.k.k.k.k.k.n.k.k.k.k.k.k.k.n.Q.j.).).j.j.k.k.k.k.k.k.).k.k.k.k.k.k.k.~.k.).k.k.k.k.k.k.Q.k.k.k.k.j.k.k.j.",
"j.k.k.k.k.k.k.k.k.k.k.k.k.k.k.k.k.k.k.k.Q.k.k.k.k.b.b.}.f.z.}.j.b.k.k.k.k.k.).j.k.k.k.k.k.k.n.b.k.k.k.k.k.k.j.j.k.k.k.k.).j.k.j.",
"j.k.k.k.k.k.k.k.k.k.k.k.k.k.k.k.n.n.k.k.k.k.k.k.n.v.]./ 7 4 [ /.j.Q.k.k.).k.k.k.k.k.k.k.k.k.b.).k.k.n.k.Q.k.`.`.).j.b.n.n.k.k.j.",
"j.k.k.k.k.k.k.k.k.k.k.k.k.k.k.k.k.k.n.k.k.k.b.b.b.{.J S F.F.w &.].j.k.k.k.Q.k.k.).k.k.k.k.k.).j.k.k.k.b.j. Xr.] g.^.b.b.k.k.k.j.",
"j.k.k.k.k.k.k.k.k.k.k.k.k.k.k.k.k.k.k.k.k.k.k.b.|.[ h :X&X=XA.5 x.~.).j.k.j.n.n.k.k.k.k.k.k.j.Q.k.k.n.h.}.} 7 ~ 4 t.^.b.k.k.k.j.",
"j.k.k.k.k.k.k.k.k.k.k.k.k.k.k.k.k.k.k.k.k.k.j.^.e.8 W..XI.I.;XL ^ }.j.).k.k.n.n.k.k.k.k.k.Q.Q.Q.Q.n.h.[.[ e D.,X0.r {.b.k.k.k.j.",
"j.k.k.k.k.k.k.k.k.k.k.k.k.k.k.k.k.k.k.k.~.j.~.z.5 V.=XI.Y.Y..XA.2 z.(.Q.k.k.n.n.k.k.k.k.k.k.Q.Q.~.j.[.[ h W.*XJ.,Xj w.`.h.k.k.k.",
"j.k.k.k.k.k.k.k.k.k.k.k.k.k.k.k.k.k.k.k.~.~.[.v $.=XI.Y.Y.Y.Y.=XY T }.j.n.k.n.n.k.k.k.k.k.k.Q.Q.j.[./ m #X*XI.I.-X$.r /.h.k.k.j.",
"j.k.k.k.k.k.k.k.k.k.k.k.k.k.k.k.k.k.k.k.h.].( L :XI.U.Y.Y.Y.oX.XA.5 z.~.).b.Q.k.k.k.k.k.k.Q.).h.}.] h #X*XI.Y.Y.T.W.0 d.b.j.k.j.",
"j.k.k.k.k.k.k.k.k.k.k.k.k.k.k.k.k.k.k.h.}.w.e #X.XY.Y.Y.Y.Y.Y.I.;XL [ }.j.b.j.).k.k.k.k.k.n.h.[.} g W.*XY.Y.Y.Y.P.>XP ( [.j.k.j.",
"j.j.k.k.k.k.k.k.k.k.Q.Q.k.k.k.).Q.Q.j.(.l.7 B.*XY.Y.Y.Y.Y.Y.Y.oXXXa.9 !.b.k.k.Q.k.k.k.k.Q.h.|.} h W.*XI.Y.Y.Y.Y.Y.*Xy.c ].n.n.j.",
"j.k.k.k.k.k.k.k.k.k.Q.Q.k.k.k.k.Q.b.b.'.r :.;XI.Y.Y.Y.Y.Y.Y.Y.Y.oX=Xj &.].j.k.Q.k.k.k.k.h.[.w.5 D.T.Y.Y.Y.Y.Y.Y.I.T.W.f d.n.j.j.",
"j.k.k.k.k.k.k.k.k.).k.k.).).k.k.b.h.[.K Q :XI.I.Y.Y.Y.Y.Y.Y.Y.Y.I.-Xy.r {.j.~.Q.k.k.b.h.}.e.6 A.*XP.Y.Y.Y.Y.Y.Y.Y.I.;XP E }.j.j.",
"j.j.k.k.k.k.k.k.Q.j.k.k.j.n.k.b.j.].&.j =XoXI.Y.L.Y.L.Y.Y.Y.Y.Y.oXI.=Xg e._.j.).k.k.j.^.i.2 B.*XY.Y.Y.Y.Y.Y.Y.Y.Y.I.*Xm.t '.b.h.",
"j.k.k.k.k.k.k.k.Q.k.Q.Q.k.Q.~.j.^.d.5 A.*XI.I.Y.Y.Y.Y.Y.Y.Y.Y.Y.I.oX-X;.D ].b.j.k.h._.i.3 u.;XI.I.Y.Y.Y.Y.Y.Y.Y.Y.Y.T.+X0 t.^.j.",
"j.k.k.k.k.k.k.k.n.k.Q.Q.k.Q.n.v.!.9 y.;XI.I.Y.Y.Y.Y.Y.Y.Y.P.Y.Y.oXI..X#X7 t./.v.j./.i.3 u.=XI.I.Y.Y.Y.Y.Y.Y.Y.Y.Y.Y.P.;X! T }.h.",
"j.k.k.k.k.k.k.k.k.k.Q.Q.Q.~.j.[.G ! >XI.Y.Y.Y.Y.Y.Y.Y.Y.Y.Y.Y.Y.I.oXOX$X#.r !.v.[.l.5 u.=XI.Y.Y.Y.Y.Y.Y.Y.Y.Y.Y.Y.Y.P.*XV.0 v.v.",
"j.k.k.k.k.k.k.k.k.k.k.j.Q.j._.&.j :X.XY.Y.Y.Y.Y.L.Y.Y.L.Y.Y.Y.Y.oXR.z s k < q S D 3 y.=XI.L.Y.Y.Y.Y.Y.Y.Y.Y.Y.Y.Y.Y.I.T.:Xh e.^.",
"j.k.k.k.k.k.k.k.k.k.).Q.j.(.p.5 F.*XI.Y.Y.Y.Y.Y.Y.Y.Y.Y.Y.L.Y.Y.I.I.R.G.K.OX%Xy.# 3.;XI.I.Y.Y.Y.Y.Y.Y.Y.Y.Y.Y.Y.Y.Y.Y.I.;XX.W }.",
"j.k.k.k.Q.j.k.k.k.k.).j.~.'.9 y.;XP.Y.Y.Y.Y.Y.Y.Y.Y.Y.Y.Y.Y.Y.P.Y.Y.oXoXY.XX6.d N.&XoXI.Y.Y.Y.Y.Y.Y.Y.Y.Y.Y.Y.Y.Y.Y.Y.Y.XXB.9 x.",
"j.k.k.k.k.k.).j.j.j.Q.h.[.D X.=XI.Y.Y.Y.Y.Y.Y.Y.Y.Y.Y.Y.Y.Y.Y.Y.Y.Y.Y.I.oXH.z N.XXoXY.oXoXY.Y.Y.L.Y.Y.Y.Y.Y.Y.Y.Y.Y.Y.Y.I.:Xj q.",
"j.k.k.k.k.b.j.~._._.^.[.E F ,XU.T.Y.Y.Y.Y.Y.Y.Y.Y.P.Y.Y.Y.Y.Y.Y.Y.Y.Y.Y.Y.I..X*XY.oXY.Y.Y.Y.Y.Y.Y.Y.Y.Y.Y.Y.Y.Y.Y.Y.Y.Y.I.=X@.F ",
"j.k.k.k.k.j._.f.*.*.g.w.m +XU.I.I.Y.Y.Y.Y.Y.Y.Y.Y.Y.Y.Y.Y.Y.Y.Y.Y.Y.Y.L.Y.Y.oXI.I.oXoXXXoXY.L.oXY.Y.Y.Y.Y.Y.Y.Y.Y.Y.Y.Y.P.*XA.i ",
"j.k.k.k.k.Q.-.* O . O . L @X=XU.Y.Y.Y.Y.Y.Y.Y.Y.P.Y.Y.Y.Y.Y.Y.Y.Y.L.oXoXY.I..X-X-X-XS.N.C.&X-XI.Y.Y.Y.Y.Y.Y.Y.Y.Y.Y.Y.Y.Y.U.;Xx ",
"j.k.k.k.k.~., . . .       - <.;XU.Y.Y.Y.Y.Y.Y.Y.Y.Y.Y.Y.Y.Y.Y.Y.L.Y.oXoXXX>X@X4.! f @ + # < $.=XI.I.Y.L.Y.Y.I.Y.L.Y.L.L.I.I.*Xo.",
"j.k.k.k.k.v., .             X V W.*XY.Y.Y.Y.Y.Y.Y.Y.P.Y.Y.Y.Y.Y.I.oX-X=XN.C : X             X ;.&XI.oXoXXX*XXX*XXX-X-X-X-X-X;XK.",
"Q.Q.Q.Q.~.}.J .             _ h i D.*XI.Y.Y.Y.Y.Y.Y.Y.Y.I.I.I.I..X=Xu.M # -                   < ,X=X+XE.S.N.m.5.%.O. . .C C A N ",
"h.~.Q.~.~.~.c.* .         $ 1X& X : Z.*XI.Y.Y.Y.Y.I.Y.Y.Y.oXXX;XB.N +   ~ q.                  @ B z s a s z x A A  .+.O.,.5.,.m.",
"j.Q.~.^.Q.(.c.3           _ 9.w & X - S.*XY.Y.Y.Y.Y.I.I.oX=XS.U @     o <X3 I ~             X k 4.7.C.H.U.*X*X*X-X;X-X-X*X*X;X*X",
"Q.).' ' _.!.9 0.F       o <Xq 1X&   X : E.T.I.Y.Y.Y.I.*X&X..# X       S s.  1Xw             + a.;XXXoXY.T.Y.I.Y.P.P.Y.Y.Y.Y.Y.P.",
"j.~.f.n E ( U ,X@Xi     9._ ~ _         V :XI.I.Y.I.=XZ.i             s.H 2 q.          X = 4.;XI.Y.I.I.Y.Y.Y.Y.Y.Y.T.Y.Y.Y.Y.I.",
"h.). X Xn ; #X.X.X@Xf X >.3 $ X       X X 1.=XI.XX*XN.=             & <Xo             X M Z.=XI.Y.I.Y.Y.I.I.Y.Y.Y.Y.Y.Y.Y.Y.Y.P.",
"Q.-.` { G Q =XoXoX.X&XC X                 < #X=XOXA.- X             _ q.  o         1 ;.-X.XY.Y.Y.L.Y.XX;X*XT.Y.Y.Y.Y.Y.Y.Y.I.P.",
"f.b E / 3 :.=XI.Y.I..X>Xu.k               X l V V <                 q.q         f ;.OX-XI.Y.Y.Y.XX-X-X6...z C.Y.Y.Y.Y.Y.Y.Y.Y.P.",
"Q.~. X3XG ! >XoXY.Y.I.U.-X=X4.k X X         Q ! _ M                     X + N 4.=X*XU.I.Y.Y.P.T.J.o.s a  .6.I.I.Y.Y.Y.Y.Y.Y.Y.P.",
"Q.~.g.n 4 F +XoXY.Y.Y.Y.I.I.&X=Xu.X.Q @ < F & ) I ; L % X   X X   # : M @.B.=X*XT.P.I.I.Y.Y.Y.oXC.| Z.,X>X-XU.T.Y.Y.Y.Y.Y.Y.P.P.",
"Q.~.n ' !.w B..XI.Y.Y.Y.Y.Y.I.oX-X>XX.C =X:XM 0.Q ! ,XK.N.4.4.4.6.S.OX=X-X*XU.I.T.Y.Y.Y.Y.Y.Y.I.U.m.4.3.m.S.-XT.Y.Y.Y.Y.Y.Y.Y.P.",
"Q.~.Q.^. XR L >XI.Y.Y.Y.Y.Y.Y.Y.oXH.u @X=XOX4X@ M ,X=X-XXX-X-XXX*XXXY.I.I.I.Y.Y.Y.Y.Y.Y.Y.Y.Y.T.K.| A N x s z G.T.Y.Y.Y.Y.Y.Y.P.",
"j.Q.Q.h.~.z.5 D..XI.I.Y.Y.Y.Y.oXI.*XN ..$X@XU k l B O.5.H.T.L.L.I.I.Y.Y.Y.Y.Y.Y.Y.Y.Y.Y.Y.Y.Y.Y.*XG.=X=X*XH.6.H.Y.P.Y.Y.Y.Y.Y.P.",
"j.Q.Q.Q.Q.]./ L :XI.Y.Y.Y.L.Y.Y.I..XK.x s > B $XK.$.C Z H.Y.Y.Y.Y.Y.Y.Y.Y.Y.Y.I.Y.Y.Y.Y.Y.Y.Y.Y.XX| d K.*XT.T.I.Y.Y.Y.Y.Y.Y.Y.P.",
"j.Q.Q.Q.~.~.{.t <.=XY.Y.Y.L.Y.Y.Y.Y.XX*XG.A o.=XU.*X-X*XT.Y.Y.Y.Y.Y.Y.Y.Y.Y.Y.Y.Y.Y.Y.Y.Y.Y.Y.Y.oXXXO.u 8.T.P.Y.Y.Y.Y.Y.Y.Y.Y.P.",
"j.j.Q.Q.Q.~.~.d.6 A.-XY.oXY.Y.Y.Y.Y.I.I.*XU.7.oXY.I.Y.Y.Y.Y.Y.Y.Y.Y.Y.Y.Y.Y.Y.Y.Y.Y.Y.Y.Y.Y.Y.Y.oXoX;X2.| *XY.Y.Y.Y.Y.Y.Y.Y.Y.P.",
"j.Q.Q.k.k.k.j._.w.0 +X.XI.I.I.Y.Y.Y.Y.Y.Y.T.T.Y.Y.Y.Y.Y.Y.Y.Y.Y.Y.Y.Y.Y.Y.L.Y.Y.Y.Y.Y.Y.Y.Y.Y.Y.Y.Y.I.XXoXY.Y.oXL.Y.Y.Y.Y.Y.Y.L.",
"j.j.k.k.k.k.k.h.|.E M :XU.Y.Y.Y.Y.Y.Y.Y.Y.Y.P.Y.Y.Y.Y.Y.L.Y.Y.Y.Y.Y.Y.Y.Y.Y.Y.Y.Y.Y.Y.Y.Y.Y.Y.Y.Y.Y.I.I.L.Y.oXY.Y.Y.Y.Y.Y.Y.Y.L.",
"j.k.k.k.k.k.k.k.h.[.H ) :XI.Y.Y.Y.Y.Y.Y.Y.Y.Y.Y.Y.Y.Y.Y.Y.Y.Y.Y.Y.Y.Y.L.Y.Y.Y.Y.Y.L.L.Y.Y.Y.Y.Y.Y.Y.Y.Y.Y.Y.Y.Y.Y.Y.Y.L.Y.Y.Y.L.",
"j.Q.k.k.k.k.k.k.j.b.{.r $.>XI.Y.Y.Y.Y.Y.Y.Y.Y.Y.Y.Y.Y.Y.Y.Y.Y.Y.Y.L.Y.Y.Y.Y.Y.Y.Y.Y.Y.Y.Y.Y.Y.Y.Y.Y.Y.Y.Y.Y.L.Y.Y.Y.Y.Y.Y.Y.Y.L.",
"j.k.k.k.k.k.k.k.Q.j.^.x.9 y.;XI.T.P.I.Y.Y.Y.Y.Y.Y.Y.Y.Y.Y.Y.L.Y.Y.Y.Y.Y.Y.Y.Y.Y.Y.Y.Y.Y.Y.Y.Y.Y.Y.Y.Y.Y.Y.L.Y.Y.Y.Y.Y.Y.Y.Y.Y.P.",
"j.k.k.k.k.k.k.k.j.Q.j.^.l.7 a.=XI.Y.Y.Y.Y.Y.Y.Y.Y.Y.Y.Y.Y.Y.Y.Y.Y.Y.Y.Y.Y.Y.Y.L.Y.Y.Y.Y.Y.Y.Y.Y.Y.Y.Y.Y.Y.Y.Y.Y.Y.Y.Y.Y.Y.Y.Y.P.",
"j.k.k.k.k.k.k.k.Q.j.Q.j./.i.5 a.;XP.T.Y.Y.Y.Y.Y.Y.Y.Y.Y.L.Y.Y.Y.Y.Y.Y.L.Y.Y.Y.Y.Y.Y.L.Y.L.Y.Y.Y.Y.Y.Y.Y.Y.Y.Y.Y.Y.Y.Y.Y.Y.Y.Y.P.",
"j.k.k.k.k.k.k.k.j.Q.Q.Q.j.[.p.2 y.:XI.Y.Y.Y.Y.Y.Y.Y.Y.Y.Y.Y.Y.Y.Y.Y.Y.Y.Y.Y.L.Y.Y.Y.Y.Y.Y.Y.Y.Y.Y.Y.Y.Y.Y.Y.Y.Y.Y.Y.Y.Y.Y.Y.Y.P.",
"j.Q.k.Q.k.k.k.k.Q.Q.k.k.Q.j./.d.w :.;XI.I.Y.T.Y.Y.L.oXY.Y.Y.L.L.Y.Y.Y.Y.Y.Y.Y.Y.Y.Y.Y.Y.Y.Y.Y.Y.Y.Y.Y.L.Y.Y.Y.Y.Y.Y.Y.Y.Y.Y.Y.P.",
"j.Q.k.Q.n.k.k.).k.k.b.).Q.Q.j./.z.r ! :XU.Y.Y.I.Y.oXL.oXoXL.oXoXY.Y.Y.Y.Y.Y.Y.Y.I.Y.Y.Y.Y.Y.Y.Y.Y.Y.Y.Y.Y.Y.Y.Y.Y.Y.Y.Y.Y.Y.I.Y.",
"j.j.k.j.j.j.j.j.j.k.j.j.j.j.Q.j.~.'.S I :XI.I.I.Y.Y.oXY.L.L.oXL.Y.L.Y.Y.Y.I.Y.I.oXI.Y.oXI.Y.I.I.Y.Y.I.I.I.Y.Y.Y.Y.Y.Y.I.I.I.I.P.",
"^.`._._._._._.`._._.`.`._._._._._.{.2XH @.;X*X-X-X-X-X-X-X-X-X-X-X-X-X-X-X-X-X-X-X-X.X-X-X-X-X-X-X-X-X-X-X-X-X-X*X*X-X-X-X-X-X-X",
"*.*.*.=.&.=.=.=.&.=.=.=.=.=.=.=.=.&.&.9.o ;.3.<.1.1.<.<.<.<.<.<.<.<.<.<.<.<.<.<.<.<.<.<.<.<.<.<.<.<.<.<.<.<.<.<.<.<.1.1.y.1.<.1.",
"T E R R ( ( R R R R R ( T T R R T ( ^ ( ~ Q Q U Q P P Q P U P P P P P P P P P P P U P P P P P P P P P P P P P P P P Y Y P P Y Y ",
"0X0X0X0X0X0X0X0X0X0X0X0X0X0X0X0X0X0X0X0XwXwXwXwXwXwXwXwXwXwXwXwXwXwXwXwXwXwXwXwXwXwXwXwXwXwXwXwXwXwXwXwXwXwXwXwXwXwXwXwXwXwXwXwX",
"6X6X6X6X6X6X6X6X6X6X6X6X6X6X6X6X6X5X6X6X6X6X6X6X5X6X5X5X5X5X5X6X6X5X6X6X6X6X6X6X5X6X5X6X5X5X6X6X6X6X6X6X6X6X6X6X6X6X6X5X5X6X5X5X"
};
