/* XPM */
static char *_666120774033[] = {
/* columns rows colors chars-per-pixel */
"64 64 247 2 ",
"   c #010101",
".  c #090606",
"X  c #0E0909",
"o  c #0A0907",
"O  c #130B0C",
"+  c #1B130D",
"@  c #1D0F12",
"#  c #271516",
"$  c #2C1813",
"%  c #392E17",
"&  c #391E25",
"*  c #2E1920",
"=  c #3D222E",
"-  c #52391E",
";  c #463419",
":  c #44232B",
">  c #563031",
",  c #633626",
"<  c #6D2933",
"1  c #692732",
"2  c #742A34",
"3  c #7C2C32",
"4  c #6B3337",
"5  c #733931",
"6  c #441F1E",
"7  c #574E22",
"8  c #684623",
"9  c #715429",
"0  c #5E441F",
"q  c #5A2F42",
"w  c #5C3245",
"e  c #783B4A",
"r  c #6F394E",
"t  c #5D4774",
"y  c #7B496F",
"u  c #76476E",
"i  c #634672",
"p  c #6B4772",
"a  c #664874",
"s  c #6C4975",
"d  c #6C4D7B",
"f  c #714772",
"g  c #744A74",
"h  c #7B4B74",
"j  c #734B7A",
"k  c #7A4C7B",
"l  c #7C4773",
"z  c #7B517E",
"x  c #75507E",
"c  c #67456F",
"v  c #79415A",
"b  c #832D34",
"n  c #8B2E35",
"m  c #892F38",
"M  c #952E33",
"N  c #8E3134",
"B  c #8B3038",
"V  c #943135",
"C  c #9B3235",
"Z  c #9A3439",
"A  c #85362F",
"S  c #A43435",
"D  c #AC3B3B",
"F  c #A83639",
"G  c #B33937",
"H  c #BB3A36",
"J  c #B43C3B",
"K  c #BB3D3A",
"L  c #B23636",
"P  c #C33D36",
"I  c #C23E3A",
"U  c #C83F37",
"Y  c #9C5736",
"T  c #8F4E34",
"R  c #BC423E",
"E  c #B8423B",
"W  c #B15C37",
"Q  c #956D2E",
"!  c #B06A38",
"~  c #C24136",
"^  c #CB4335",
"/  c #C4423C",
"(  c #CB433D",
")  c #CB4C3E",
"_  c #C54A3E",
"`  c #D34635",
"'  c #D64836",
"]  c #DB4C34",
"[  c #D2453A",
"{  c #DC5C3D",
"}  c #D7543B",
"|  c #C7563E",
" . c #E25332",
".. c #E45B3C",
"X. c #C7743F",
"o. c #E4653E",
"O. c #E7693D",
"+. c #EA6C3D",
"@. c #EA613F",
"#. c #ED733D",
"$. c #EC7A3E",
"%. c #F1753C",
"&. c #F37C3D",
"*. c #F2693F",
"=. c #8C444F",
"-. c #B74340",
";. c #B24C5B",
":. c #88496A",
">. c #984A67",
",. c #834C74",
"<. c #8C4E75",
"1. c #844D78",
"2. c #8B4E79",
"3. c #944E74",
"4. c #924F7A",
"5. c #9B4F75",
"6. c #84517C",
"7. c #8C517C",
"8. c #945075",
"9. c #9A5076",
"0. c #94527D",
"q. c #9C537C",
"w. c #9F506F",
"e. c #A44A65",
"r. c #AC5475",
"t. c #A3557C",
"y. c #AB557B",
"u. c #A85679",
"i. c #B35675",
"p. c #B65976",
"a. c #BB5974",
"s. c #B25679",
"d. c #B4597A",
"f. c #BC5878",
"g. c #AE546C",
"h. c #C54B41",
"j. c #CC4C41",
"k. c #C84640",
"l. c #D34D41",
"z. c #DA4D41",
"x. c #CE5241",
"c. c #D45342",
"v. c #DB5542",
"b. c #DD5B41",
"n. c #D65A43",
"m. c #C6535C",
"M. c #E45B41",
"N. c #E15442",
"B. c #DB6342",
"V. c #D07149",
"C. c #E36342",
"Z. c #EB6541",
"A. c #EB6A41",
"S. c #E56A42",
"D. c #F36A44",
"F. c #EA7741",
"G. c #F97844",
"H. c #F27B5D",
"J. c #F1775F",
"K. c #E96E5C",
"L. c #C55B6E",
"P. c #CD5E6D",
"I. c #C55666",
"U. c #D15E68",
"Y. c #C35A71",
"T. c #CA5D73",
"R. c #D4616B",
"E. c #DB6468",
"W. c #D66377",
"Q. c #C9606C",
"!. c #E66B64",
"~. c #E56B67",
"^. c #ED7462",
"/. c #EB7069",
"(. c #F67867",
"). c #E66B71",
"_. c #F6736F",
"`. c #A98838",
"'. c #9A8D31",
"]. c #E8853E",
"[. c #F4833D",
"{. c #F58B3D",
"}. c #FA8C3C",
"|. c #F8833E",
" X c #F6933D",
".X c #F9953C",
"XX c #FA9B3C",
"oX c #F7983D",
"OX c #E5953E",
"+X c #C9B73B",
"@X c #FBA33C",
"#X c #FDAB3C",
"$X c #FCAC36",
"%X c #FBB33A",
"&X c #FCBC3A",
"*X c #FABA38",
"=X c #E7AF3D",
"-X c #C99F39",
";X c #FBC738",
":X c #FCD439",
">X c #FBDB3A",
",X c #FEE33C",
"<X c #FFF13E",
"1X c #DDC23D",
"2X c #DB9546",
"3X c #FD8D45",
"4X c #FC8D4A",
"5X c #F88643",
"6X c #FD9D44",
"7X c #FC934B",
"8X c #FD9B4B",
"9X c #FB9345",
"0X c #F7885A",
"qX c #FC9C54",
"wX c #FB9458",
"eX c #E89148",
"rX c #FDAB45",
"tX c #FEA34C",
"yX c #FEAB49",
"uX c #FCA646",
"iX c #FCB645",
"pX c #FDBB45",
"aX c #FDB44C",
"sX c #FDBB4A",
"dX c #F4B541",
"fX c #FDA354",
"gX c #FCAC51",
"hX c #FCB351",
"jX c #E8AA47",
"kX c #F98363",
"lX c #D6A944",
"zX c #FDC346",
"xX c #FEC44A",
"cX c #FDC949",
"vX c #FFCB41",
"bX c #F9CE47",
"nX c #FEF442",
"mX c #FFE241",
"MX c #755181",
"NX c #724F81",
"BX c #835181",
"VX c #895180",
"CX c #955481",
"ZX c #9B5581",
"AX c #814F80",
"SX c #A45781",
"DX c #B65C85",
/* pixels */
"NXNXt NXd NXd d d d d d p d g g g g k g g l k f j f f j g g g g k h g g j j d j j p d a i a a a a t NXt t t i i t i t t t t t t ",
"d NXt NXNXd d a d d d s p p d g g h h h 1.k k j g j j g g g y g k k k k k h j j j j j j NXa a p a a t t t t i i i i i i i t t t ",
"NXNXNXNXj j j d s g d s d s g g g h 1.h l 1.g l k h g l h h h 1.1.1.1.1.z h k k g g j j d d p s d a t t i i a a a i i i i i t i ",
"NXNXd NXNXd k j j d g d g g j g h ,.h 1.1.1.,.,.h h k k h h 1.,.,.1.,.1.1.1.h 1.k k j j s j d s p a a i a a a p a a i i t i i c ",
"NXNXMXx MXz z k x j j j j x g h k 1.6.1.6.1.1.1.1.,.k 1.6.1.1.1.2.2.2.2.,.1.1.,.,.k l g j j j j j s g p p p p a i p a a c i c i ",
"NXNXMXx z z MXz k k z x k x 6.z 1.1.2.2.6.6.7.6.2.6.2.2.6.,.<.<.2.4.4.2.<.<.1.,.,.,.g k k f j g g g p p p p c p a p a a i c i c ",
"d x x BXMXBXBXBXz MX6.z z 6.1.1.7.7.7.7.0.7.7.7.7.7.7.6.0.7.4.7.2.4.0.<.4.2.,.,.,.,.,.,.l k g l g g f f f p p c p i a a i a i i ",
"x MXMX6.6.VXBXBXAXBXMXBXBX6.7.7.7.0.0.0.7.0.CXCXCX0.CX0.0.0.0.0.0.0.4.4.4.2.2.<.2.,.,.,.,.l l l g g g g g f p p p p p a a p i p ",
"6.6.6.6.BX7.7.7.VX6.6.7.VX7.7.0.4.ZXZXCXZXCXCXCX0.CXZXZXCXCXq.0.ZX4.4.CX4.4.4.2.2.2.2.<.2.,.,.l g y u g g u u s p p c p c s c c ",
"6.6.7.CX0.0.CX0.7.0.7.0.0.0.0.CXZXZXZXZXZXZXZXZXZXZXZXq.t.SXt.SXSXq.4.q.0.4.4.4.4.4.2.4.<.2.,.,.h y h y u g u u u f u s s p g s ",
"7.CX0.0.CXCXZXCX0.q.0.4.0.q.ZXZXZXSXSXSXSXSXZXq.t.t.t.t.t.t.t.t.t.SXt.q.q.0.q.q.4.4.4.4.4.4.2.,.,.,.,.h y l y y u u p s p g s p ",
"7.7.ZXZXq.q.q.q.q.q.q.q.ZXZXq.t.SXt.SXSXSXSXt.q.t.t.t.SXy.y.y.y.SXy.y.t.t.q.9.9.q.9.4.4.4.4.4.4.<.<.,.,.h h h y l l u y y u u u ",
"CXq.q.q.t.q.u.t.u.t.t.t.t.t.q.t.t.t.SXSXSXDXDXDXSXt.y.u.y.y.s.s.s.s.s.r.5.y.SXSX9.9.5.4.4.q.4.4.0.4.,.<.,.,.y ,.,.y y y y y u g ",
"0.q.q.t.y.y.y.y.y.y.t.u.t.t.t.t.t.y.y.DXq.q > v DXy.y.y.y.s.s.d.s.i.s.r.r.DX:.e 5.SX5.5.4.5.4.5.4.<.<.<.1.,.,.,.,.,.h :.y y y y ",
"q.t.u.u.y.y.y.s.r.r.y.y.y.y.u.y.y.SXDXr .       = t.DXd.s.d.i.i.s.i.i.s.r.:     O r u.SX5.9.9.5.9.8.8.<.4.<.<.<.,.,.,.,.,.y y y ",
"u.u.u.d.y.s.d.d.d.d.d.i.r.y.r.r.s.DXw     .       O q w.f.s.i.i.i.i.Y.>.@ .         # v s.y.q.5.w.8.8.8.3.<.2.<.<.<.,.,.,.,.y y ",
"r.p.r.p.p.p.p.d.a.i.a.i.i.i.y.DXg.&                   . > r.s.i.d.s.q .                 & :.s.u.8.9.8.8.8.8.<.<.<.<.,.,.,.h y y ",
"p.p.p.p.p.p.p.a.f.f.a.a.i.Y.Y.e O                         * s.d.w.#                         : >.y.t.8.8.8.8.8.8.<.<.<.,.,.:.y y ",
"a.p.a.a.a.a.a.a.a.Y.a.Y.T.>.&                               e >.X                             X > 8.SXt.9.8.3.3.<.<.<.,.,.,.y y ",
"Y.Y.Q.a.L.a.Y.Y.Y.Y.W.g.: .                                 O O                                   . : :.t.9.3.3.8.:.:.1.,.y :.y ",
"Y.T.T.L.Q.L.L.T.L.W.=.O                                                                               . w SXq.<.3.3.<.,.:.y y y ",
"P.P.P.W.P.P.P.P.W.e .                                                                                     & >.q.:.3.:.:.:.:.:.:.",
"U.R.U.E.R.U.P.).4                                                           .                               @ :.y.>.>.>.:.:.:.:.",
"E.E.U.!.E.U.).4                                                                                               X r r.e.>.>.>.>.=.",
"~.~.~.~.!._.2                           . o   . +                     > =.r r & X                                 : e.g.e.e.>.e.",
"~.~.!.!._.e     .                       % Q.g.Q.).=.X               > W.W.W.W.T.;.e #                               @ =.I.;.;.;.",
"^.^.!._.9 .                           > ).).).).)._.E.5 o     o   & E.R.P.T.T.Y.T.W.U.=.@ .                           . 3 I.;.;.",
"J.(.(.T   .                       O U._./.~./.)./././._.Q.#     + U.).E.E.U.P.W.U.U.U.E.T.&                             . 6 m.m.",
"H.0X=..   .                       , kX^.(./.~.^.(.(./.~.(.E.> & m.(.!.~.~.!.E.E.E.E.E.E.~.U.@                           . . @ -.",
"wXY                               V.kXkXkXkXkXkXkXkXkXkX^.kX(.(.(.^.J.K.^.~.!.!.!.K.!.!.E./.4   .                             . ",
"!                               $ wXwXkXwXkXwX0XwXwXwX0XwX0XkXkX0XH.H.0XH.H.H.H.J.J.J.J.K.H.T                                   ",
"                                $ fXqXqXqXqXfXfXfXfXfXfXfXqXeXwXwXqXwXwXwXwXwX0X0X4X0X0X5X0XT   .                               ",
"                            .   X lXhXgXgXgXgXhXhXhXhXhXhXgXgXyXtXfXfXtXfXqX8XqX8XqX7X7X7XwX-                                   ",
"                                  ! xXaXhXsXsXsXxXxXxXxXxXxXsXaXaXaXiXiXaXyXyXyXyXtXtXtXtXeXO                                   ",
"                                  7 cXxXcXxXxXcXcXcXcXcXcXcXcXzXzXzXpXpXpXpXpXiXiXiXiXrXsXQ                                     ",
"                                  . lXxXzXxXcXcXcXcXcXzXcXzXzXzXzXzXzXpXpXpXpXpX&XpXiXzXjX+                                     ",
"                                    - xXiXiXsXsXsXaXsXsXsXsXsXsXsXpXsXpXpXpXpXpXiXdXzXjX%   .                                   ",
"                                    . , jXiXyXuXjXrXyXyXyXrXrXrXuXyXrXrXyXrXrX#XiXpX`.+                                         ",
"                                    .   + T eXfXtX8X8X6X8X6X6X8X8X6X8X6X6X6XuXyX2X-                                             ",
"                                            o , X.8X8X7X9X7X7X7X4X4X7X5XeX8X]., .                                               ",
"                                                  % Y 9X8X4X3X4X4X4X5X0XeX-       .         .   .     .       .                 ",
"                            . . .                     + ! 8X7X3X5X5X7XY O     .                       .     .   .               ",
"                      .                 .                 8 fX9X9X7X8   o       .         . ; T Y Y 5 $ .             . . .     ",
"            .           X ; 8 8 8 ; +         . o           - aXaX9 . .             o - Q ].6X7X3X3X3X5XF.W Y 5 , , A | | +     ",
"      .   .     . o % Y OXrXiXpXpX&X=X-XQ ; o             .   9 `.              % Q =XzX&X%XXXoX.X}.5X5X5XG.G.G.G.D.D.D.D.B.#   ",
".   $ ! ! Y Y Y ! ].XXrX@X$X#X%X*X;X;X:X,X,XbX'.% o     .       o           ; -X>X,X;X&X*X%X$X@X.X.X}.}.[.&.G.O.C.C.C.C.o.D.B.6 ",
"  + X.9X3X6X@XXX6XXXXXXX@X#X%X&X;X;X;X:X>X>X,X<XnX+X7 o             .   + '.mX>X:X;X;X;X&X#X$XXX.X}.}.[.G.#.A.Z.M.C.C.o.A.Z.+.Z.",
"O X.3X}.}..XoX.XoX.XXXXXuX#X%X&X&X;X:X:X>X>X>X>X<X<XnX1X%   .     .   % 1X,X:X:X;X;X;X&X#X$XXX.X.X}.|.&.G.A.S.Z.C.C.C.S.A.%.+.+.",
"! 3X}.}..X.XoX6X.XoXXXXX@X$X#X%X*X&X;X;X;X:X:X:X:XbX>X,XmX9         % ;X;X;X;X&X*X%X$X$X$XXX.X.X}.}.&.&.%.#.+.+.o.o.O.+.#.%.%.%.",
"5X&.5X5XeX X.X.X.X.XoX9X.XXX@X@X#X%X%X%X*X*X&X&XpX&X;X;X;XvXQ 0 Q - =X&X%X%X#X$X$X@X@XXX.X.X.X.X}.[.[.%.%.#.#.+.+.+.+.+.%.%.%.%.",
"+.$.$.F.5X$.F.5X5X[.].{.{.{. X X X XoXoX.XoXXXXX@XXX6X@X@XXXuX@X#X#XXXXXXXoX.X.X}.}.{.{.}.[.&.F.&.%.%.%.#.+.+.S.O.o.+.O.+.+.O.O.",
"B.B.B.B.B.S.B.S.S.S.S.S.F.S.#.F.#.F.$.G.G.&.F.|.F.[.[.5X|.|.|.&.&.[.[.&.[.%.&.&.%.#.#.#.+.+.S.A.O.o.o.o...o.{ o.{ ..{ { } { { } ",
"x.x.n.n.x.n.n.n.n.n.b.b.b.b.B.M.M.C.C.C.Z.Z.Z.Z.A.A.D.Z.D.*.D.*.D.Z.*.Z.M.Z.M.M.....M.b.N.v.v.n.} } c.} } x.c.) j.x._ | | E | ~ ",
"W R -.-.h.h.h.h.j.j.x.x.j.l.c.c.z.c.c.v.v.v.v.v.N.M.M.M.M...M.M.M.M.N.N.N.N.z.v.c.l.l.l.l.k.j.j._ _ _ R _ R -.-.R R E -.E E E E ",
"-.-.-.-.-.-.-.-.-.-./ -.-.k./ h.k.k.j.k.j.j.l.z.l.z.z.N.z.z.z.z.z.z.[ z.k.k.k.k.k.k.h.R k.-.R K E E E E J -.D D D D E F D F T F ",
"D D F -.D -.D -.-.-.-.J R -.K -.-.k.R / / ( k.k.k.k.k.k.[ k.[ k.( ( I k./ I ( R K K -.K J J J L F D D F F F Z F Z Z Z Z V C V V ",
"D F D D D D D D D D J J J J K K K K / / R U / k.( ( ( [ U U U U I I I K K K K J H G G G L F F F F F S Z C M M M V B B B B B m b ",
"F D D D D D D D D J J J J R J K K K I K I / U U ( ( ( [ U P P U I I I H K L J L L L F F F F C C M N V N n n b b b b 3 3 2 2 2 2 ",
"G G J J G G J K K K K J K K R I U I U U / ^ ( ( [ ( [ U U U U P I H I H L H L L S L S S Z Z C M n B n b 3 3 3 3 2 2 2 < 1 4 1 1 ",
"E E H E H E H E J E K K I K I U / I U ^ ^ ^ ` [ [ [ [ [ U U U U I I H H I H J L L S S C C M M M n m b 3 3 3 3 1 2 < < < 1 1 1 1 ",
"E P H E H ~ E H K H H ~ I I / U U U ` U ' U ' ' U z.[ [ ] ` ` ` U U U U H P L L L L S S C M M M n n n b b 3 3 3 2 2 2 2 < < < 1 ",
"~ ~ ~ ~ ~ ~ ~ P ~ ~ ~ R ~ I ~ P U U ` ` ' ' ' U ] ] ] ] ] ] ` ` ] ` U U I I P P L L L S S S M M C M M M A A A b b b 3 3 3 3 3 2 ",
"~ ~ ~ ~ ~ E E ^ ^ E ~ ~ ~ ~ ^ ^ U ] U ] ] ] ]  . . . . . . .] ] ] ` ` U U U P P H H L L S S S S S C M C M M M N N N N N N b 3 3 ",
"~ E ~ ~ ~ ~ ~ ~ ~ ^ ~ ^ / ^ ^ ^ U ' ] U  . . . . . . . . . . .] ] ` ' ` ` U U P P P H L L L F F S S S S S C C C C C V V C N N N "
};
