/* XPM */
static char *a0a25cf3f7864832f07ac9c3e0e08eab7NZFDungfckVviya[] = {
/* columns rows colors chars-per-pixel */
"64 64 256 2 ",
"   c #1B4F33",
".  c #364836",
"X  c #2C4D32",
"o  c #186A35",
"O  c #35662F",
"+  c #2D590D",
"@  c #4E5814",
"#  c #6D6C0D",
"$  c #4F5331",
"%  c #6C5032",
"&  c #506830",
"*  c #756E33",
"=  c #655A1A",
"-  c #343856",
";  c #323172",
":  c #2D1D76",
">  c #573858",
",  c #6E3952",
"<  c #4C3570",
"1  c #643A66",
"2  c #6E3673",
"3  c #501B68",
"4  c #1A4F52",
"5  c #275848",
"6  c #274857",
"7  c #324D4D",
"8  c #117651",
"9  c #2B6A55",
"0  c #174E6C",
"q  c #284667",
"w  c #284977",
"e  c #374779",
"r  c #32526C",
"t  c #11756F",
"y  c #286A6E",
"u  c #504C55",
"i  c #6F4C51",
"p  c #72724D",
"a  c #4A4869",
"s  c #4E4B6E",
"d  c #704A6F",
"f  c #576874",
"g  c #756E6C",
"h  c #536C4D",
"j  c #603322",
"k  c #9B1A0C",
"l  c #BA0D07",
"z  c #A61804",
"x  c #BC120B",
"c  c #B71707",
"v  c #AA1A13",
"b  c #B81A12",
"n  c #AE0F0B",
"m  c #992A02",
"M  c #983014",
"N  c #A8251A",
"B  c #B12B0C",
"V  c #95342E",
"C  c #AA3329",
"Z  c #C50B06",
"A  c #CB0B05",
"S  c #C80A06",
"D  c #D40B02",
"F  c #C81509",
"G  c #DA1B02",
"H  c #D81605",
"J  c #CF1C12",
"K  c #E51902",
"L  c #EE1706",
"P  c #C6270C",
"I  c #DC2302",
"U  c #D82906",
"Y  c #DA3603",
"T  c #D92716",
"R  c #C82F11",
"E  c #E42402",
"W  c #EC2402",
"Q  c #E52A02",
"!  c #EB2C01",
"~  c #E6280B",
"^  c #F32A04",
"/  c #ED3400",
"(  c #E33B00",
")  c #E93802",
"_  c #F73906",
"`  c #E42816",
"'  c #EC3415",
"]  c #D92C26",
"[  c #D83228",
"{  c #D73936",
"}  c #CC3132",
"|  c #E5372C",
" . c #B1510B",
".. c #917113",
"X. c #B0730D",
"o. c #8C4E31",
"O. c #A84C32",
"+. c #8E7431",
"@. c #AB6F33",
"#. c #885912",
"$. c #DB4804",
"%. c #CE5507",
"&. c #E94701",
"*. c #F34401",
"=. c #F94605",
"-. c #E85806",
";. c #F45802",
":. c #F05A13",
">. c #D97515",
",. c #CB6E0E",
"<. c #F86703",
"1. c #FC7708",
"2. c #EA6E0F",
"3. c #D4413D",
"4. c #D95A2F",
"5. c #8A384F",
"6. c #8C3A68",
"7. c #AF3C51",
"8. c #CF3D45",
"9. c #904B52",
"0. c #B94949",
"q. c #B74859",
"w. c #A94B50",
"e. c #8F764F",
"r. c #AC7150",
"t. c #9A4669",
"y. c #984A77",
"u. c #904E6F",
"i. c #A7496A",
"p. c #B54B68",
"a. c #B0536F",
"s. c #8B7B67",
"d. c #8F796B",
"f. c #AE7A74",
"g. c #C94648",
"h. c #D64548",
"j. c #C64756",
"k. c #D25057",
"l. c #E24846",
"z. c #CB5768",
"x. c #CA6671",
"c. c #CD6D5F",
"v. c #179A17",
"b. c #388902",
"n. c #269908",
"m. c #369702",
"M. c #2A9511",
"N. c #1AA806",
"B. c #18B807",
"V. c #0DB312",
"C. c #28A705",
"Z. c #36A602",
"A. c #25B202",
"S. c #24A517",
"D. c #31B200",
"F. c #189826",
"G. c #079736",
"H. c #0F9233",
"J. c #239930",
"K. c #16B629",
"L. c #12AE32",
"P. c #21A927",
"I. c #498A00",
"U. c #588802",
"Y. c #459704",
"T. c #569603",
"R. c #669705",
"E. c #779607",
"W. c #718A08",
"Q. c #51A402",
"!. c #6CA503",
"~. c #788433",
"^. c #0CC114",
"/. c #10C22B",
"(. c #079647",
"). c #028756",
"_. c #108E4E",
"`. c #10AA4A",
"'. c #0B8B6F",
"]. c #1C915C",
"[. c #77854D",
"{. c #7C9063",
"}. c #8F910C",
"|. c #B09413",
" X c #8DA40C",
".X c #B1AA18",
"XX c #968737",
"oX c #AC8E34",
"OX c #D98817",
"+X c #CC9218",
"@X c #F99713",
"#X c #F18B12",
"$X c #D0A914",
"%X c #EAA815",
"&X c #CC9329",
"*X c #CEA929",
"=X c #E9B135",
"-X c #EA9C21",
";X c #918A4D",
":X c #B18D4E",
">X c #988468",
",X c #918573",
"<X c #AF8D6D",
"1X c #BCA264",
"2X c #B9A55E",
"3X c #C69649",
"4X c #C49A55",
"5X c #C58B43",
"6X c #C9A45A",
"7X c #D6B050",
"8X c #E5B847",
"9X c #C5A86A",
"0X c #CFB36D",
"qX c #C48170",
"wX c #163495",
"eX c #132E93",
"rX c #2D2B8B",
"tX c #0636AC",
"yX c #0239B6",
"uX c #142BA7",
"iX c #272DA8",
"pX c #4B338B",
"aX c #673B85",
"sX c #0E4E95",
"dX c #294985",
"fX c #2C4F8D",
"gX c #147590",
"hX c #2E728E",
"jX c #0B4DAF",
"kX c #0F6FB1",
"lX c #2F71AD",
"zX c #2A57AA",
"xX c #55478E",
"cX c #704D8F",
"vX c #537190",
"bX c #486FA7",
"nX c #6D5CA2",
"mX c #1771C8",
"MX c #1559C8",
"NX c #0933C7",
"BX c #9A5787",
"VX c #89508D",
"CX c #A95A89",
"ZX c #946590",
"AX c #B1628A",
"SX c #8D66AE",
"DX c #C06183",
"FX c #10858A",
"GX c #1487B4",
"HX c #2A85B6",
"JX c #2B8297",
"KX c #1684C1",
"LX c #4685A3",
"PX c #968C89",
"IX c #B0958E",
"UX c #C68D86",
/* pixels */
"8 o + # X.2.:._ ^ L A V u hXHXKXMXiX3 6.p.9.u 8 H.v.N.Z.U.W.X.X.,.+XX.}.U.C.B.V.G.).y s t.5.: iXMXmXlXi C G ~ ' _ _ =.2.OX|.# + ",
"  + +.+X>.&.^ L J J V u.vXlXlXjXwXrXVXBXi % 7 ].J.M.Y.E.}.X.X.%.%.%.X.X.}.U.m.S.P._.t r i u.aX< rXwXzXvX, C P I _ =.) $.%.+X.X}.",
"#.oX>.$.) W L H v o.f bXlXjXuXeX< BXcXa 7 8 J.M.U.}.&X%.$.Y U I Y Y Q $.Y X...T.S.L.(.].r d t.t.2 : wXzXbXd V B I _ =.*.( $.,.OX",
">.%.) ^ L K A C 6.cXbXkXjXeXrXcXZXd 7 9 ].J.m.W.}.,.$.E G H T T F J H K K Y  .X.R.m.P.H.8 9 , t.a.VXrXrXsXbXd 9.C R ` =._ _ ( -.",
") ) ^ L L F C d bXlXjXwX: aXSXZXe 4 ].J.J.M.}.X.4.U G G ] | l.h.k.8.} [ G D I Y X.W.m.P.J._.9 s u.i.6.2 rXwXzXnXd o.N U ~ _ _ / ",
"^ W D K } V d vXlXsXwXrXVXZXd 7 y ].P.M.I.W.X.%.I A ] { q.w.5.5., , 9.q.8.} J I P X.E.Y.S.`.8 y u 6.i.y.2 rXwXfXbXvX9.C B T ~ _ ",
"L K H C i vXbXzXwXrXd AXVXa 5 8 J.J.M.U.}.,.$.I Z } i.2 < e 6 q - ; rXrXaXy.} H I P  .}.Y.P.L._.9 q s y.i.i.2 : wXzXbXnXi C J ~ ",
"L T C 9.vXlXsXwXpXVXCX9.. 5 _.J.v.m.U...,.Y G Z } 7.1 ; ; q 7 7 9 q 0 dXrX< 6.8.` W U  .}.Q.S.P.`.'.y q , 9.y.2 : rXwXlXvXd V C ",
"R C g LXzXtXrX< BXa.u 5 o F.S.M.I.}.X.%.Y G H ] a.1 6 X % e.r.@.r.e.* . 6 ; rXVX} ` ^ U  .X.T.C.K.L.J.].9 u i t.i.6.3 rXsXbXvXa ",
"V d bXjXwXrXaXZXa.u 5 o S.M.m.W.|.>.$.T H J } p.1 q . p @. .m z z m  .e.7 4 dX; i.[ ~ W U %...R.Q.C.P.L._.9 7 i 9.p.y.aXrXeXzXlX",
"lXbXjXwX; VXCXu.. o J.F.M.U.}.OX2.Y G D T 8.a.d - . e.@.m z n x c c k O.:X@ q dX< i.} L ^ Q $. .}.E.Y.S.K.L.J.9 7 i t.a.6.3 wXMX",
"kXjXwXpXVXCXu.. o H.M.m.E.|.>.&.I D J { 8.t.< - . [.;X .N c F S Z F c z @.:XX 0 dX< p.{ ` ~ ^ ) $.X.}.R.Q.S.P.L.].7 i 5.CXy.rXrX",
"jXwX2 BXCXd . o F.S.Y.}.&X-.Y G K ] j.i.cX; 6 . * :X* <XC n S A Z Z Z z m 5X+.  dXfXpXi.8.T I ~ E U $.,.X.W.m.P.P.`.y s 1 y.y.3 ",
"iXpXCXa.i . 8 J.S.T.}.>.$.K H ] 8.p.u.< dXw   & oX#.<Xx.C F S A A Z Z c n  .:X& 4 dXdX< 6.q.} ] J K G U  .X.W.Y.D./.].].u , i.7.",
", CXBXa 7 8 F.M.U.}.>.Y E G [ j.cXs w 0 4 + = :Xo.r.qXO.b S S S H A S Z F z  .:X$   0 w e xXu.p.8.[ H I Q $. .}.Q.K./.`.'.r , t.",
"z.a.> 6 ].L.v.Y.|.>.Y E T { p., s r 0 4 O # &X .#.O.V v S A S J b c v b c c m  .XX[.h 4 q w e > , q.h.] H ~ $.,. XZ.B./.`.'.a d ",
"BX1 6 _.J.S.Y.}.>.Y I T g.i.a r X X @ # oX&X%.B x x F S S S F N 9.w.w.V k n n z M +.;Xs.~.& . 7 e < u.j.T D ~ $.X.E.D.V./.`.y dX",
"s 6 8 `.v.m.}.OX&.K T 8.t.> r 5 O XXoX&X,.B c F A A S A A b N r.UXIXIXUXw.k x b M O.e.* XX;X;X9 0 r > 6.h.~ K Q $.|.T.A./.`.'.sX",
"0 t G.V.m.E.OX-.I T 3.t.< q . * oX>. .B c F A A S S S S S n w.UXIXPXIXIXx.k b x k O.IXd.g p e.:X* $ q < q.| K E ( ,.}.Z.^.L.'.t ",
"t '.L.C.T.|.2.) K [ p.1 q 5 XXoX .m c F Z A A A S S S S A l V IXIX<Xd.f.C v x x v N f.d.PXPXr...oX;Xr 7 7.l.] H ! -.|.Q.^./.`.'.",
"H.(.V.m..XOX-.K H 8.VX< . ~.:XX.m N P A Z S S S S S S S S F b N N N v v x F l l n v N V V w.0.M  .5Xh 7 5.h.| K W $.+X!.A.^.`.).",
"G.L.n.R.+X2./ K ` j.pXq * oX+.@.r.N J D S Z Z S A A S Z A D A J F F A F A F l l l x x n N v k k c @.* . , j.l.K W &.,.E.A.^.`.(.",
"v.V.m. XOX;.E H ` q.xXq * oX% <XqXC J D D F Z F S A A S A D A A A A A D H A S l l x x x x b P c c  .e.. , p.l.` K ( ,. XA.^.`.`.",
"V.N.I..X>.&.K D ] w.e 0 +.oXe.9Xr.C F F F b v N b F A A A S A A A D J H A F F l l l Z n l x F F z O.[.X , i.l.K K ( ,.E.D.^.L.G.",
"V.N.I.|.>.) K D ] 7.; 0 * XX* qXC F H J M w.<Xd.V b F A A A D D D H ~ H J J J Z l Z x x x Z Z c z O.h 7 , p.{ ~ W ( X.E.D.^.`.G.",
"V.N.T.|.2.) K D ] q.; w X ;X% j B P J B w.IXIXIXf.V N b b J J P J J P c N v v b b b x F b F F R m +.h 6 , j.| W W &.X.E.A.^.`.(.",
"V.B.Y.|.2.) L D ` h.2 dX6 5 ;X+.#.m m M e.PXZXPXPXe.j N M M C N N N M O.IX<X9.M M v P F x P B m ..e.4 e 5.8.` W ^ $.X.R.^./.`.'.",
"V.S.Y.}.2./ L D H 8.i.1 6 6 $ * :X@.@.o.% $ $ % u i i 9.r.9.9.5.9.V o.9.d.PXIX>Xw.M B c c B B X.:X& q < q.| ` ! ^ %.}.Q.B./.'.'.",
"G.K.M.E.OX*.^ K D ] 8.q., < ; 6 7 h e.:XXX+.#.* = % p s.e.d.s.s.s.i % % % % % i e.o.m B  . .&X;X$ 6 ; d g.' ~ ^ ) %.E.C.^./.'.FX",
").(.S.I.|.2./ W D D ` { q.6.> - - . . @ * * XX+.oX#.e.<Xr.d.s.g g i +.+.p p p p p * r.@.:X:X* X 4 w 1 z.l.~ L ! $.X.T.B.^.K.'.kX",
"t ).H.M.W.+X%.' L D D J [ 8.0.7.9., , - - 6 X @ oX..:X<X<Xe.s.s.e.p :X= & p p ,X{.[.p u . 7 4 w ; 1 q.8.` ~ W Y ,.}.m.B.K.`.FXkX",
"w y H.F.Y.}.OX$.^ W K D D T T [ { 7.i.cXzX0 X }.@.@.2X:X:X:Xs.s.e.% +.@     . . . . X 7 - q xXpXd p.l.` W W ! $.+XR.B./.`.).gXfX",
"u.u 9 8 J.b.W.+X2.) W L K H H H J b C u.e q = XX..3X:X3X5X:Xe.s.g * oX= 6 w > > > > > 1 , 6.t.q.k.l.| ~ W W ( ,. XZ.^./.`.gXs cX",
"z.u.7 9 8 J.b.# X.>.-./ E W L K J J 8.9.7   +.X.oX4X5X5X5X:Xe.s.s.% oX+.4 rXcXu.y.t.i.p.j.k.h.| ' ` G W Q ( 2.*XQ.A.^.`.FXgXs u.",
"l.j.9.u 9 8 J.b.U.}.|.>.-.=.^ ^ H b i.i 7 & oX..4X3X3X5X5X5Xr.>X>X* ..+.5 6 1 i.7.} } } ] ] ` ` I E E ) -.OX*X!.D.^.`.).lXfXnXd ",
"q.c.q.9.u 9 8 H.M.b.U.|.1.:.^ W J } u.a   p +.oX4X3X3X3X5X3X:Xd.s.e.#.:XO 7 < u.} U A H G G I I Q ( &.2.+X.XR.D.^.K.`.FXdXzXnX3 ",
": 2 p.j.7.% 7 9 J.C.m.W.OX*./ K G g.1 q + ~.* :X4X4X3X3X4X4X5Xr.>X>Xo.+.p X e 2 j.T J E =.=.*.&.-.2.OX$XE.Q.B.B.L.(.gXgX; nXiXiX",
"uX: 6.j.8.0.i 5 H.V.n.E.OX&.! G T q.< q & * +.9X2X4X4X6X6X6X4Xr.r.>Xe.* ;X$ w xXq.[ T I =.:.1.OX$X.X X!.C.B.V.L.`.'.gXwXnXxXiXNX",
"tXeX: 6.g.g.i . F.N.b.|.2.&.I H [ w.; 0 & = :X1X9X4X1X9X9X9X6X:X>X>Xs.% ;X& 0 dX6.8.T E ~ :.OX|.Q.D.A.B.B.V.V.`.FXgX; nXnXiXNXNX",
"MXeX: 6.h.g.9.7 H.v.I..X2.) I T { w.q 4 & # 2X6X6X1X9X9X9X0X6X:X>X>Xd.e.+.* 4 dX1 q.[ ~ ! -.$X XC.B.B.^.^.K.(.).gXsXxXSXiXyXMXmX",
"mXsX: VXh.8.i 5 v.v.U..X-.' I T g.9.6 4 & XX2X7X6X6X9X1X0X9X0X:X>Xd.,Xd.% +.  y < y.{ ~ ! &.-X XB.^.V.V.L.).'.hXdXxXSXpXuXyXmXKX",
"kXsX: BXk.g.d 9 H.n.U.+X-.! U [ j., 4 5 @ oX2X7X7X7X6X0X0X0X0X9X:Xd.d.,X+.*   4 ; d { ~ ! &.+XE.N.V.V.G.).'.gXfXs SXxXrXNXmXHXJX",
"GXsX; BXk.g.a 9 H.n.# &X:.Q I } p.,   5 # oX7X7X7X7X7X0X1X0X0XIX>X,Xd.,X+.e.O   w d g.U ! ( #X XC.V.G.).FXhX< d CXcXiXtXkXlXf u ",
"KXsX; CXh.j.u t H.N.U.|.:.Q I } p.> X X * 7X7X8X7X8X0X0X0X0X0X0X>X,X,Xd.e.;X&   w 2 g.' ^ ( >.|.n.K.8 t gXxX6.CXVX: tXkXHXvXi O.",
"GXsX; CXk.j.f t G.n.U.&X-.Q I { q.>   O * 3X8X=X7X8X7X0X8X0X0X9X>X,XZX,Xe.;X~.  ; d g.` ^ ( 2. XC.V.).y u i.a.BX: tXkXHXvXi C Y ",
"mXsX: CXk.j.u t G.n.U.+X:.I G { p., 5 O ~.=X8X8X=X8X7X7X0X0X0X<X>X,X{.,Xe.e.&   w 1 g.` W ( OX}.n.L.'.w u.j.p.1 wXmXHXhXi V T ^ ",
"GXsX: VXk.g.s t G.n.U.&X2.Q I [ j.i 5 O # *X8X=X8X8X8X8X8X0X1Xd.<Xd.d.,X;XXXX 4 ; d j.I W &.OX XC.L.'.w w.z.aX; lXHXJXg C U Q _ ",
"GXkXrXVXk.O.s t G.N.# |.2./ I ] k., 4 5 XX}.8X=X=X=X8X8X8X6X:X>Xd.d.s.<X+.;X  0 e y.h.I ! $.+XE.n.(.'.e w.z.aXsXkXJXf 9.R ^ _ _ ",
"kXsXeXcXk.g.s '.H.S.I..X2.) I T h.9.q 4 [...&X=X=X=X%X=X3X:X>X>Xs.s.9XXXXX& 4 fX1 z.l.I / $.*XU.S.(.gXf q.z.rXjXGX].9.R U _ _ =.",
"GXkXeXaXz.0.u y H.P.b. X#X' Q ~ | q.< q O XX# &X=X=X=X8X2X<X<X<X<X9X+.XX~.  w e t.h.[ I ) 2. Xb.J.).hXs p.a.rXjXlXg C I ^ =.*.;.",
"GXjXtXrXz.0.d y 8 F.n.R.OX-./ K T g.d e X & ~.W.=X=X&X4X2X<X<X<Xr.#.XX*   q s y.k.[ I Q &.OXE.M.`.].r d x.t.rXkXvXu R W _ *.-.#X",
"GXkXtXrXa.0.d y 8 G.S.Y.$X<.) Q ~ { q.i r 4 X @ # oX2X>X>X,X>Xp +.2X[.X q s u.k.[ U ! ) 2.*XI.F.'.gXs VXAX2 eXzXvXV R _ =.*.#X@X",
"GXkXtXuX6.z.d s 8 (.K.m.|.#X&./ Q T 3.p.d e 0 4   + & & O + & ~.{.h 6 q s u.k.3.U I / -.*X Xn.L.FXhXi CXCX< sXlXg V Y _ *.1.@X%X",
"GXGXtXuX2 CXu.u y ).K.B.R.*X2.&.Q E T 3.a.d e 0 4 4       o X X X 7 e d a.k.| ) I / &.2..X# v.(.FXw u.DXVXeXjXLX9.C ' =.-.@X%X$X",
"FXGXyXuX: CXp., y t L.V.m. X-X<./ W U T 3.0.t.d e w fXdXdXw w r a d a.c.h.[ U Q _ *.<.-XE.n.`.'.hX; a.DXpXtXkXLX9.P _ &.<.%X$X|.",
"FXGXjXtXrXVXz.9.y t G.K.N.m.$X#X&./ / ) Q R 3.z.ZXVXcXvXnXxXxXcXy.x.l.| ` I E _ *.-.#X|.I.P.`.t hXd a.BXeXjXmXvXO.U =.&.#X%X.X# ",
"hXlXjXtXiXaXz.j.a t (.L.V.N.R.*X2.*._ ! W Q T [ { k.k.c.c.k.c.k.l.3.` U Q ! _ &.;.#X*XR.n.L.'.t s BXAX< wXmXHXf C ^ _ ;.@X%XoX+ ",
"9 vXkXtXuXpXx.z.i r 8 G./.B.m. X*X2.;.*./ / / ! Q / ~ ~ ' ' ' ~ Q ! ! ! _ =.;.1.@X$X}.b.F._.t w d AXVX: sXHXLXh R ^ _ <.@X*X~.+ ",
"i f lXyXyXrXBXz.i.u y 8 `./.N.n. X%X#X1.;.*./ / / ! ! ! ^ ^ / ! / ) *.*.=.<.1.#X%X Xm.P._.'.hX; a.DXpXeXkXHXvX9.R _ &.1.@X.Xo o ",
"o.i hXjXyXuX3 AXz.9.r t G.L.K.N.b. X$X%X#X<.;.=.*.) ) _ / / _ &.*.=.;.<.1.1.#X$X X+ v.(.t y a u.x.y.eXjXGXJXi O.Y _ &.#X%X}.  4 ",
"O.o.vXkXtXtXrXVXx.q.u r 8 8 (.G.N.n.!..X%X@X@X#X<.<.;.<.;.<.;.<.1.1.1.#X#X#X$XE.b.v.(.'.hXe t.z.CX< eXMXGXhX9.R / *.&.1.-XXX  0 ",
"~ C f hXjXtXtXrXAXz.u.u y t 8 G.G.v.C.Q. X$X$X%X%X@X#X#X@X@X@X#X#X#X#XOXOX|.# b.F.(.'.JXy g z.x.aXrXsXKXJXf M Y _ &.;.OX*X= 4 0 ",
"~ R % f kXjXNXuX< CXx.9.r y t t 8 G.v.N.D.Q.!..X$X$X%X%X%X%X%X$X$X$X.X XQ.+ n.H.).'.gXfXi z.x.BXrXtXkXGXvXu C ~ _ *.<.-XoXO 4 sX",
"^ T V u lXmXyXuXiX3 z.k.g y t gX'.).G.N.V.N.Q.Q.!.}. X.X+X$X$X$X+X}.W.I.m.v.H.H.t gXgXvXa.z.q.3 uXjXGXGXy % T _ _ *.1.-XoX+ t sX"
};
