/* XPM */
static char *_666121474477[] = {
/* columns rows colors chars-per-pixel */
"64 64 248 2 ",
"   c #2E1B11",
".  c #3B251A",
"X  c #333C1D",
"o  c #3A3223",
"O  c #462C1C",
"+  c #4A331D",
"@  c #54381D",
"#  c #452D23",
"$  c #4A3426",
"%  c #543A23",
"&  c #573B28",
"*  c #4B3B33",
"=  c #553C34",
"-  c #663C25",
";  c #3E492E",
":  c #36401D",
">  c #434A27",
",  c #5B4329",
"<  c #584337",
"1  c #4D5331",
"2  c #65482B",
"3  c #674937",
"4  c #734B3A",
"5  c #6B5336",
"6  c #765736",
"7  c #6F512D",
"8  c #596632",
"9  c #7A643D",
"0  c #67713A",
"q  c #585249",
"w  c #675648",
"e  c #765845",
"r  c #6A5C54",
"t  c #644C42",
"y  c #786544",
"u  c #786659",
"i  c #6D7451",
"p  c #7A7469",
"a  c #73706E",
"s  c #506561",
"d  c #385978",
"f  c #87593A",
"g  c #86633B",
"h  c #A1573A",
"j  c #8E5943",
"k  c #8A6848",
"l  c #897455",
"z  c #91734F",
"x  c #A57450",
"c  c #857768",
"v  c #89786F",
"b  c #7A8445",
"n  c #748256",
"m  c #78876B",
"M  c #798979",
"N  c #788D6E",
"B  c #7C863D",
"V  c #929354",
"C  c #A9885A",
"Z  c #B39358",
"A  c #898576",
"S  c #998A79",
"D  c #959779",
"F  c #8D906C",
"G  c #BA9968",
"H  c #A38777",
"J  c #A9956E",
"K  c #91A675",
"L  c #B2AA74",
"P  c #A9AC56",
"I  c #C39758",
"U  c #CBAD7C",
"Y  c #C5A876",
"T  c #CCB37C",
"R  c #D3B37D",
"E  c #C6AF69",
"W  c #D1C66A",
"Q  c #7E7B83",
"!  c #497299",
"~  c #36638C",
"^  c #847F86",
"/  c #7D918C",
"(  c #7CA5B1",
")  c #3F86C9",
"_  c #488CCB",
"`  c #4C91CE",
"'  c #5594CE",
"]  c #4E93D2",
"[  c #5295D3",
"{  c #5C9AD5",
"}  c #5899D5",
"|  c #4D8ECE",
" . c #639CD5",
".. c #689DD5",
"X. c #719FD1",
"o. c #6CA4DC",
"O. c #68A1D8",
"+. c #73A3D4",
"@. c #7BA5D4",
"#. c #73A5DB",
"$. c #7BA7D8",
"%. c #75A9DC",
"&. c #7BABDC",
"*. c #7DA9D6",
"=. c #7CABC9",
"-. c #7AACE0",
";. c #8A8887",
":. c #989588",
">. c #899896",
",. c #959599",
"<. c #8E8E89",
"1. c #A69988",
"2. c #AD9C8F",
"3. c #97A898",
"4. c #95A88F",
"5. c #A8A58A",
"6. c #B5A68A",
"7. c #ABA595",
"8. c #B6AA98",
"9. c #BCB49A",
"0. c #ADB691",
"q. c #909BA4",
"w. c #97A6A9",
"e. c #99B2A9",
"r. c #9BACB6",
"t. c #88BABD",
"y. c #8FAEB4",
"u. c #A9ABA6",
"i. c #A8B5A8",
"p. c #B8B5AA",
"a. c #A3ADB5",
"s. c #A8B8B8",
"d. c #BCBCB2",
"f. c #B7B9B4",
"g. c #B4AEA1",
"h. c #CDB383",
"j. c #CEB88B",
"k. c #D3B583",
"l. c #D5B985",
"z. c #D5BB8A",
"x. c #D9BC89",
"c. c #CBB38F",
"v. c #C3B9A7",
"b. c #C1BEB2",
"n. c #C4AEA1",
"m. c #BAC2B9",
"M. c #BAC5AD",
"N. c #AEC4AB",
"B. c #DDC28E",
"V. c #DDC493",
"C. c #D9C198",
"Z. c #CCC68C",
"A. c #E2C897",
"S. c #C4C1B4",
"D. c #C9C6BB",
"F. c #D4CBB9",
"G. c #DAD1BB",
"H. c #D1C4AB",
"J. c #E2D0B1",
"K. c #8CBDC3",
"L. c #86BAC2",
"P. c #94B5CB",
"I. c #98B9C9",
"U. c #83AAD5",
"Y. c #83ADDB",
"T. c #89ADD8",
"R. c #84B1DD",
"E. c #8CB3DC",
"W. c #8CB3D9",
"Q. c #92B5DC",
"!. c #95B9DE",
"~. c #9CBBDD",
"^. c #98B7DA",
"/. c #85ACC5",
"(. c #A7B9C5",
"). c #A3BDDB",
"_. c #AABDDC",
"`. c #B3BEC2",
"'. c #89B4E1",
"]. c #94BAE2",
"[. c #9CBCE1",
"{. c #93B6E1",
"}. c #A2BEE2",
"|. c #8CC1C2",
" X c #99C6C6",
".X c #A5C6C9",
"XX c #B7C6C9",
"oX c #A4C1DE",
"OX c #ACC3DD",
"+X c #ACC4D5",
"@X c #B2C5DD",
"#X c #B4CADD",
"$X c #BBCCDD",
"%X c #B7C9D4",
"&X c #BCD1DE",
"*X c #9EC1E3",
"=X c #A4C2E3",
"-X c #ACC4E2",
";X c #ACC9E4",
":X c #B4CBE3",
">X c #BBCDE3",
",X c #B4C8E4",
"<X c #B6D1E4",
"1X c #BCD3E4",
"2X c #BED3E9",
"3X c #C8CAC4",
"4X c #D4CDC1",
"5X c #D8D5C8",
"6X c #C1CEDA",
"7X c #C8D3DC",
"8X c #D9DBD6",
"9X c #CCD3CC",
"0X c #E4DCCD",
"qX c #E4DAC7",
"wX c #E2DED4",
"eX c #DAE6DF",
"rX c #EBE6DA",
"tX c #EDE9DD",
"yX c #E7E3D7",
"uX c #F1EADC",
"iX c #C2CEE2",
"pX c #C3D4E4",
"aX c #CAD6E4",
"sX c #CCD9E5",
"dX c #CDDAE9",
"fX c #C5D7E7",
"gX c #D3DCE5",
"hX c #D3DEE9",
"jX c #D8DEE6",
"kX c #D6E0E6",
"lX c #DBE3E5",
"zX c #DCE4EB",
"xX c #D8E3E9",
"cX c #DBE4F1",
"vX c #E2E6EC",
"bX c #E5E9EE",
"nX c #EAEBE8",
"mX c #F4EDE3",
"MX c #F3EFEA",
"NX c #F5F1E5",
"BX c #F6F3EB",
"VX c #F8F5ED",
"CX c #F8F1E7",
"ZX c #E5EAF0",
"AX c #EAEDF1",
"SX c #E0E7F1",
"DX c #EEF1F5",
"FX c #F4F5F6",
/* pixels */
"xXgXgXjXcXzXSXSXzX1XQ.X.U.Q.U.U.E.T.U.+.U.@.X...X.+.$.U.#.X.#........... .| _ | {.iXgXdXhXhXgXiXdX>X).~.Q.=X[ | | ) _ ) ~ d s d ",
"xXgXgXgXjXjXzXzXhXaXiX_.Q.T.X.U.Q.U.$.+.U.T.Y.Y.Y.Y.Y.Y.T.'.Y.X.....' { ' | | ' }.>X>XpXdXcXhXiXiX_.).T.*.E.[ | _ _ _ +.=.! ! ! ",
"jXgXgXgXgXgXjXgXpX$X,X_.^.T.U.U.T.U.U.U.Y.T.{.}.{.{.E.Y.+.U.$.#.$.{ ' ' | | | X.{.~.Q._.2XdXfX,X~.*.+...O. .] ] ] ] R.pXiX_.T.X.",
"gXaXgXgXaXiXaXaX$X,X).U.^._.^.T.T.Y.E.Q.T.{.}.}.}.}.{.$.......$.-. .| | ' | ) ' $.+.#.W.}.iX,X{.#._ | { O.%.=X;X;X;XgXaXgXjXaX}.",
"iXiXaX6X@X_.iX@X>XiX^.@.^.}.}.).).[.^.T.Q.Q.[.[.}.^.}.}.T.Y.X.#... .X.+._.T.|  .O.{ #.W.*XoX*Xo.| _ _ | #.fXDXFXDXvXvXZXSXZXzXhX",
"_._._._.@X@X-X)._.}.^.W.Q.^._.,X2X>X}.W.Q.!.{.).}.}.,XiX,X[.T.-...{.fXdX6X^.| { } [ O.*.R.&.] ] _ _ _ [ R.ZXFXFXAXbXDXFXAXvXlXvX",
"_.^.U.T._.@X^.U.T.U.@.@.Q.^.-X>X>XpX>X>X-X}.=X-X>X_.dXiX_.}.'.$...E.fXdX_.Y... .` ` ` } %.O.] ] ] ` ] } ,XDXFXFXDXAXFXFXDXjXzXAX",
"_.^.U.U.T.^.T.@.T.E.U.X.@.}.-X_.,XfXdXdXgXaX:XOX>XiXaXdXfX}.Y...[ ..}.}.#.X.{.^.&.` ` ` } ` ] } ] ] [ o.xXDXFXZXbXbXAXAXAXvXAXAX",
"^.T.U.U.^.,X^.T.E.Y.$.X.+.{.}.}.-X;X,X>X2X2X-X=X,X>X2XiX:X~.#.[ | #.E.%.o. .].*X&. .] ] } ] } } [ [ ] O.hXDXDXbXZXAXvXbXAXbXbXbX",
"U.T.T.Q.@X>X,X,X}.U.X.X.E.U.T.[.].Q.E.Q.[.}.=X=X=X=X[.[.E.#.{ ` | #.#.' } { o.{ [ ] ] [ ] ] } ] ] ] ] %.aXvXAXAXDXbXnXbXbXbXvXlX",
"_.@XOX_.iXfXpXaXsX,XQ.U.[.E.$.$.E.{.T.Y.{.[.[.[.[.}.,X}.Q.$.{ ] ` [  .} } { { { O.{ } [ } } [ ] ] [ [ %.aXzXnXAXbXbXbXbXvXlXjXjX",
"aXaXgXdXsXpX>XiX,X_.[.^.}.[.+.X.#.E.].Y.$.].{.E.{.2X>X}.E.R.o.{ [ } o.#.o.{ '.].'.-.O.} { { } } } } O.~.aXxXvXAXbXbXbXbXvXjXgX8X",
"aXjXjXgXaXdXpX>X>X,XfXkXjX-XX.$.&.&.U.&.&.T.E.Y.$.E.T.Y.+.{.[.*Xo.o.O.-.%.*X<X=XR.%.{ o.o.o.o.O.-.=X<XdXgXjXvXvXvXvXAXZXlXjXjXgX",
"7XaXjXjXzXzXxXjXSXvXvXSXZX>XQ.-X,X=XY.&.&.&.Y.&.#.o.%.&.R.=XfX-X'.-.-.R.-.'.'.&.o.%.o.o.o.o.-.-.fXZXZXcXgXgXjXlXvXnXAXnXlXlXvXbX",
"$XpXfXjXzXSXzXbXZXZXbXcXcXhX-X-X>X>X}.E.Y.Q.[.[.E.&.$.[.].{.].Y.#.#.%.'.-.%.o.-.-.%.o.o.o.%.*X2XcXbXZXzXjXgXgXjXvXbXAXbXnXAXDXDX",
",X>X6XpXkXvXbXvXAXbXvXvXvXjX>XiXpXpXaXfX:X-X-X,X}.&.%.Y.'.&.%.&.&.&.-.-.&.-.%.-.-.%.o.o.%.-.<XcXzXbXAXzX8XgXjXjXvXAXbXbXAXDXDXAX",
"$X>X$X$XgXjXSXZXZXvXzXzXcXaXdXhXgXhXvXjXaXpXiXpX,X{.Y.&.'.R.-.R.R.R.R.W.'.-.-.%.%.%.o.o.#.{.dXjXzXzXzXkXaXaXjXlXbXbXvXbXZXAXvXvX",
"@X@X$X>XiXgXjXvXvXzXxXjXgXaXdXzXxXSXAXSXcXhXaXfX,X}.].{.].{.'.'.~.~.!._.Y.-.-.%.-.-.-.Y.'.[.pXdXkXkXaXpX>X6X7XhXzXzXlXlXzXzXlXvX",
"U.~.OX-X$XiXpXgXhXgXsXsXaXaXaXjXzXAXAXAXZXSXxXdX,X-XfXdXdX-X[.-X6X6X%X3X!.R.'.R.'.=X=X].[.=X>XfXaXpX#XOXoX,X$X7XaXkXhXsXaXaXaXaX",
"$.!.OX,X>X,X,X>X6XiXiX$XpXaXgXxXbXAXAXZXbXbXZXcXdXcXZXcXdX2X;X,X:X3XJ.A.b.(.~.].].;X=X[.[.-X>XfX>XoX].E.~.-X+X#X&X6X&X6X6X@X$X$X",
"'.].~.~.^.{.}._.).).OX$X6XaXgXkXzXvXzXxXvXSXZXzXgXhXhXdXpX>X:X_.3XH.A.x.k.c.s._.*X=X=X*X*X*X;X;X*XE.R.R.{.!.~.oXoX+X+X#X@X+XOX).",
":XfX>X-X{.^.~.}.).~._.@X@X$XpXhXgXgXgXjXkXzXjXhXaXaXpX-X-XoX_.f.c.j.k.j.U U h.b.;X*X=X*X].*X[.[.].'.R.-.&.R.R.R.W.^.oX+X_.~.).^.",
"iXaXpX>XoXI.I.=X}.)._.@X$X%X7XxXjX8XsXaX7XaXpXsXaX,X>X-X[.+Xv.h.x.c.z.c.h.Y k.h.b.=X<X;X].].].].'.'.'.R.R.R.R.R.W.!.oX^.^.^.!.Q.",
"-X,X>X#X_.I.3.OX-X}.=XOX$XiXgXvXzXgXjXgXpXpXpXhXhXpX-X}.-XD.C.A.C.z.C.z.h.U h.z.Y v.pX<X;X=X=X=X=X*X*X*X].].!.E.!.W.W.W.R.R.R.Y.",
"~.oX-XOXy.e.K e. X;XOX:XaXzXzXbXzXjXzXzXhXsXdXgXfXsXhXdX7XC.V.A.C.V.A.A.x.k.U l.x.U c.3X>X,X;X;X=X=X=X}.=X;X-X=X*X*X~.].'.E.R.R.",
":X>X>X$X4.N K b N N.+X(.`.%XkXlXjXgXlXvXvXvXvXaX,X>XxXyXA.k.B.V.z.x.B.x.x.T Y R k.U Y k.3X,X,X>XfX,X=X;X2XfXdXpXOX#X-X~.].].R.*X",
"dXpXiX$X4.n V B 8 4.4.4./ y.s.%X7X7X7XgXgXjXlXgX,X%XG.A.T k.R x.h.T l.k.h.h.U U Y U k.R x.4XvXvXZXhX2XfXxXhXxXhXfX<X;X:X:X;X*X*X",
"hX7XaX7Xe.m B 8 8 P V M M >.>.a.%XpXaXsXgXjXvXZXjXG.V.k.T B.B.B.h.l.x.x.k.k.Y Y U k.l.Y Y k.J.gXxXhXxXkXkXjXkXzXcXxXhXhXdXfX&X<X",
"%X7XeXXX0.n 8 8 B V 0 i / 3.4.0.3XhXkXgXlXbXAXyXJ.l.h.h.x.V.B.B.A.B.x.x.x.x.k.U k.x.T Y U U k.J.jXSXjXjXgXjXzXbXvXvXvXzXkXhXdXaX",
"D i.9XXXK n 8 0 B 8 ; i D e.N.L D.7X7XkXkXlXqXC.h.Y h.x.V.V.B.B.B.A.B.A.A.x.B.l.h.k.z.Y k.h.R j.C.qXjXsXaXsXhXxXzXzXzXjXkXxXdXdX",
"y.w.4.N.4.i 1 ; > : : i M 0.N.0.Z.M.XX7X7XG.V.Y Y k.V.x.x.A.z.R R l.x.z.x.x.l.x.h.U U U Y h.h.h.k.z.5XaXiX$X$X7X7XaXpXaXfXpX>X>X",
"=Xs.0.L K V 0 : X : ; N 3.4.K i.XXN.XXpX5XB.h.U k.h.R R k.k.k.R E E k.R E G U Y Y Y Y L Y h.U h.h.l.V.F.aX6X$X$X>X>X#X>X,XiXfXsX",
"*X.Xe.K B 0 V 0 > ; q N V 4.+X#X>X1X>XD.h.G Y Y G E G Z C G G Z G z C C C y k z C z z z z V C L U U l.l.H.7X6XiXiX@X:X2XpXpXpX>X",
"I.+Xr.M 0 > 0 i B F K F K  X<X<X+Xs.n.J G G G C k z k 9 , z z 9 k 6 , 9 5 2 % @ + , 9 6 7 2 5 6 l k C Z Y H.6XiX@XoXOXOX@X+X@X:X",
"F >.>.>.i : X > i L L V e.+X.Xi.F J G C C J z z , + 6 5 2 9 9 6 3 5 % , 6 6 7 & . . , 2 7 f g 6 , % 3 6 k Y b.%XOX;X:X:X@X>X>XfX",
"D F i i i > o > F Y K V 0.4.K V V G C x 6 k 7 7 # @ 9 9 6 7 2 7 + , , % 6 7 7 7 2 O 7 g f 6 6 7 , # % , 2 g c.6X:X>X:X>X>XpXaXpX",
"7.:.:.p q 1 s m C 6.D V V N K 4.K C z 6 2 , , X , 2 2 6 7 6 7 2 @ 2 6 @ 6 g g f 7 @ + 2 2 , % % 3 e % + & 7 G 4XaXaXdXhXxXgXaXpX",
"7.3.u.3.F V F a l J J V D 4.3.u.c.z 7 2 , % + . % % , , @ , 2 @ O @ - @ 2 2 2 2 , , $ % @ + . O @ u u = - 4 C 4XzXxXhXsXaX>X>X1X",
"`.p.g.9.W W L L l l y J L s.XX%Xv.z 7 2 2 2 $ $ $ < % + < O O + O @ % @ , @ @ @ + @ % % @ % < r , c ,.u e k x D.fX1X<X:X<X:X:X:X",
"g.D L W W P L J 5 , 1 l J 0.7XpXb.1.v 6 6 c w w < q 5 t a < # # % < 2 @ , % < , , @ < & < e p ,.p p `.a.,.H 7.%X:X<X<X<X<X<X<X:X",
"J Y T Z.L P C V 9 5 7 y L K XX<X,X+Xa.>.v q.,.<.r r p a ;.a r w w / v & r u r a p u p a m ,.r.(.r.>. X<X+X%X%X&X<X<X<X%Xs.OX<X<X",
"E W G.D.L 0.F g e p 0 y V 9.%X2X<X:X:X+X(.a.%X(.,.;.r.;.r.r.a v ;.,.r.3 ,.r.q.w.(.(.a.(..X.X#X&X1X&X&X&X1X1X1X1X1X1XfX.XN i 4.e.",
"P L K m <.XX2.3 a a.p 0 i 6.S.sXxX1X1X1X:X:X>X>X#X(.(.s._._.q.,.(.r.a.w r.<X#X+XOX:X,X,X<X<X1X1X2XfXfXfXfXfXfXfXfXdXpXXX/ 8 8 8 ",
"Z.0.F A <..X:.y r.%Xi.F b D 9.XXdXdXdXfXfXpX1X>X1X1X:X#X,X,X#X%X#X#X(.t e.<X<X1X<X<X<X<X<X<X1X1X1X1XfX&XfXfXfXdXaXfXpX1Xr./ i ; ",
"0.F m w.q.s.:.J `.fX%Xs.F :.d.m.aXfX1X7XpX1X<X#X<X<X<X:X#X1X1X1X1X<X(.w a.pX1X2X1X1X1X<X1X1X1XfXfX1X1X1X1X1XfXfXfXfXfX&X.X>.a ; ",
"A F <.s.I.`.f.S `.&X1X%Xi.m.p.0.&X&X#X<X>X<X<X1X1X1X1X&X1X1X1X1XpX1X(.w a.fX2XfX1X1XfX1XfX1X&X1X1X1X&XfX1XfX1X7X7X1X1X1X#Xw.n ; ",
"4.0.i.+X#X<Xs.S .X2X<X&XXX&Xp.i.&X&X<X<X&X<X&X1X&X1X1X1X1XfXfXfXfX1Xs.k s.2XpX2XfX1XfXfX1X1XfXfX1XfX7X1X1X1X1X1X1X&X3.>.e.e./ ; ",
"0.s.I.oXoX;X(.2..X;X<X#X%X&X+Xm.&X1X:X#X<X#X#X<X:X<X<X<X<X1X>X2XpX1Xi.k f.2XpXpX2X2XfX&X1X1X&X&X1X1X1X1X1X&X<X<X<Xm.N >./ N / n ",
"3.( =.=.=.=.w.5.y.=.=./././.L.y.r./.( a Q Q Q ^ ^ ^ ,.,.,.,.P.^.I.I.,.C r.P.P.P.P.P.P.P.P.P.P.P. XI.I.^.^.P.P.P.P.y.>.( ( m 0 i ",
"t.t.t.t.L.L.s.0.t.=.|.|.|.|.K.K.t.t.w.q = * # = = = = = # * q.L.|.|.3.I e.|.|.|.t.L.t.|.t.q.<.^ A ;.;.;.;.;.<.;.;.y.K.K.K.y.N i ",
"L.L.t.L.|.K.N.6.e.|.|.|.|. X X X X X XM * . o = = * = # # . / .X.X Xe.G M. X X X|. X X X Xr e - - - O e 4 - - O 4 s. X X.X X X>.",
"t.t.t.t.t.t.N.6.e.|.t.|.I.t.t. Xt. XK.w.w . o = t = = = = $ s I. X.XN.I M. X X.X X X X X>.= 2 & = +   3 3 - . # A  X X.X X XN.|.",
"9X9X9X9X9XeX5XH.D.9XD.9XeXlXlXeXjXjXwXkXH * . = t = = < t t t 9XSXzX5XG J.DXnXyXrXlXbXeXp = 3 $ &   # 5 3 $ O j m.3XXXm.XXN.s.i.",
"BXBXNXNXNXNXNXNXNXBXBXBXVXVXVXVXVXFXVXVX2.t . * * * * * = 4 # u.8XeXrXZ J.FXVXBX8XwXwXD.< < 2 = . . 3 4 = . # v 5X5X5X5X4XD.m.m.",
"BXNXNXNXNXBXBXBXBXBXVXVXVXVXVXVXMXuXrX8X2.x j j j l j r e = # c :.g.H.k 8.5XwXD.<.,.u.a # # = #   # = $ .   p 1.F.rXtXyX5X3XD.3X",
"nXeXwX8X0XrXBXBXVXVXBXVXBXnXyXyXwXwX2.x j h x h j j j j e r v ;.w :.p.5 S p.p.4.u ,.v a q * 3 = = < = & # = t e v 8.D.wXtXyX5X4X",
"9X5X9X9X5X8X8XyXtXtXyX8X9X4X5X3X5X4Xk - j j j - = # # # & c S ;.3 S 7.6 1.S.v.p.p A D a r w e e t - 4 - 4 t - j = 4 j k D.MXuXwX",
"D.3X3X3X3X3X9X4XD.D.D.D.D.S.b.b.b.p.j 4 n.b.n.:.v r t $ # w r c 8.v.1.5 S yXrXuXH.u q * < < 6 3 = t e c H H H v H H v e n.MXMXMX",
"f.D.3Xd.f.d.f.f.m.f.f.f.p.d.S.4XF.D.j 4 v.v.b.D.p.p.v.r # p A v.G.H.1.w l v.F.J.G.v.A c S l 6 v 1.v :.2.D.wXrXmXmXmX0Xr 2.CXMXCX",
"f.f.f.u.p.f.p.p.i.p.p.S.5X5XwXtXrX0XS l 6.b.n.g.2.8.2.w $ A 7.7.8.8.6.7.8.8.9.8.v.9.n.5.<.p e 1.2.n.8.n.2.1.n.b.0XwXwXk 2.mXmXCX",
"u.u.u.u.u.f.u.p.f.S.5XyXrXnXmXmXyXG.S.g.g.p.p.8.g.8.8.7.1.8.g.8.8.g.p.H.v.9.n.v.H.F.F.G.n.v z 6.6.1.2.6.8.1.1.:.2.b.5Xl x mXmXmX",
"u.u.u.u.u.p.d.3X5XrXtXtXrXwX5XD.S.D.D.S.b.S.b.v.b.b.b.b.S.S.S.D.4XG.5X5X5X5XqX5XG.F.G.5XqXF.n.qX0X0X0X0XqXqXqXqX0X0XqX8.n.rXrXmX",
"u.u.f.u.g.d.D.0XrXyX5X3XD.S.S.d.S.S.S.b.b.b.b.b.b.S.D.D.F.4X5X5XwXyXtXrXrXrXrXrXuXrXrXrXyXrXuXuXCXuXCXNXuXmXuXuXuXuXmXuXuXmXuXmX",
"u.u.u.u.i.3X4X3XM.f.f.p.p.p.d.d.b.d.d.d.b.b.b.b.S.S.D.4X5X0X0XyXrXtXNXuXuXmXNXuXuXuXuXNXNXuXCXCXCXCXCXCXCXCXCXMXCXCXCXCXMXmXMXMX"
};
