/* XPM */
static char *_665160390429[] = {
/* columns rows colors chars-per-pixel */
"64 64 230 2 ",
"   c #00173D",
".  c #053253",
"X  c #004B5B",
"o  c #004857",
"O  c #02545E",
"+  c #05555C",
"@  c #034D63",
"#  c #054B64",
"$  c #035464",
"%  c #095464",
"&  c #035B65",
"*  c #0B5B65",
"=  c #04546A",
"-  c #0A566A",
";  c #055C6B",
":  c #0B5C6B",
">  c #115E65",
",  c #125E6C",
"<  c #12556A",
"1  c #0C5E70",
"2  c #075E71",
"3  c #215E74",
"4  c #0C6365",
"5  c #04636C",
"6  c #0C636D",
"7  c #0C696D",
"8  c #036266",
"9  c #106267",
"0  c #13646D",
"q  c #18646C",
"w  c #136A6D",
"e  c #1B6C6D",
"r  c #166866",
"t  c #0D6472",
"y  c #0D6B73",
"u  c #0D6C7A",
"i  c #066573",
"p  c #146572",
"a  c #196573",
"s  c #146C73",
"d  c #1B6C74",
"f  c #146D7A",
"g  c #1B6D7A",
"h  c #156578",
"j  c #0E7174",
"k  c #0D717A",
"l  c #147275",
"z  c #1B7375",
"x  c #14737A",
"c  c #1B747B",
"v  c #167A7D",
"b  c #1C7A7C",
"n  c #177877",
"m  c #22696E",
"M  c #226C74",
"N  c #256974",
"B  c #237275",
"V  c #247B76",
"C  c #22747B",
"Z  c #237B7D",
"A  c #2B7B7D",
"S  c #2A7677",
"D  c #337B7C",
"F  c #36797B",
"G  c #29716F",
"H  c #417B7C",
"J  c #1D807D",
"K  c #23817E",
"L  c #2B827E",
"P  c #32847E",
"I  c #40837C",
"U  c #1C7481",
"Y  c #1C7B82",
"T  c #157982",
"R  c #0B7380",
"E  c #237481",
"W  c #237C83",
"Q  c #2B7D83",
"!  c #257D8A",
"~  c #297B87",
"^  c #377E80",
"/  c #1E8184",
"(  c #1C818B",
")  c #1C8892",
"_  c #248384",
"`  c #2B8384",
"'  c #2C8986",
"]  c #25838A",
"[  c #2B848A",
"{  c #258A8C",
"}  c #2C8B8B",
"|  c #258A86",
" . c #338484",
".. c #3C8483",
"X. c #348A86",
"o. c #3A8A84",
"O. c #32858B",
"+. c #338C8C",
"@. c #3B8C8C",
"#. c #3B858A",
"$. c #2D918D",
"%. c #35918D",
"&. c #3C928D",
"*. c #2C8C92",
"=. c #298792",
"-. c #338C93",
";. c #3B8D93",
":. c #388D99",
">. c #2C9193",
",. c #2A949A",
"<. c #349394",
"1. c #3B9493",
"2. c #339895",
"3. c #3C9995",
"4. c #359599",
"5. c #3B959B",
"6. c #359A9C",
"7. c #3D9B9B",
"8. c #3EA19F",
"9. c #3C9DA2",
"0. c #3798A3",
"q. c #3DA1A3",
"w. c #3DA2AA",
"e. c #438482",
"r. c #458986",
"t. c #458C8B",
"y. c #4B8B88",
"u. c #44938D",
"i. c #4C938E",
"p. c #53928E",
"a. c #439592",
"s. c #4A9592",
"d. c #439A95",
"f. c #4B9B94",
"g. c #42959A",
"h. c #449C9C",
"j. c #4A9C9B",
"k. c #4C979D",
"l. c #549A94",
"z. c #5B9A95",
"x. c #5C9C99",
"c. c #559895",
"v. c #538989",
"b. c #619D96",
"n. c #639D99",
"m. c #44A19D",
"M. c #4CA29D",
"N. c #4EA094",
"B. c #53A49D",
"V. c #5CA39C",
"C. c #56A59A",
"Z. c #64A39C",
"A. c #6AA59E",
"S. c #439CA2",
"D. c #479CA4",
"F. c #559EA1",
"G. c #44A3A3",
"H. c #4BA4A4",
"J. c #4CA9A5",
"K. c #4AA5A8",
"L. c #4CABAB",
"P. c #44A8A9",
"I. c #52A5A2",
"U. c #54ABA5",
"Y. c #5AAAA5",
"T. c #53ACAB",
"R. c #5AAEAA",
"E. c #56A5AA",
"W. c #4EB2AE",
"Q. c #55B1AE",
"!. c #5BB2AC",
"~. c #5BB4AB",
"^. c #4DACB2",
"/. c #45A7B1",
"(. c #56AAB2",
"). c #4DB1B2",
"_. c #53B4B3",
"`. c #5BB4B4",
"'. c #5CB9B5",
"]. c #5CBBBB",
"[. c #57B8B8",
"{. c #6CA9A2",
"}. c #66AAA4",
"|. c #75AAA7",
" X c #63B4AC",
".X c #6AB5AD",
"XX c #7AB5AD",
"oX c #75B3AB",
"OX c #65B6B2",
"+X c #63BAB5",
"@X c #6BBBB4",
"#X c #63BDBA",
"$X c #6ABFBA",
"%X c #74BAB3",
"&X c #7BB8B3",
"*X c #5AC2BE",
"=X c #68C2BC",
"-X c #72C5BB",
";X c #78C3B7",
":X c #59BAC1",
">X c #61BEC2",
",X c #5DC6C2",
"<X c #64C3C2",
"1X c #6BC9C6",
"2X c #77CBC6",
"3X c #74D1CD",
"4X c #7BD4CC",
"5X c #78D6D4",
"6X c #83BAB4",
"7X c #87B8B6",
"8X c #80B3AE",
"9X c #88C3BB",
"0X c #94C1BF",
"qX c #8CCAC4",
"wX c #96CAC5",
"eX c #85D3CB",
"rX c #98D4CC",
"tX c #84DBD8",
"yX c #9ADBD3",
"uX c #A5D8D4",
"iX c #B2DEDC",
"pX c #A1CCC9",
"aX c #8AE2D9",
"sX c #98E5D9",
"dX c #A8E3DB",
"fX c #8FECEA",
"gX c #ADEAE2",
"hX c #B2EDEA",
"jX c #D6FEFD",
"kX c #C3F3EF",
/* pixels */
". . 3 ^ } | c +.h.OXC ;.G.*.*./.t U *.x f h t 2 f f @ ! 0.$ t -.5.! ; f S.1.c c L.L.t 0.>X:.c g [ _ ` _ X.m.1.Q @.E..Xu.N.N.;XsX",
"    . - } <._ ` z w [ [ _.y u U ! c x Y ! c 2 h U t @ U D.& h : : *.p t c ! c ! n :.:.0.].D.C 6 C c [ [ ' +.0 e 4 @.Y.m e G N.}.",
"  . - d T.+.T.c : : & [ H.[ 6 =.h i ! 6 O = t R t f ! [.>Xc t h $ h ^._ _ O.W x 0 : -.O.K.`.~ t g <.5.z ~ s s C Q B q N > G N.V ",
". h . D.C 4 3.;.a 0 E :.* D.=.Y x *.[ f ] =.Y Y ] D.9.K.7.W v ! d E 5.d 0 E (.E h : c [ g : E : l ;.s c E [ 4.g.X.e > + B a.o.+ ",
"g.h E : s K 7 4 @ , : g U 6 ! x W U t *.9.] k y t U ] x Y 4.<.<.: : % o @ - E g.[ c c *.c : 0 D.E.O.;.b 0 d O.Z Z @.@.A &.e > % ",
"-.:.:.$ S.K.K.;.~ (.! $ ] t -.c x ! 5.+.b q.w.( i = | / T 4.].7.[ :.~ h : % o 0 S.h.;.! ! :X:.O.Q <.R.H.[ W C Z Z #.P ^ A 0 N X ",
"= ! c W f c ] s : ~ h t ; U 5.5._ x _ d.P.$.T T T T _.q.^.L.[ : p d Q g.;.c E W O.Z ` 5.9.L.f g 0 r O.H. .e Q A e ` q S ;.$ p : ",
"f ! $ ! g c ! O : : ; ; t c L.P.x l 7.5X<X{ ( ( ,.6.>.%.<.8 f c % $ o w ` Z b O.<.W ~ :.K.E h E C C A R.O.w W C C % % a ~ #.g.M ",
"/ f T T *.3X<X[.4.x f ,.5.H.1X=X/ v v j 5 v ] ^.1X^.<.1.y c ~ c C w 9 r r P 3.l r * p 4 _ c t c } [ 1.;.0 p d 6 : % , - > B I.j.",
"] ] f ,.q.)./.5X>.u f ,.*.b K b 8./ >./ / x *.| 7 -.=.5 x U U s z W +.H.C.L U.&.2.K : 6 S.:.* f c W S.t : g E ~ : - p h a B P G ",
"=.c R 0.,.,.k w.( y 5 ; 5 & | J.8.j ,X8.( T q.5 5 ] ! 6 f f p t s ~ h.=Xm.K &.m.+.z c d } K.*.: @ E g p p : p 5.;.: , p 6 d Q 9 ",
"*.; k k ) ) 5 ) w.y u =.=.] 6.>.>.q.*X{ y y ).T i 0.=.y s ! g 1 t s K K P 8.N.m.} c ' W w s :.! g a o E : , p 4 -.E p c g ~ Z a ",
"! f f & k T { :X1X6.*.T j v j k | [.6.| T j q.v 5 ( ! ; 5 f 2 ; ; 7 6 l m.M.m.2._ <.Q d z c ~ T.(.: O.[ O.`.;.O * D.E.(.T.;.s +.",
"*.*.4.4.>.=.[./.| >.*.{ *.=.*.*.[ W [ *.6.q.6.v ,./.Y y ] f $ h U c s <.G.m.J.} n _ W & & -.<.w [ Q g.1.X.+.h.O.C 6 $ r p w W ` ",
"f f E ! Y v v k v T *.S.*.*.] h 1 - ; s ( 6.9.P.1X3X].1XP._ ] S.:.x W <./ J +.' n ] [ * z T.[ g : ~ `.%._ _ H.G.4.d s C C  .O.a ",
"2 2 t 6 4.{ v >.y y n y y t ; ; ; ; ; 5 7 P.{ | | _ <.,X)._ x 6 t [ 7.<.6.2.2.8.4.Y W } 1.W | 4 * s R.%.+.<.h.Z e [ h.~ C g M z ",
"= @ = ; *.G.7.>.5 y Y / k k u u 2 ; ; ; <.9.5 k } } x 8 | <XW t W -.C & z ! [ 7.7.} ! c 6 4 [ Z % a 5.c Q +.C E.`.h.d : > % > D.",
"- = 1 u f Y q.].x v { =.v k T k T T x 0.^.Y f x / 6.*.j y ! T.| * f g $ $ 7 7 c b n s 0 Z Z b +.s : ~ w O * C 1.` %.5.p * * ` +.",
"t U 1 = $ x / P.,.v S.P./ T u k Y ( 9.=.; 2 u U } P.P.] Z ; } =X-.6 c h ; h h _ _ c n _ } H.J.n 4 $ ' w w 5.O.: 4 Z E.`.g.` g.Z ",
"h U = . ; U 5 { =.7 t ] P.,.v T ,.0.x ; t 2 t u u c | 5 6 6 Z #X5Xc & 6 6 6 E Y n c _ %.b } J.1.z ! h.`.(.S.s = p } Z  .S.#X`.z ",
"; ; U x 0.w.q.w.T ; = $ v [.6.4.] ; $ 1 h h u h y u ( t 5 t W 7.*XG.} 1.5.$.| | _ / %.| z s } G.c 6 *.D.` ~ ~ c ! 1.d 0 > d E.;.",
"t t [ v T :X5Xq.Y i = = ; { >.).c ; t t t t t t f x | x & 6 l _ 3.~.=X1X[.=XL.G.*.$.J.} l W } b w z 1.4 * W 5.[ 1.:.% , d 0 q @.",
"f ] *.i k w.fXw.) u i i 5 ] { G.U 2 = = , d a a s c >.v { S.L.H.G.2.| _ b j | G.} b 8.J.| [ Y s t 4.5.* : a *.d 0 g.~ d 0 p a g ",
"x ] w.w.,X,X*X,X4.y u i 5 =.9.6.$ ; 1 1 p ;. Xj.X._ L.[.q.J.} l e b n _ q._ y Y b %.'.' Z l y h 5 -.~ * % d N X o 9 ;.`.5.d M w ",
"Y T l v x 7 j q.)./ J ( w.>.>.*X*.s ; 6 C 1.F.s.;.G.#X1.b <.t 6 l b c 4 4.6.s { v _ 7.n l Y W n 7 9.C $ # E M X @ M Z ;.5XH.s f ",
"/ / 2.Y y l x $.8.) v q.q.j b l <.G.*.x ~ a. . .' +.X.b <.b & ; h c s 6 W 9.6 v n ' 3.z s b b } ].H.p : $ E h % : d A Z j.fXD._ ",
").>.L.| Y y v >./ j / ).x i *.b 7 l [ K.(.H.J.<.b _ } 8.6.6 h p l _ c 5 8 <.7.2.8.m.1.n b { %.7.H._ ! c g W p - d Q ` } g.j.D.H.",
"*X| L.<.b k y ] k j ,.{ x 9.6.] *.] x Y Z z | ].2.2.q.<.c h t f Y *.4.*.! c :X7.3.3.7.2.%.3.2.} b l v Y -.E 0 : M -.O.1.C * > B ",
"_.J J.$.| v k *.q./ Y v *.[ ; = : p f ] c O & *.[.$._ ; $ @ # : p 7 c ` } T.<.8 j b l b J J K $.v l c v q.n p s c ~ h.W : 0 p d ",
"$.W.2.l n v x x { 2.j / v ; @ # # @ $ y 9._ / q.m.*XY & @ # % < C +.~ w z %.L.7 J 2.` _ 8.8.8.$._ <.7.1X(.v c h c K.O.d g a a a ",
"n 8.n j x n x s k q.q.9.W $ @ # # @ ; -.K.J.L.=X2.2.P.s @ # < N #.t.1.@.Z b U.4XaXL.} %.J.*XJ.$.8.L.m.=X1X<.Y b h.~ p C g h a h ",
"W.3XW.J.<.Y U u 7 { 5XL.s : = - # @ y ^.b J / b J J 2.<.- X C k.#.@.t.O.} w K U.B.3.K n n n K 8.P.J K 8.=X3X>X(.+.0 p , A A E M ",
"| J.1X3X3X' j k n y { 4.s W h = @ 6 l _.| / _ b l 4 [ T.Y ; C ~ #.;.C p 6 c } l _ +.Y v ! z n L.W.2.} } ' <.Q.<XA l q z O.a.#. .",
"' $.4X2XJ.[.[.q.! 8 b $.v y t y t t 4.).| { Y 2._ z l 1.].h.` b Z w $ ; C E 6 6 s } | l n b l #X=X| n _ J b X.#X'.` C @.f.R.Y.I.",
"$.} 1.W s z G.1XJ.<.]._.Q.P.T i k *.P.{ 2./ j <._ +.+.H.#X`.'.#X_ j / [ h , - : 6 U } J | -.G.S.Z G.h.1.%.' m.%.1.%.A &.Y.B.a.1.",
"| Z 4 : t t e 1.3X_.J.} } [.1X^.q.2.n / $./ ).5XP.S.5.' c 0 w H.1X1XL.s - $ : - : 7 6.W.<.| 6.z O e <.<.%.3.3.K K <.1.1.M. .X.X.",
"-.p p - 1 h ! <.P.7 y x 6 j ] 6.] | / <.8.W.5X3.n C C 0 , p l 7.m.[.L.7 t 6 t h c v G.L.y n 3.w * s c z d ' J.+.K <.M.' s.U.m.' ",
"-.: 1 - 2 t W 2.6.: s Y y l / n j j n / b $.J.b z p C : - 4 z T.+.4 5.` c U c ! ! Y 1.m.z Y G.b 6 p ` Z z ` h.M.3.L ` +.3.R.&.` ",
"*.2 - - = f U G.] & y Y { $.8.} n n q.b y & P.O.0 - - - : p z _.2.n z 1.c W W Q g r K M.b l 3.` z X.O.Q Q ' z %.U.J.` +.a.X.a.&.",
"~ ; = - t U _ [.c x ] <.2.2.7.L.L.L./ x 6 C L.s : 1 # - p 7 1.3X+.K 7 1.~ Q A Q B d X.E.+.Z %.U.@.@.Z ` ` z e +.m.M.3.&.Z +.u.M.",
"(.-.[ g.9.*.D.tXG.' _ ! b b c b <.1X{ l | 4.S.l y t & 4 p [ =XU.d.&.l d.1. .M , N M O..X}. X}.;Xf.X.X.Z s p V U.'.Z 4 Z Z B z X.",
"+.` } [ s 4 Z T.].2.8 b | n s 7 6 } <Xb v _ G.J W [ =.5.h.T.@.B &.m.n M.A Q O.Q ^ S #..XoX;XrXyX$X$XH.O.C C R.tXJ.Z s C g z C E ",
"6 s W 7 b ;._ s J.4X} 8.4.n f h 7 s _.m.j _ P.K } } [ } 1.A  .D V X.d.#XM.Z A #...#.t. XeX9XgXrX}.h.O.Z Z A !. XL ` X.` Z C g d ",
"[ ` 1.G.H._ * : w #X3XQ.8.| ] [ } O.G.5X].<X[.' K l w z +.X.@.a.Q w L 1X3Xh.e @.l.l.B.%XZ..XdX%Xs.A B w g A u.X.K L N.'.[ W d , ",
"h.H.2X+Xb s t h 6 <.3X'.Q.P.7.-.[ Q B H.tXQ.J.%.s 6 s b &.X.` +.@.' Q %.#X1X` `  .a.Y.u.P l.;XV.u.X.Z c c z +.' L &.&.4X=Xz p 0 ",
"b m.4XL c c t h 6 h.3.L X.K s s 4 c ' T.Z w b <.1._ c Z +.Q.=XM.` E Z c M.=XT.!.+XeX2XC.I.U.@XI.s.&.' ` ;.} %.3.P J P C.3Xg.p 0 ",
"s [ T.Z Z c y s W 5.n z _ } | ` b Z U.h.s d c b _ -.7.7.m.!.+.l p : : $ z 1.A d.Y.C.Y.2X@XM.X.L ' %.H.$X'.M.B.m.$.&.U.d.M.eXE.1.",
"6 } T._ | c f ` 7.n l } <.K [ +.7.Q.J.l l l / [ z w z X.J.K s g C g g h w 1.X.&.B.o.u.s.e z } 3.%.X.d.a.L z n &.=X=Xa.X.V OX3X&.",
"w <.U.%.m.J.Q.#X'.' %.7.| Z c Z ' 3X1.7 c b $.} K n 1.#X'.Z 0 0 d M g p 9 @.+.s..XB.j.A z Z n m.=X=X~.&.C M a s M.1.z Q S R.'.Z ",
"3.=XQ.%.3.&.' n d.T.3.<.+.} -.} X.fXK.y Y 2.2.K ' W.h.z Z k.c C p g ~ ~ C ` 1.X. X XA Z ` X.&.&.sX-Xd.P B d q a @.@.z B L @XT.&.",
"` #X~.%.K l w b 3.K Z b c l z Z Z 5XfX` %.m.3.U.1Xh.B d * Q j. .a z C O.Q h.h.K T.` Z ` X.@.C.V.sX@Xd.u.A A S e @.@.M C L @XY.@.",
"U.&.%.'.H.h.3._.#Xd.` z g g E W _ 1XhX#X%.3.'.aXU.r A A a p B 1.g.1.Z S.2XR.+.T.m.w M G P &XhXoXrX%Xu.o.#.#.t...Y.x.^ ..u.@X@Xu.",
"J.n n h.' W X.N.B.-XOXz A Q E C Z !.2XaX-X'.2X X&.Q B  .C B w c ;.H.#X-XI.` B 1Xg.e P e.A.wXwXXXeXi.u.f.s.c.x.A.9XoXb.z.V.C..Xu.",
"+.X.` +.K Z +.U.N.;XtX@.~ Z a w g.+.V ` ~.-XU.X.S @... .^ Q Q W } 1.m.` z A P gXY.D {.iX6Xb.V.A.oXl.p.i.x.z.A.9XhXuX0XoXl.i.B.f.",
"%.' X.3.+.L %.Y.U.aXfXY.Z z z +.1.d e 4 L ~.U.&.L L  .D  .@.f.U.M.%.` ` Z B n.jX9Xb.7XuX{.b.A.{.oXA.l.e.i.}.XXpXjXjXkX9Xl.u.s.M.",
"%.%.3.m.+.h.H.&.u.u.@X2XE.;.O.+.Z d 0 e K +.1.I.M.I. XY.@X-X$XB.U.M.` ` ` Q qXjXhX7XA.c.z.c.c.{.9X6XZ.I y.Z.rXkXkXiXpX&XZ.u.o.u.",
"1.M.h.B q Q +.` ` L  .@.+.Q C O.O.C 0 p L ` z V X.o.Y.@X}.}.9X Xd.U.a.K z B.sXuXjXdXx.r.t.r...r.XXwX|.p.r.p.{.qXpXuXwXoXV.N.u.u.",
"3.I.A q , 0 z Z ' L +.' C C z d ' O.~ O.I.1.Z A A o.f.l.i.P l.qXV.C.2X#X~.=Xf.F 7XwX%Xt.D ^ F F v.XXuX7Xv.e.y.z.9XuXrXoXC.r.u.f.",
"1.@.q , < 0 z C ` ` C M e B @.j.$XI.@.+.1.j.1.Q L a.l.z.b.b.p.8X;X XY.R.+Xs.A F n.oXi.Y.#.^ ^ D e.x.uXjXA.e.y.}.6X9XXXV.i.N.&.u.",
"1.V < , , p a B ' j.Q C ' j.H.Y.!. .q e B j.k.A @.u.t.b.8X7X|.n.C.l.P A M.j.A A c.&XH r.s.D t.H r.x.n.wX7X{.oX}.p.r.C.z.P P P u.",
"@.d > , a M z ` d.'.U.M.g.1.&.f..Xa.z B c ..B.#.@.S S p.pXkX8Xv.i.i.Q B s.a.B S ..x.t.S x.r.z.9XXX6Xp.p.7X7Xp.e.H F ^ t.i.r.u.u.",
"+.9 , , 0 B O.g.X.X.&.&.L o.&.M.-XB.P C M e  .OXj.e m F pXjX7X8Xi.a.^ Q &.&.A M m F #.F s.Z.v.uXrX9X|.&X|.n.n.H F N N F P P u.f.",
"eXB > > e O.d.L V +.@.@. .`  . . X Xu.C a B q N F.m < N |.iX7XkXwXl.u.^ @.@.O.S N D P p.Z.&Xz.b.XXqX}.s.v.z.7Xv.N N m m B G P l.",
" X2X(.#.d.@.L z A  .+.X.Z B @...R.B.@. .g M N < A i.q N v.iXpX0XyXx.@.@.X.&.O.^ D e.b.9X0X9XA.b.6X&Xe.t.v.n.iX7XH N 3 m m m D l."
};